<svg width="24" height="24" viewBox="0 0 24 24" fill="none" xmlns="http://www.w3.org/2000/svg">
<path d="M12 2C17.5228 2 22 6.47715 22 12C22 17.5228 17.5228 22 12 22C6.47715 22 2 17.5228 2 12C2 6.47715 6.47715 2 12 2ZM10 17C8.91931 17 8.0405 17.8572 8.00293 18.9287C9.17923 19.6088 10.5436 20 12 20C13.4561 20 14.82 19.6085 15.9961 18.9287C15.9585 17.8572 15.0807 17 14 17H10ZM12 4C7.58172 4 4 7.58172 4 12C4 14.1674 4.86292 16.1325 6.2627 17.5732C6.83738 16.0688 8.29358 15 10 15H14C15.7063 15 17.1616 16.0689 17.7363 17.5732C19.1364 16.1325 20 14.1677 20 12C20 7.58172 16.4183 4 12 4ZM12 6C14.2091 6 16 7.79086 16 10C16 12.2091 14.2091 14 12 14C9.79086 14 8 12.2091 8 10C8 7.79086 9.79086 6 12 6ZM12 8C10.8954 8 10 8.89543 10 10C10 11.1046 10.8954 12 12 12C13.1046 12 14 11.1046 14 10C14 8.89543 13.1046 8 12 8Z" fill="black"/>
</svg>
