<svg width="24" height="24" viewBox="0 0 24 24" fill="none" xmlns="http://www.w3.org/2000/svg">
<path d="M11.0576 2.00163C11.5442 2.02992 11.9402 2.40498 11.9942 2.88933L13.3457 15.0534L15.0254 7.77507L15.0752 7.61882C15.2192 7.26917 15.5527 7.02525 15.9395 7.00163C16.3813 6.97484 16.788 7.24197 16.9395 7.65788L18.4024 11.6823L18.793 11.2926L18.8662 11.2262C19.0442 11.0805 19.268 10.9997 19.5 10.9997H21L21.1026 11.0046C21.6066 11.0559 21.9999 11.4821 22 11.9997C22 12.5173 21.6067 12.9434 21.1026 12.9948L21 12.9997H19.9141L18.7071 14.2067C18.4654 14.4484 18.1169 14.5503 17.7832 14.4762C17.4497 14.4022 17.1774 14.1625 17.0606 13.8415L16.2149 11.5153L13.9746 21.2243C13.8651 21.6992 13.4289 22.0258 12.9424 21.9977C12.4558 21.9694 12.0597 21.5945 12.0059 21.11L10.6534 8.94499L8.97464 16.2243C8.87504 16.6559 8.50271 16.9707 8.06058 16.9977C7.61864 17.0245 7.21196 16.7576 7.06058 16.3415L5.59671 12.3161L5.20706 12.7067C5.01953 12.8942 4.76525 12.9997 4.50003 12.9997H3.00003C2.44775 12.9997 2.00003 12.552 2.00003 11.9997C2.0002 11.4475 2.44785 10.9997 3.00003 10.9997H4.08597L5.293 9.79265L5.3887 9.70866C5.62178 9.52857 5.92504 9.45841 6.21683 9.52312C6.55027 9.59714 6.82261 9.83695 6.93948 10.1579L7.78421 12.4831L10.0254 2.77507C10.1351 2.30037 10.5713 1.97356 11.0576 2.00163Z" fill="black"/>
</svg>
