<svg width="24" height="24" viewBox="0 0 24 24" fill="none" xmlns="http://www.w3.org/2000/svg">
<path d="M12 2C12.5523 2 13 2.44772 13 3C13 3.55228 12.5523 4 12 4C7.58172 4 4 7.58172 4 12C4 16.4183 7.58172 20 12 20C16.4183 20 20 16.4183 20 12C20 11.4477 20.4477 11 21 11C21.5523 11 22 11.4477 22 12C22 17.5228 17.5228 22 12 22C6.47715 22 2 17.5228 2 12C2 6.47715 6.47715 2 12 2ZM7.75586 14.8262C8.12225 14.4606 8.70226 14.4372 9.09473 14.7578L9.16992 14.8262L9.30957 14.959C10.0208 15.6062 10.9636 15.9999 12 16C13.1055 15.9999 14.1051 15.552 14.8301 14.8262L14.9062 14.7578C15.2988 14.4376 15.8779 14.4604 16.2441 14.8262C16.6347 15.2164 16.635 15.8495 16.2451 16.2402L16.0371 16.4385C14.9722 17.4073 13.5541 17.9999 12 18C10.446 17.9999 9.02881 17.4073 7.96387 16.4385L7.75586 16.2402L7.68652 16.1641C7.3666 15.7713 7.38995 15.1921 7.75586 14.8262ZM9.5 9C10.3284 9 11 9.67157 11 10.5C11 11.3284 10.3284 12 9.5 12C8.67157 12 8 11.3284 8 10.5C8 9.67157 8.67157 9 9.5 9ZM14.5 9C15.3284 9 16 9.67157 16 10.5C16 11.3284 15.3284 12 14.5 12C13.6716 12 13 11.3284 13 10.5C13 9.67157 13.6716 9 14.5 9ZM19 1.5C19.5523 1.5 20 1.94772 20 2.5V4H21.5C22.0523 4 22.5 4.44772 22.5 5C22.5 5.55228 22.0523 6 21.5 6H20V7.5C20 8.05228 19.5523 8.5 19 8.5C18.4477 8.5 18 8.05228 18 7.5V6H16.5C15.9477 6 15.5 5.55228 15.5 5C15.5 4.44772 15.9477 4 16.5 4H18V2.5C18 1.94772 18.4477 1.5 19 1.5Z" fill="black"/>
</svg>
