<svg width="24" height="24" viewBox="0 0 24 24" fill="none" xmlns="http://www.w3.org/2000/svg">
<path d="M4.14636 16.5068C4.56427 16.2014 5.14045 16.2678 5.47937 16.6445L5.54382 16.7236L5.83289 17.0957C6.53175 17.9415 7.39838 18.6358 8.37976 19.1338C9.50154 19.703 10.7419 20 11.9999 20C12.5522 20 12.9999 20.4477 12.9999 21C12.9999 21.5523 12.5522 22 11.9999 22C10.4275 22 8.87672 21.6295 7.47449 20.918C6.15997 20.2509 5.0109 19.3012 4.1073 18.1396L3.92957 17.9053L3.87292 17.8193C3.61659 17.3822 3.72858 16.8126 4.14636 16.5068ZM17.5995 20.2852C17.1419 20.5942 16.52 20.4741 16.2108 20.0166C15.9018 19.5591 16.0221 18.9372 16.4794 18.6279L17.5995 20.2852ZM11.9999 2C14.1406 2 16.225 2.68702 17.9462 3.95996C19.6672 5.23286 20.9345 7.02452 21.5614 9.07129C22.1883 11.1182 22.1417 13.3126 21.4286 15.3311C20.7154 17.3496 19.3731 19.0863 17.5995 20.2852L17.0399 19.4561L16.4794 18.6279C17.8983 17.6689 18.9723 16.2798 19.5428 14.665C20.1134 13.0502 20.1508 11.2948 19.6493 9.65723C19.1478 8.01972 18.1336 6.58672 16.7567 5.56836C15.3798 4.55 13.7125 4 11.9999 4C11.4476 3.99995 10.9999 3.55225 10.9999 3C10.9999 2.44775 11.4476 2.00005 11.9999 2ZM11.9999 7C12.5522 7 12.9999 7.44772 12.9999 8V11H15.9999C16.5522 11 16.9999 11.4477 16.9999 12C16.9999 12.5523 16.5522 13 15.9999 13H12.9999V16C12.9999 16.5523 12.5522 17 11.9999 17C11.4476 16.9999 10.9999 16.5523 10.9999 16V13H7.99988C7.44764 12.9999 6.99988 12.5523 6.99988 12C6.99988 11.4477 7.44764 11.0001 7.99988 11H10.9999V8C10.9999 7.44775 11.4476 7.00005 11.9999 7ZM3.11121 7.41895C3.36425 6.92817 3.96703 6.73537 4.45789 6.98828C4.94874 7.24127 5.14144 7.84407 4.88855 8.33496C4.1272 9.81231 3.84503 11.4906 4.08093 13.1357C4.15919 13.6823 3.77975 14.1891 3.23328 14.2676C2.68662 14.3459 2.17983 13.9656 2.10144 13.4189C1.80667 11.3626 2.15958 9.2655 3.11121 7.41895ZM7.36511 3.13867C7.85448 2.88274 8.45875 3.07219 8.71472 3.56152C8.97069 4.05091 8.78126 4.65516 8.29187 4.91113L8.07019 5.03223C7.85024 5.15628 7.63589 5.29023 7.42859 5.43457C6.97536 5.75011 6.35159 5.63876 6.03601 5.18555C5.72063 4.73235 5.83291 4.1095 6.28601 3.79395C6.63167 3.55326 6.99186 3.3339 7.36511 3.13867Z" fill="black"/>
</svg>
