<svg width="24" height="24" viewBox="0 0 24 24" fill="none" xmlns="http://www.w3.org/2000/svg">
<path d="M19 15.5C19.5523 15.5 20 15.9477 20 16.5V18H21.5C22.0523 18 22.5 18.4477 22.5 19C22.5 19.5523 22.0523 20 21.5 20H20V21.5C20 22.0523 19.5523 22.5 19 22.5C18.4477 22.5 18 22.0523 18 21.5V20H16.5C15.9477 20 15.5 19.5523 15.5 19C15.5 18.4477 15.9477 18 16.5 18H18V16.5C18 15.9477 18.4477 15.5 19 15.5ZM16 13C16.5523 13 17 13.4477 17 14C17 14.5523 16.5523 15 16 15H9.375C7.51104 15 6 16.511 6 18.375C6 19.2725 6.72754 20 7.625 20H12.5C13.0523 20 13.5 20.4477 13.5 21C13.5 21.5523 13.0523 22 12.5 22H7.625C5.62297 22 4 20.377 4 18.375C4 15.4065 6.40647 13 9.375 13H16ZM12 2C14.7614 2 17 4.23858 17 7C17 9.76142 14.7614 12 12 12C9.23858 12 7 9.76142 7 7C7 4.23858 9.23858 2 12 2ZM12 4C10.3431 4 9 5.34315 9 7C9 8.65685 10.3431 10 12 10C13.6569 10 15 8.65685 15 7C15 5.34315 13.6569 4 12 4Z" fill="black"/>
</svg>
