<svg width="24" height="24" viewBox="0 0 24 24" fill="none" xmlns="http://www.w3.org/2000/svg">
<path d="M17 3C19.2091 3 21 4.79086 21 7V17C21 19.2091 19.2091 21 17 21H7C4.79086 21 3 19.2091 3 17V7C3 4.79086 4.79086 3 7 3H17ZM7 5C5.89543 5 5 5.89543 5 7V17C5 18.1046 5.89543 19 7 19V15C7 14.4477 7.44772 14 8 14C8.55228 14 9 14.4477 9 15V19H11V12C11 11.4477 11.4477 11 12 11C12.5523 11 13 11.4477 13 12V19H15V9C15 8.44772 15.4477 8 16 8C16.5523 8 17 8.44772 17 9V19C18.1046 19 19 18.1046 19 17V7C19 5.89543 18.1046 5 17 5H7Z" fill="black"/>
</svg>
