<svg width="24" height="24" viewBox="0 0 24 24" fill="none" xmlns="http://www.w3.org/2000/svg">
<path fill-rule="evenodd" clip-rule="evenodd" d="M14.7515 3.51219C15.5235 2.58269 16.0438 1.28809 15.9014 0C14.789 0.0440004 13.4432 0.738268 12.6455 1.66667C11.9292 2.49056 11.3039 3.80702 11.472 5.06982C12.713 5.16551 13.9796 4.44278 14.7515 3.51219ZM17.5342 11.6876C17.5653 15.0173 20.4679 16.1249 20.5 16.1392C20.4764 16.2173 20.0364 17.7174 18.9711 19.2684C18.0492 20.6082 17.0931 21.9426 15.5867 21.9712C14.107 21.9987 13.6305 21.0979 11.9378 21.0979C10.2461 21.0979 9.7172 21.9425 8.31675 21.9986C6.86277 22.0525 5.75462 20.549 4.82634 19.2137C2.92695 16.4824 1.47619 11.4952 3.42482 8.12923C4.39272 6.45833 6.12186 5.39862 7.99983 5.37222C9.42704 5.34472 10.775 6.32828 11.6476 6.32828C12.5202 6.32828 14.1584 5.14578 15.88 5.31958C16.6006 5.34928 18.6242 5.60879 19.9229 7.50188C19.818 7.56678 17.5085 8.90463 17.5342 11.6876Z" fill="black"/>
</svg>
