<svg width="24" height="24" viewBox="0 0 24 24" fill="none" xmlns="http://www.w3.org/2000/svg">
<path d="M8 13.0001C9.65685 13.0001 11 14.3432 11 16.0001V18.0001C11 19.6569 9.65683 21.0001 8 21.0001H6C4.34317 21.0001 3.00004 19.6569 3 18.0001V16.0001C3 14.3432 4.34315 13.0001 6 13.0001H8ZM18 13.0001C19.6569 13.0001 21 14.3432 21 16.0001V18.0001C21 19.6569 19.6568 21.0001 18 21.0001H16C14.3432 21.0001 13 19.6569 13 18.0001V16.0001C13 14.3432 14.3431 13.0001 16 13.0001H18ZM6 15.0001C5.44772 15.0001 5 15.4478 5 16.0001V18.0001C5.00004 18.5523 5.44774 19.0001 6 19.0001H8C8.55226 19.0001 8.99996 18.5523 9 18.0001V16.0001C9 15.4478 8.55228 15.0001 8 15.0001H6ZM16 15.0001C15.4477 15.0001 15 15.4478 15 16.0001V18.0001C15 18.5523 15.4477 19.0001 16 19.0001H18C18.5523 19.0001 19 18.5523 19 18.0001V16.0001C19 15.4478 18.5523 15.0001 18 15.0001H16ZM14.8789 3.4649C16.0505 2.29333 17.9495 2.29333 19.1211 3.4649L20.5352 4.87897C21.7067 6.05054 21.7067 7.94958 20.5352 9.12115L19.1211 10.5352C17.9495 11.7068 16.0505 11.7068 14.8789 10.5352L13.4648 9.12115C12.2933 7.94958 12.2933 6.05054 13.4648 4.87897L14.8789 3.4649ZM8 3.00006C9.65685 3.00006 11 4.34321 11 6.00006V8.00006C11 9.65689 9.65683 11.0001 8 11.0001H6C4.34317 11.0001 3.00004 9.65689 3 8.00006V6.00006C3 4.34321 4.34315 3.00006 6 3.00006H8ZM17.707 4.87897C17.3165 4.48844 16.6835 4.48844 16.293 4.87897L14.8789 6.29303C14.4884 6.68355 14.4884 7.31657 14.8789 7.70709L16.293 9.12115C16.6835 9.51168 17.3165 9.51168 17.707 9.12115L19.1211 7.70709C19.5116 7.31657 19.5116 6.68355 19.1211 6.29303L17.707 4.87897ZM6 5.00006C5.44772 5.00006 5 5.44778 5 6.00006V8.00006C5.00004 8.55232 5.44774 9.00006 6 9.00006H8C8.55226 9.00006 8.99996 8.55232 9 8.00006V6.00006C9 5.44778 8.55228 5.00006 8 5.00006H6Z" fill="black"/>
</svg>
