<svg width="24" height="24" viewBox="0 0 24 24" fill="none" xmlns="http://www.w3.org/2000/svg">
<path d="M17 3C19.2091 3 21 4.79086 21 7V17C21 19.2091 19.2091 21 17 21H7C4.79086 21 3 19.2091 3 17V7C3 4.79086 4.79086 3 7 3H17ZM5 17C5 18.1046 5.89543 19 7 19H17C18.1046 19 19 18.1046 19 17V13H14C14 13.5523 13.5523 14 13 14H11C10.4477 14 10 13.5523 10 13H5V17ZM7 5C5.89543 5 5 5.89543 5 7V11H19V7C19 5.89543 18.1046 5 17 5H14C14 5.55228 13.5523 6 13 6H11C10.4477 6 10 5.55228 10 5H7Z" fill="black"/>
</svg>
