<svg width="24" height="24" viewBox="0 0 24 24" fill="none" xmlns="http://www.w3.org/2000/svg">
<path d="M19 3C20.6569 3 22 4.34315 22 6V7C22 7.88738 21.6124 8.68219 21 9.23145V17C21 19.2091 19.2091 21 17 21H7C4.79086 21 3 19.2091 3 17V9.23145C2.3876 8.68219 2 7.88738 2 7V6C2 4.34315 3.34315 3 5 3H19ZM5 10V17C5 18.1046 5.89543 19 7 19H17C18.1046 19 19 18.1046 19 17V10H5ZM14 12C14.5523 12 15 12.4477 15 13C15 13.5523 14.5523 14 14 14H10C9.44772 14 9 13.5523 9 13C9 12.4477 9.44772 12 10 12H14ZM5 5C4.44772 5 4 5.44772 4 6V7C4 7.55228 4.44772 8 5 8H19C19.5523 8 20 7.55228 20 7V6C20 5.44772 19.5523 5 19 5H5Z" fill="black"/>
</svg>
