<svg width="24" height="24" viewBox="0 0 24 24" fill="none" xmlns="http://www.w3.org/2000/svg">
<path d="M12 2C17.5228 2 22 6.47715 22 12C22 17.5228 17.5228 22 12 22C6.47715 22 2 17.5228 2 12C2 6.47715 6.47715 2 12 2ZM12 4C7.58172 4 4 7.58172 4 12C4 16.4183 7.58172 20 12 20C16.4183 20 20 16.4183 20 12C20 7.58172 16.4183 4 12 4ZM13.793 10.293C14.1835 9.90244 14.8165 9.90244 15.207 10.293C15.5976 10.6835 15.5976 11.3165 15.207 11.707L13.4141 13.5C12.633 14.2809 11.367 14.2809 10.5859 13.5L8.79297 11.707L8.72461 11.6309C8.40426 11.2381 8.42685 10.6591 8.79297 10.293C9.15908 9.92685 9.73809 9.90426 10.1309 10.2246L10.207 10.293L12 12.0859L13.793 10.293Z" fill="black"/>
</svg>
