<svg width="24" height="24" viewBox="0 0 24 24" fill="none" xmlns="http://www.w3.org/2000/svg">
<path d="M12 2C17.5228 2 22 6.47715 22 12C22 17.5228 17.5228 22 12 22C6.47715 22 2 17.5228 2 12C2 6.47715 6.47715 2 12 2ZM12 4C7.58172 4 4 7.58172 4 12C4 16.4183 7.58172 20 12 20C16.4183 20 20 16.4183 20 12C20 7.58172 16.4183 4 12 4ZM10.293 8.79297C10.6835 8.40244 11.3165 8.40244 11.707 8.79297L13.5 10.5859C14.2809 11.367 14.2809 12.633 13.5 13.4141L11.707 15.207L11.6309 15.2754C11.2381 15.5957 10.6591 15.5731 10.293 15.207C9.92685 14.8409 9.90426 14.2619 10.2246 13.8691L10.293 13.793L12.0859 12L10.293 10.207C9.90244 9.81651 9.90244 9.18349 10.293 8.79297Z" fill="black"/>
</svg>
