<svg width="24" height="24" viewBox="0 0 24 24" fill="none" xmlns="http://www.w3.org/2000/svg">
<path d="M12 2C17.5228 2 22 6.47715 22 12C22 17.5228 17.5228 22 12 22C6.47715 22 2 17.5228 2 12C2 6.47715 6.47715 2 12 2ZM12 4C7.58172 4 4 7.58172 4 12C4 16.4183 7.58172 20 12 20C16.4183 20 20 16.4183 20 12C20 7.58172 16.4183 4 12 4ZM10.5859 10.5C11.367 9.71905 12.633 9.71905 13.4141 10.5L15.207 12.293C15.5976 12.6835 15.5976 13.3165 15.207 13.707C14.8165 14.0976 14.1835 14.0976 13.793 13.707L12 11.9141L10.207 13.707L10.1309 13.7754C9.73809 14.0957 9.15908 14.0731 8.79297 13.707C8.42685 13.3409 8.40426 12.7619 8.72461 12.3691L8.79297 12.293L10.5859 10.5Z" fill="black"/>
</svg>
