<svg width="24" height="24" viewBox="0 0 24 24" fill="none" xmlns="http://www.w3.org/2000/svg">
<path d="M12 2C17.5228 2 22 6.47715 22 12C22 17.5228 17.5228 22 12 22C6.47715 22 2 17.5228 2 12C2 6.47715 6.47715 2 12 2ZM12 4C7.58172 4 4 7.58172 4 12C4 16.4183 7.58172 20 12 20C16.4183 20 20 16.4183 20 12C20 7.58172 16.4183 4 12 4ZM12.293 8.79297C12.6835 8.40244 13.3165 8.40244 13.707 8.79297C14.0976 9.18349 14.0976 9.81651 13.707 10.207L11.9141 12L13.707 13.793L13.7754 13.8691C14.0957 14.2619 14.0731 14.8409 13.707 15.207C13.3409 15.5731 12.7619 15.5957 12.3691 15.2754L12.293 15.207L10.5 13.4141C9.71905 12.633 9.71905 11.367 10.5 10.5859L12.293 8.79297Z" fill="black"/>
</svg>
