<svg width="24" height="24" viewBox="0 0 24 24" fill="none" xmlns="http://www.w3.org/2000/svg">
<path d="M18 14C19.6569 14 21 15.3431 21 17C21 18.6569 19.6569 20 18 20H6C4.34315 20 3 18.6569 3 17C3 15.3431 4.34315 14 6 14H18ZM6 16C5.44772 16 5 16.4477 5 17C5 17.5523 5.44772 18 6 18H18C18.5523 18 19 17.5523 19 17C19 16.4477 18.5523 16 18 16H6ZM14 9C14.5523 9 15 9.44772 15 10C15 10.5523 14.5523 11 14 11H6C5.44772 11 5 10.5523 5 10C5 9.44772 5.44772 9 6 9H14ZM10 4C10.5523 4 11 4.44772 11 5C11 5.55228 10.5523 6 10 6H6C5.44772 6 5 5.55228 5 5C5 4.44772 5.44772 4 6 4H10Z" fill="black"/>
</svg>
