<svg width="24" height="24" viewBox="0 0 24 24" fill="none" xmlns="http://www.w3.org/2000/svg">
<path d="M12 2C17.5228 2 22 6.47715 22 12V12.5C22 14.433 20.433 16 18.5 16C17.5313 16 16.6552 15.6057 16.0215 14.9697C15.1107 16.201 13.6491 17 12 17C9.23858 17 7 14.7614 7 12C7 9.23858 9.23858 7 12 7C14.7614 7 17 9.23858 17 12V12.5C17 13.3284 17.6716 14 18.5 14C19.3284 14 20 13.3284 20 12.5V12C20 7.58172 16.4183 4 12 4C7.58172 4 4 7.58172 4 12C4 16.4183 7.58172 20 12 20H16C16.5523 20 17 20.4477 17 21C17 21.5523 16.5523 22 16 22H12C6.47715 22 2 17.5228 2 12C2 6.47715 6.47715 2 12 2ZM12 9C10.3431 9 9 10.3431 9 12C9 13.6569 10.3431 15 12 15C13.6569 15 15 13.6569 15 12C15 10.3431 13.6569 9 12 9Z" fill="black"/>
</svg>
