<svg width="24" height="24" viewBox="0 0 24 24" fill="none" xmlns="http://www.w3.org/2000/svg">
<path d="M10.2927 3.79332C12.3401 1.74594 15.6594 1.74594 17.7068 3.79332C19.7541 5.8407 19.7541 9.16003 17.7068 11.2074L12.4568 16.4574C11.0998 17.8141 8.89966 17.8142 7.54272 16.4574C6.1858 15.1005 6.18599 12.9004 7.54272 11.5433L9.29272 9.79332C9.68325 9.4028 10.3163 9.4028 10.7068 9.79332C11.0972 10.1838 11.0973 10.8169 10.7068 11.2074L8.95679 12.9574C8.3811 13.5334 8.38091 14.4674 8.95679 15.0433C9.53267 15.6191 10.4668 15.619 11.0427 15.0433L16.2927 9.79332C17.559 8.52701 17.559 6.47372 16.2927 5.20738C15.0264 3.94105 12.9731 3.94105 11.7068 5.20738L6.45679 10.4574C4.50039 12.4141 4.5002 15.5867 6.45679 17.5433C8.41338 19.4998 11.586 19.4997 13.5427 17.5433L19.2927 11.7933C19.6832 11.4028 20.3163 11.4028 20.7068 11.7933C21.0972 12.1838 21.0973 12.8169 20.7068 13.2074L14.9568 18.9574C12.2191 21.6948 7.78037 21.695 5.04272 18.9574C2.30509 16.2197 2.30528 11.7811 5.04272 9.04332L10.2927 3.79332Z" fill="black"/>
</svg>
