<svg width="24" height="24" viewBox="0 0 24 24" fill="none" xmlns="http://www.w3.org/2000/svg">
<path d="M17.751 2.18324C19.4998 2.0376 20.9998 3.41858 21 5.17348V17.4996C21 19.4326 19.433 20.9996 17.5 20.9996C15.567 20.9996 14 19.4326 14 17.4996C14.0002 15.5668 15.5671 13.9996 17.5 13.9996C18.0368 13.9996 18.5454 14.1206 19 14.3366V9.08559L9 9.91859V18.4996C9 20.4326 7.433 21.9996 5.5 21.9996C3.567 21.9996 2 20.4326 2 18.4996C2.00019 16.5668 3.56712 14.9996 5.5 14.9996C6.03676 14.9996 6.5454 15.1206 7 15.3366V5.83949C7.00039 4.27957 8.19635 2.97979 9.75098 2.85023L17.751 2.18324ZM5.5 16.9996C4.67169 16.9996 4.00019 17.6714 4 18.4996C4 19.3281 4.67157 19.9996 5.5 19.9996C6.32843 19.9996 7 19.3281 7 18.4996C6.99981 17.6714 6.32831 16.9996 5.5 16.9996ZM17.5 15.9996C16.6717 15.9996 16.0002 16.6714 16 17.4996C16 18.3281 16.6716 18.9996 17.5 18.9996C18.3284 18.9996 19 18.3281 19 17.4996C18.9998 16.6714 18.3283 15.9996 17.5 15.9996ZM17.917 4.17641L9.91699 4.8434C9.39895 4.88657 9.00039 5.31974 9 5.83949V7.91273L19 7.07973V5.17348C18.9998 4.58863 18.4999 4.12789 17.917 4.17641Z" fill="black"/>
</svg>
