<svg width="24" height="24" viewBox="0 0 24 24" fill="none" xmlns="http://www.w3.org/2000/svg">
<path d="M16 2C17.1046 2 18 2.89543 18 4V4.00293C20.2037 4.06645 21.9062 5.98701 21.6855 8.19629C21.5299 9.75279 20.4396 11.0576 18.9355 11.4873L18.3994 11.6396C18.1629 11.7073 18 11.9239 18 12.1699C18 12.354 18.0921 12.5257 18.2451 12.6279L19.0547 13.168C19.5142 13.4743 19.6384 14.0952 19.332 14.5547C19.0257 15.0142 18.4048 15.1384 17.9453 14.832L17.71 14.6758C17.0208 16.6126 15.1733 18 13 18V20H15C15.5523 20 16 20.4477 16 21C16 21.5523 15.5523 22 15 22H9C8.44773 22 8 21.5523 8 21C8 20.4477 8.44773 20 9 20H11V18C8.82654 18 6.97814 16.6128 6.28906 14.6758L6.05469 14.832C5.59516 15.1384 4.97432 15.0142 4.66797 14.5547C4.36163 14.0952 4.4858 13.4743 4.94531 13.168L5.75488 12.6279C5.90794 12.5257 6 12.354 6 12.1699C6 11.9239 5.83709 11.7073 5.60059 11.6396L5.06445 11.4873C3.56038 11.0576 2.4701 9.75279 2.31445 8.19629C2.09375 5.98703 3.7963 4.06648 6 4.00293V4C6 2.89544 6.89544 2.00002 8 2H16ZM8 13C8 14.6568 9.34316 16 11 16H13C14.6569 16 16 14.6569 16 13V4H8V13ZM6 6.00586C4.97983 6.06808 4.2015 6.96619 4.30469 7.99805C4.37891 8.73869 4.8976 9.35886 5.61328 9.56348L6 9.67383V6.00586ZM18 9.67383L18.3867 9.56348C19.1024 9.35887 19.6211 8.7387 19.6953 7.99805C19.7985 6.96617 19.0202 6.06805 18 6.00586V9.67383Z" fill="black"/>
</svg>
