<svg width="24" height="24" viewBox="0 0 24 24" fill="none" xmlns="http://www.w3.org/2000/svg">
<path d="M17 3C19.2091 3 21 4.79086 21 7V11C21 12.0138 20.6217 12.9386 20 13.6436V14C20 15.0138 19.6217 15.9386 19 16.6436V17C19 19.2091 17.2091 21 15 21H9C6.79086 21 5 19.2091 5 17V16.6436C4.37831 15.9386 4 15.0138 4 14V13.6436C3.37831 12.9386 3 12.0138 3 11V7C3 4.79086 4.79086 3 7 3H17ZM16.7715 17.9248C16.5218 17.9736 16.264 18 16 18H8C7.7357 18 7.47751 17.9737 7.22754 17.9248C7.56149 18.5635 8.22931 19 9 19H15C15.7705 19 16.4375 18.5633 16.7715 17.9248ZM17.7715 14.9248C17.5218 14.9736 17.264 15 17 15H7C6.7357 15 6.47751 14.9737 6.22754 14.9248C6.56149 15.5635 7.22931 16 8 16H16C16.7705 16 17.4375 15.5633 17.7715 14.9248ZM7 5C5.89543 5 5 5.89543 5 7V11C5 12.1046 5.89543 13 7 13H17C18.1046 13 19 12.1046 19 11V7C19 5.89543 18.1046 5 17 5H7Z" fill="black"/>
</svg>
