<svg width="24" height="24" viewBox="0 0 24 24" fill="none" xmlns="http://www.w3.org/2000/svg">
<path d="M14.4998 0.999664C16.3797 0.999664 17.9994 2.45508 17.9998 4.3649C17.9998 5.05374 17.8217 5.67007 17.4451 6.18716C18.1048 6.29909 18.6998 6.50436 19.2292 6.90494C19.5968 7.18314 19.9186 7.51953 20.1833 7.89908C20.6388 8.55236 20.8268 9.29804 20.9148 10.1432C21.001 10.972 20.9998 12.0102 20.9998 13.2907V14.7487C20.9998 16.0292 21.001 17.0672 20.9148 17.8961C20.8269 18.7415 20.6389 19.4869 20.1833 20.1403L20.1775 20.1481L20.1726 20.1559C19.8507 20.5994 19.4675 20.9706 19.0261 21.276L19.0076 21.2887L18.989 21.3004C18.3655 21.6926 17.6594 21.8516 16.8787 21.9264C16.1081 22.0003 15.1555 21.9997 14.0046 21.9997H12.865C12.692 22.2984 12.3698 22.4997 11.9998 22.4997C11.6297 22.4996 11.3074 22.2985 11.1345 21.9997H9.99487C8.84397 21.9997 7.89143 22.0003 7.12085 21.9264C6.34017 21.8515 5.63395 21.6926 5.0105 21.3004L4.99194 21.2887L4.97339 21.276C4.53184 20.9704 4.14729 20.5973 3.82691 20.1559L3.82202 20.1481L3.81616 20.1403C3.36072 19.487 3.17263 18.7414 3.08472 17.8961C2.99854 17.0672 2.99976 16.0292 2.99976 14.7487V13.2907C2.99976 12.0876 2.99873 11.1009 3.06909 10.3044C3.14014 9.50049 3.29033 8.78106 3.65894 8.14517L3.66968 8.12662L3.6814 8.10904C3.97054 7.65549 4.32679 7.25201 4.75757 6.9147L4.76441 6.90982L4.77026 6.90494C5.33675 6.4762 5.97456 6.25103 6.59839 6.1315C6.18653 5.567 5.99976 4.89221 5.99976 4.13931C5.99993 3.13748 6.41008 2.30861 7.11206 1.75357C7.78541 1.22122 8.64849 0.999707 9.49976 0.999664C10.1506 0.999664 10.6993 1.28763 11.115 1.63541C11.4755 1.93719 11.776 2.32011 12.0232 2.71646C12.255 2.34161 12.5325 1.97925 12.8601 1.68619C13.2674 1.32197 13.824 0.999742 14.4998 0.999664ZM14.7302 8.52505C15.7045 9.56698 16.9996 11.002 16.9998 12.9997C16.9998 13.5519 16.552 13.9997 15.9998 13.9997C15.4476 13.9995 14.9998 13.5519 14.9998 12.9997C14.9996 11.8866 14.2948 10.988 13.2693 9.89127C13.1815 9.79743 13.0923 9.69957 12.9998 9.60123V19.9997H14.0046C15.1934 19.9997 16.0341 19.9988 16.6873 19.9362C17.3139 19.8761 17.6618 19.7656 17.905 19.6178C18.1545 19.4425 18.3666 19.2354 18.5486 18.986C18.7259 18.7272 18.8552 18.3656 18.9255 17.6891C18.9984 16.9877 18.9998 16.0718 18.9998 14.7487V13.2907C18.9998 11.9676 18.9985 11.0515 18.9255 10.3503C18.8543 9.66549 18.7236 9.30209 18.5427 9.04263C18.3964 8.83301 18.2203 8.6496 18.0222 8.49966C17.8134 8.34173 17.5325 8.22221 17.0359 8.14615C16.519 8.06704 15.8438 8.04524 14.8757 8.04068V8.0397L14.2781 8.03873C14.4208 8.19165 14.5702 8.35397 14.7302 8.52505ZM8.56421 8.00455C8.25151 7.99814 7.95075 7.99766 7.66089 8.01431C6.92924 8.05643 6.38065 8.19847 5.98706 8.49185C5.75222 8.67632 5.54981 8.90125 5.37671 9.16959C5.22731 9.43716 5.11986 9.81736 5.06128 10.4801C5.00046 11.1685 4.99976 12.0525 4.99976 13.2907V14.7487C4.99976 16.0718 5.00107 16.9877 5.07398 17.6891C5.14428 18.365 5.27283 18.7273 5.44995 18.986C5.63067 19.2338 5.84447 19.4426 6.09351 19.6178C6.33676 19.7658 6.68515 19.876 7.31226 19.9362C7.63866 19.9675 8.01199 19.9828 8.45191 19.9909L9.99487 19.9997H10.9998V8.78384C10.8325 8.88908 10.6738 8.98991 10.53 9.07974C9.51048 9.71697 8.99989 10.1689 8.99976 10.9997C8.99976 11.5519 8.55204 11.9997 7.99976 11.9997C7.44758 11.9995 6.99976 11.5519 6.99976 10.9997C6.99988 9.54496 7.76827 8.63116 8.56421 8.00455ZM14.4998 2.99966C14.4846 2.99975 14.3829 3.00767 14.1931 3.1774C14.0049 3.34584 13.8001 3.61382 13.6082 3.96255C13.3983 4.34407 13.241 4.75489 13.1384 5.12173C13.3555 5.25972 13.4998 5.50174 13.4998 5.77798V5.92349C13.7167 5.88215 13.9699 5.82829 14.2693 5.75748C15.0419 5.57473 15.4712 5.3597 15.7019 5.15005C15.8841 4.98444 15.9998 4.7735 15.9998 4.3649C15.9994 3.66238 15.3808 2.99966 14.4998 2.99966ZM9.49976 2.99966C8.97072 2.99971 8.58368 3.13908 8.3523 3.32193C8.14971 3.48211 7.99991 3.72359 7.99976 4.13931C7.99976 4.62938 8.13286 4.89202 8.32691 5.08365C8.55965 5.31329 8.98545 5.54287 9.74878 5.73892C10.041 5.81395 10.2884 5.87057 10.4998 5.9147V5.77798C10.4998 5.49031 10.6572 5.24066 10.8894 5.10611C10.7896 4.71484 10.6251 4.2823 10.4011 3.89322C10.2138 3.56801 10.0137 3.32166 9.83081 3.16861C9.64868 3.01636 9.53908 2.99966 9.49976 2.99966Z" fill="black"/>
</svg>
