<svg width="24" height="24" viewBox="0 0 24 24" fill="none" xmlns="http://www.w3.org/2000/svg">
<path d="M10.3008 2.45499C11.3244 1.75136 12.6756 1.75136 13.6992 2.45499L19.6992 6.57999C20.5132 7.13958 20.9999 8.06392 21 9.05167V14.9482C20.9999 15.9359 20.5132 16.8602 19.6992 17.4198L13.6992 21.5448C12.6755 22.2485 11.3245 22.2485 10.3008 21.5448L4.30078 17.4198C3.48683 16.8602 3.0001 15.9359 3 14.9482V9.05167C3.00013 8.06392 3.48683 7.13958 4.30078 6.57999L10.3008 2.45499ZM13.6992 14.0448C12.6755 14.7486 11.3235 14.7486 10.2998 14.0448L5 10.4003V14.9482C5.0001 15.2773 5.16235 15.5859 5.43359 15.7724L11.4336 19.8974C11.7747 20.1317 12.2253 20.1317 12.5664 19.8974L18.5664 15.7724C18.8377 15.5859 18.9999 15.2773 19 14.9482V10.4003L13.6992 14.0448ZM12.5664 4.10245C12.2253 3.86816 11.7747 3.86815 11.4336 4.10245L5.43359 8.22745C5.42285 8.23483 5.41274 8.24312 5.40234 8.25089L11.4336 12.3964C11.7748 12.6309 12.2252 12.6309 12.5664 12.3964L18.5957 8.25089C18.5857 8.24345 18.5767 8.23454 18.5664 8.22745L12.5664 4.10245Z" fill="black"/>
</svg>
