<svg width="24" height="24" viewBox="0 0 24 24" fill="none" xmlns="http://www.w3.org/2000/svg">
<path fill-rule="evenodd" clip-rule="evenodd" d="M9.39453 4C10.3628 4.00002 11.2833 4.35203 12 4.96777C12.7167 4.35203 13.6372 4.00002 14.6055 4H19C20.6569 4 22 5.34315 22 7V17C22 18.6569 20.6569 20 19 20H14.6055C13.9368 20 13.3123 20.3343 12.9414 20.8906L12.832 21.0547C12.6466 21.3329 12.3344 21.5 12 21.5C11.6656 21.5 11.3534 21.3329 11.168 21.0547L11.0586 20.8906C10.6877 20.3343 10.0632 20 9.39453 20H5C3.34315 20 2 18.6569 2 17V7C2 5.34315 3.34315 4 5 4H9.39453ZM5 6C4.44772 6 4 6.44772 4 7V17C4 17.5523 4.44772 18 5 18H9.39453C9.95577 18 10.5009 18.119 11 18.3379V6.80762C10.624 6.3012 10.0292 6.00003 9.39453 6H5ZM14.6055 6C13.9708 6.00003 13.376 6.3012 13 6.80762V18.3379C13.4991 18.119 14.0442 18 14.6055 18H19C19.5523 18 20 17.5523 20 17V7C20 6.44772 19.5523 6 19 6H14.6055Z" fill="black"/>
</svg>
