<svg width="24" height="24" viewBox="0 0 24 24" fill="none" xmlns="http://www.w3.org/2000/svg">
<path d="M13.293 1.29303C13.6835 0.902505 14.3165 0.902505 14.707 1.29303C15.0975 1.68356 15.0975 2.31658 14.707 2.70709L14.4141 3.00006H17C19.2091 3.00006 21 4.79092 21 7.00006V9.00006L21.1025 9.00494C21.6067 9.05628 22 9.48239 22 10.0001V14.0001C22 14.5523 21.5523 15.0001 21 15.0001V17.0001C21 19.2092 19.2091 21.0001 17 21.0001H15L14.9951 21.1026C14.9438 21.6067 14.5177 22.0001 14 22.0001H10C9.48234 22.0001 9.05624 21.6067 9.00488 21.1026L9 21.0001H7C4.79088 21.0001 3.00003 19.2092 3 17.0001V15.0001L2.89746 14.9952C2.39335 14.9439 2.00003 14.5177 2 14.0001V10.0001C2 9.44778 2.44772 9.00006 3 9.00006V7.00006C3 4.79092 4.79086 3.00006 7 3.00006H9.58594L9.29297 2.70709C8.90245 2.31658 8.90247 1.68356 9.29297 1.29303C9.68349 0.902505 10.3165 0.902505 10.707 1.29303L12 2.586L13.293 1.29303ZM7 5.00006C5.89543 5.00006 5 5.89549 5 7.00006V17.0001C5.00003 18.1046 5.89545 19.0001 7 19.0001H17C18.1046 19.0001 19 18.1046 19 17.0001V7.00006C19 5.89549 18.1046 5.00006 17 5.00006H15L14.9951 5.1026C14.9438 5.6067 14.5177 6.00006 14 6.00006H10C9.48234 6.00006 9.05624 5.6067 9.00488 5.1026L9 5.00006H7ZM14 15.0001C14.5523 15.0001 15 15.4478 15 16.0001C15 16.5523 14.5523 17.0001 14 17.0001H10C9.44773 17.0001 9.00003 16.5523 9 16.0001C9 15.4478 9.44772 15.0001 10 15.0001H14ZM9.5 10.0001C10.3284 10.0001 11 10.6716 11 11.5001C11 12.3285 10.3284 13.0001 9.5 13.0001C8.67159 13.0001 8.00003 12.3285 8 11.5001C8 10.6716 8.67157 10.0001 9.5 10.0001ZM14.5 10.0001C15.3284 10.0001 16 10.6716 16 11.5001C16 12.3285 15.3284 13.0001 14.5 13.0001C13.6716 13.0001 13 12.3285 13 11.5001C13 10.6716 13.6716 10.0001 14.5 10.0001Z" fill="black"/>
</svg>
