<svg width="24" height="24" viewBox="0 0 24 24" fill="none" xmlns="http://www.w3.org/2000/svg">
<path d="M18.2041 2.01074C19.2128 2.11301 20 2.96435 20 4V20C20.5523 20 21 20.4477 21 21C21 21.5523 20.5523 22 20 22H4C3.44772 22 3 21.5523 3 21C3 20.4477 3.44772 20 4 20V4C4 2.89543 4.89543 2 6 2H18L18.2041 2.01074ZM6 20H9V17C9 15.8954 9.89543 15 11 15H13C14.1046 15 15 15.8954 15 17V20H18V4H6V20ZM11 20H13V17H11V20ZM9.00977 12C9.56205 12 10.0098 12.4477 10.0098 13C10.0098 13.5523 9.56205 14 9.00977 14H9C8.44772 14 8 13.5523 8 13C8 12.4477 8.44772 12 9 12H9.00977ZM12.0098 12C12.5621 12 13.0098 12.4477 13.0098 13C13.0098 13.5523 12.5621 14 12.0098 14H12C11.4477 14 11 13.5523 11 13C11 12.4477 11.4477 12 12 12H12.0098ZM15.0098 12C15.5621 12 16.0098 12.4477 16.0098 13C16.0098 13.5523 15.5621 14 15.0098 14H15C14.4477 14 14 13.5523 14 13C14 12.4477 14.4477 12 15 12H15.0098ZM9.00977 9C9.56205 9 10.0098 9.44772 10.0098 10C10.0098 10.5523 9.56205 11 9.00977 11H9C8.44772 11 8 10.5523 8 10C8 9.44772 8.44772 9 9 9H9.00977ZM12.0098 9C12.5621 9 13.0098 9.44772 13.0098 10C13.0098 10.5523 12.5621 11 12.0098 11H12C11.4477 11 11 10.5523 11 10C11 9.44772 11.4477 9 12 9H12.0098ZM15.0098 9C15.5621 9 16.0098 9.44772 16.0098 10C16.0098 10.5523 15.5621 11 15.0098 11H15C14.4477 11 14 10.5523 14 10C14 9.44772 14.4477 9 15 9H15.0098ZM9.00977 6C9.56205 6 10.0098 6.44772 10.0098 7C10.0098 7.55228 9.56205 8 9.00977 8H9C8.44772 8 8 7.55228 8 7C8 6.44772 8.44772 6 9 6H9.00977ZM12.0098 6C12.5621 6 13.0098 6.44772 13.0098 7C13.0098 7.55228 12.5621 8 12.0098 8H12C11.4477 8 11 7.55228 11 7C11 6.44772 11.4477 6 12 6H12.0098ZM15.0098 6C15.5621 6 16.0098 6.44772 16.0098 7C16.0098 7.55228 15.5621 8 15.0098 8H15C14.4477 8 14 7.55228 14 7C14 6.44772 14.4477 6 15 6H15.0098Z" fill="black"/>
</svg>
