<svg width="24" height="24" viewBox="0 0 24 24" fill="none" xmlns="http://www.w3.org/2000/svg">
<path d="M12 5C12.5523 5 13 5.44772 13 6V8H15V7C15 6.44772 15.4477 6 16 6C16.5523 6 17 6.44772 17 7V8C19.2091 8 21 9.79086 21 12V14.2568C20.9999 15.1096 20.6104 15.8709 20 16.374V18C20 20.2091 18.2091 22 16 22H8C5.79086 22 4 20.2091 4 18V16.374C3.38964 15.8709 3.00008 15.1096 3 14.2568V12C3 9.79086 4.79086 8 7 8V7C7 6.44772 7.44772 6 8 6C8.55228 6 9 6.44772 9 7V8H11V6C11 5.44772 11.4477 5 12 5ZM15 14C14.8334 14 14.6856 14.1066 14.6328 14.2646L14.2646 15.3672C13.9397 16.3421 13.0276 17 12 17C10.9724 17 10.0603 16.3421 9.73535 15.3672L9.36719 14.2646C9.31435 14.1066 9.16664 14 9 14C8.83336 14 8.68565 14.1066 8.63281 14.2646L8.3457 15.124C7.99962 16.1623 7.07372 16.8857 6 16.9863V18C6 19.1046 6.89543 20 8 20H16C17.1046 20 18 19.1046 18 18V16.9863C16.9263 16.8857 16.0004 16.1623 15.6543 15.124L15.3672 14.2646C15.3144 14.1066 15.1666 14 15 14ZM7 10C5.89543 10 5 10.8954 5 12V14.2568C5.00014 14.6672 5.33279 14.9999 5.74316 15C6.06315 15 6.34705 14.7948 6.44824 14.4912L6.73535 13.6328C7.06031 12.6579 7.97238 12 9 12C10.0276 12 10.9397 12.6579 11.2646 13.6328L11.6328 14.7354C11.6856 14.8934 11.8334 15 12 15C12.1666 15 12.3144 14.8934 12.3672 14.7354L12.7354 13.6328C13.0603 12.6579 13.9724 12 15 12C16.0276 12 16.9397 12.6579 17.2646 13.6328L17.5518 14.4912C17.6529 14.7948 17.9368 15 18.2568 15C18.6672 14.9999 18.9999 14.6672 19 14.2568V12C19 10.8954 18.1046 10 17 10H7ZM8.5 2C9.05228 2 9 3.44772 9 4C9 4.55228 8.55228 5 8 5C7.44772 5 7 4.55228 7 4C7 3.44772 7.94772 2 8.5 2ZM16 2C16.5523 2 17 3.44772 17 4C17 4.55228 16.5523 5 16 5C15.4477 5 15 4.55228 15 4C15 3.44772 15.4477 2 16 2ZM12.5 1C13.0523 1 13 2.44772 13 3C13 3.55228 12.5523 4 12 4C11.4477 4 11 3.55228 11 3C11 2.44772 11.9477 1 12.5 1Z" fill="black"/>
</svg>
