<svg width="24" height="24" viewBox="0 0 24 24" fill="none" xmlns="http://www.w3.org/2000/svg">
<path d="M4.60834 3.47897C5.71747 1.67688 8.29376 1.55856 9.56342 3.25143L11.2587 5.51315C12.1543 6.70749 12.036 8.37846 10.9804 9.43405L10.1923 10.2212C10.9531 11.7834 12.2161 13.0461 13.7783 13.8071L14.5663 13.02C15.622 11.9643 17.2929 11.8459 18.4872 12.7417L20.749 14.437C22.4416 15.7067 22.3235 18.283 20.5214 19.3921L19.4453 20.0551C17.3319 21.3555 14.6792 21.4327 12.4902 20.2739C8.76928 18.304 5.69645 15.2311 3.7265 11.5102C2.56763 9.32122 2.64491 6.66849 3.94525 4.55515L4.60834 3.47897ZM7.96283 4.45163C7.53967 3.88742 6.68126 3.92638 6.31146 4.52682L5.64935 5.60397C4.72267 7.11018 4.66452 9.00772 5.49408 10.5747C7.27639 13.941 10.0593 16.7241 13.4257 18.5063C14.9927 19.3358 16.8902 19.2778 18.3964 18.351L19.4736 17.6889C20.0739 17.3192 20.1128 16.4608 19.5488 16.0376L17.288 14.3413C16.8899 14.0427 16.3323 14.0822 15.9804 14.4341L14.9169 15.4975C14.5009 15.9132 13.8735 16.0338 13.3329 15.8022C11.0257 14.8133 9.18714 12.9747 8.19818 10.6674C7.96649 10.1268 8.08715 9.4995 8.50287 9.08347L9.56635 8.01999C9.91816 7.66818 9.95749 7.11047 9.65912 6.71237L7.96283 4.45163Z" fill="black"/>
</svg>
