<svg width="24" height="24" viewBox="0 0 24 24" fill="none" xmlns="http://www.w3.org/2000/svg">
<path d="M2.29297 2.29302C2.68349 1.9025 3.31651 1.9025 3.70703 2.29302L5.45117 4.03716C5.63056 4.01244 5.81381 4.00005 6 4.00005H13L13.2061 4.00494C15.0743 4.09973 16.6028 5.47693 16.9326 7.27349L18.2139 6.50591C19.8802 5.50613 22 6.70623 22 8.64947V15.3506C22 16.9025 20.6481 17.9789 19.2549 17.8409L21.707 20.293C22.0975 20.6835 22.0975 21.3166 21.707 21.7071C21.3165 22.0976 20.6835 22.0976 20.293 21.7071L2.29297 3.70708C1.90245 3.31657 1.90247 2.68355 2.29297 2.29302ZM4 9.32818V16.0001C4.00003 17.1046 4.89545 18.0001 6 18.0001H12.6719L14.4131 19.7413C13.9736 19.9075 13.4978 20.0001 13 20.0001H6C3.79088 20.0001 2.00003 18.2092 2 16.0001V8.00005C2 7.78777 2.01697 7.57937 2.04883 7.37603L4 9.32818ZM20 8.64947C20 8.2609 19.5764 8.02104 19.2432 8.22076L17 9.56548V14.4336L19.2432 15.7794C19.5764 15.979 20 15.7392 20 15.3506V8.64947ZM15 13.586V8.00005C15 6.9644 14.2128 6.11306 13.2041 6.0108L13 6.00005H7.41406L15 13.586Z" fill="black"/>
</svg>
