<svg width="24" height="24" viewBox="0 0 24 24" fill="none" xmlns="http://www.w3.org/2000/svg">
<path d="M13.2061 4.00488C15.0743 4.09968 16.6028 5.47687 16.9326 7.27344L18.2139 6.50586C19.8802 5.50607 22 6.70618 22 8.64941V15.3506C22 17.2938 19.8802 18.4939 18.2139 17.4941L16.9326 16.7256C16.5912 18.5882 14.9613 20 13 20H6C3.79086 20 2 18.2091 2 16V8C2 5.79086 3.79086 4 6 4H13L13.2061 4.00488ZM6 6C4.89543 6 4 6.89543 4 8V16C4 17.1046 4.89543 18 6 18H13C14.1046 18 15 17.1046 15 16V8C15 6.96435 14.2128 6.113 13.2041 6.01074L13 6H6ZM20 8.64941C20 8.26085 19.5764 8.02099 19.2432 8.2207L17 9.56543V14.4336L19.2432 15.7793C19.5764 15.979 20 15.7391 20 15.3506V8.64941Z" fill="black"/>
</svg>
