<svg width="24" height="24" viewBox="0 0 24 24" fill="none" xmlns="http://www.w3.org/2000/svg">
<path d="M4 3C4.55228 3 5 3.44772 5 4H18C19.6569 4 21 5.34315 21 7V8C21 9.65685 19.6569 11 18 11H5V13H14C15.6569 13 17 14.3431 17 16V17C17 18.6569 15.6569 20 14 20H5C5 20.5523 4.55228 21 4 21C3.44772 21 3 20.5523 3 20V4C3 3.44772 3.44772 3 4 3ZM5 18H14C14.5523 18 15 17.5523 15 17V16C15 15.4477 14.5523 15 14 15H5V18ZM5 9H18C18.5523 9 19 8.55228 19 8V7C19 6.44772 18.5523 6 18 6H5V9Z" fill="black"/>
</svg>
