<svg width="24" height="24" viewBox="0 0 24 24" fill="none" xmlns="http://www.w3.org/2000/svg">
<path d="M20.6055 16.0527C20.8525 15.5588 21.4533 15.3585 21.9473 15.6055C22.4412 15.8525 22.6415 16.4533 22.3945 16.9473L20.0938 21.5488C19.441 22.8542 17.655 23.0438 16.7432 21.9043L15.7188 20.625L15.6592 20.542C15.384 20.1162 15.4706 19.5422 15.875 19.2188C16.2793 18.8953 16.8579 18.937 17.2129 19.2988L17.2812 19.375L18.3047 20.6553L20.6055 16.0527ZM16.5 13C17.0523 13 17.5 13.4477 17.5 14C17.5 14.5523 17.0523 15 16.5 15H9.375C7.51104 15 6 16.511 6 18.375C6 19.2725 6.72754 20 7.625 20H12.5C13.0523 20 13.5 20.4477 13.5 21C13.5 21.5523 13.0523 22 12.5 22H7.625C5.62297 22 4 20.377 4 18.375C4 15.4065 6.40647 13 9.375 13H16.5ZM12 2C14.7614 2 17 4.23858 17 7C17 9.76142 14.7614 12 12 12C9.23858 12 7 9.76142 7 7C7 4.23858 9.23858 2 12 2ZM12 4C10.3431 4 9 5.34315 9 7C9 8.65685 10.3431 10 12 10C13.6569 10 15 8.65685 15 7C15 5.34315 13.6569 4 12 4Z" fill="black"/>
</svg>
