<svg width="24" height="24" viewBox="0 0 24 24" fill="none" xmlns="http://www.w3.org/2000/svg">
<path d="M12 2C17.5228 2 22 6.47715 22 12C22 17.5228 17.5228 22 12 22C6.47715 22 2 17.5228 2 12C2 6.47715 6.47715 2 12 2ZM12 4C7.58172 4 4 7.58172 4 12C4 16.4183 7.58172 20 12 20C16.4183 20 20 16.4183 20 12C20 7.58172 16.4183 4 12 4ZM14.126 8.51367C14.3947 8.03137 15.0039 7.85756 15.4863 8.12598C15.9686 8.39469 16.1424 9.00395 15.874 9.48633L12.7324 15.125C12.0232 16.398 10.2339 16.5099 9.37207 15.335L8.19336 13.7275L9 13.1367L9.80664 12.5449L10.9854 14.1523L14.126 8.51367ZM8.4082 12.3301C8.85357 12.0035 9.48004 12.0996 9.80664 12.5449L8.19336 13.7275C7.86705 13.2823 7.96321 12.6567 8.4082 12.3301Z" fill="black"/>
</svg>
