<svg width="24" height="24" viewBox="0 0 24 24" fill="none" xmlns="http://www.w3.org/2000/svg">
<path d="M16 2C18.2091 2 20 3.79086 20 6V18C20 20.2091 18.2091 22 16 22H8C5.79086 22 4 20.2091 4 18V6C4 3.79086 5.79086 2 8 2H16ZM13 9C13 9.34658 12.8202 9.66838 12.5254 9.85059C12.2306 10.0327 11.8626 10.0495 11.5527 9.89453L10 9.11816L8.44727 9.89453C8.13735 10.0495 7.76939 10.0327 7.47461 9.85059C7.17979 9.66838 7 9.34658 7 9V4.26953C6.40267 4.61546 6 5.26007 6 6V18C6 19.1046 6.89543 20 8 20H16C17.1046 20 18 19.1046 18 18V6C18 4.89543 17.1046 4 16 4H13V9ZM9 7.38184L9.55273 7.10547C9.83426 6.9647 10.1657 6.9647 10.4473 7.10547L11 7.38184V4H9V7.38184Z" fill="black"/>
</svg>
