<svg width="24" height="24" viewBox="0 0 24 24" fill="none" xmlns="http://www.w3.org/2000/svg">
<path d="M19.293 3.29303C19.6835 2.90251 20.3165 2.90251 20.707 3.29303C21.0975 3.68356 21.0975 4.31658 20.707 4.70709L15.8203 9.59283C16.662 11.056 16.4577 12.9565 15.207 14.2071L14.6963 14.7169C14.8942 15.1962 14.9999 15.7137 15 16.2422V17.5049C14.9999 19.9875 12.9874 22 10.5049 22.0001C10.0428 22.0001 9.58268 21.9099 9.15625 21.7393C6.03198 20.4895 3.51056 17.9681 2.26074 14.8438C2.09017 14.4174 2.00001 13.9573 2 13.4952C2.00003 11.0126 4.01255 9.00009 6.49512 9.00006H7.75781C8.28598 9.00012 8.8032 9.10518 9.28223 9.3028L9.79297 8.79303C11.0433 7.54271 12.9432 7.33784 14.4062 8.17877L19.293 3.29303ZM6.49512 11.0001C5.11711 11.0001 4.00003 12.1172 4 13.4952C4.00001 13.6999 4.04011 13.9079 4.11719 14.1006C4.15182 14.1872 4.19057 14.272 4.22754 14.3575L4.29297 14.293C4.68349 13.9025 5.31651 13.9025 5.70703 14.293C6.09753 14.6836 6.09755 15.3166 5.70703 15.7071L5.24219 16.171C5.40221 16.3997 5.56849 16.6239 5.74609 16.8389L6.29297 16.293C6.68349 15.9025 7.31651 15.9025 7.70703 16.293C8.09753 16.6836 8.09755 17.3166 7.70703 17.7071L7.16016 18.253C7.37521 18.4306 7.59938 18.5968 7.82812 18.7569L8.29297 18.293C8.68349 17.9025 9.31651 17.9025 9.70703 18.293C10.0975 18.6836 10.0975 19.3166 9.70703 19.7071L9.6416 19.7715C9.72746 19.8087 9.81244 19.8481 9.89941 19.8829C10.0922 19.96 10.3001 20.0001 10.5049 20.0001C11.8829 20 12.9999 18.8829 13 17.5049V16.2422C12.9999 15.712 12.789 15.2031 12.4141 14.8282L9.17188 11.586C8.79691 11.211 8.28808 11.0002 7.75781 11.0001H6.49512ZM13.793 10.2071C13.0789 9.49305 11.9211 9.49305 11.207 10.2071L10.9141 10.5001L13.5 13.086L13.793 12.793C14.507 12.079 14.507 10.9211 13.793 10.2071Z" fill="black"/>
</svg>
