<svg width="24" height="24" viewBox="0 0 24 24" fill="none" xmlns="http://www.w3.org/2000/svg">
<path d="M10.5 3C12.406 3 14.1805 3.35449 15.5156 3.9707C16.7657 4.54773 18 5.54652 18 7V9.75391C18.6954 10.0198 19.3179 10.3577 19.8135 10.7666C20.4703 11.3087 21.0009 12.0638 21.001 13C21.001 13.0059 21 13.0117 21 13.0176V17.2002C20.9999 17.9229 20.6558 18.5291 20.2031 18.9902C19.7546 19.447 19.1547 19.8132 18.4922 20.0986C17.1636 20.6709 15.3977 21 13.5 21C11.6023 21 9.83635 20.6709 8.50781 20.0986C7.84533 19.8132 7.24538 19.447 6.79688 18.9902C6.34417 18.5291 6.00006 17.9229 6 17.2002V14.291C5.83025 14.23 5.66572 14.1667 5.50781 14.0986C4.84533 13.8132 4.24538 13.447 3.79688 12.9902C3.34417 12.5291 3.00006 11.9229 3 11.2002V7C3 5.54652 4.2343 4.54773 5.48438 3.9707C6.8195 3.35449 8.59404 3 10.5 3ZM19 15.7812C18.8404 15.8708 18.6784 15.9541 18.5156 16.0293C17.1807 16.6454 15.4065 16.9999 13.501 17C11.8209 17 10.2486 16.7248 8.99023 16.2422C8.64889 16.1112 8.31463 15.957 8 15.7812V17.2002C8.00005 17.2506 8.02001 17.3805 8.22461 17.5889C8.43389 17.802 8.7861 18.0404 9.2998 18.2617C10.3238 18.7027 11.8081 19 13.5 19C15.1919 19 16.6762 18.7027 17.7002 18.2617C18.2139 18.0404 18.5661 17.802 18.7754 17.5889C18.98 17.3805 18.9999 17.2506 19 17.2002V15.7812ZM17.8877 11.8906C17.7515 12.3148 17.5029 12.6849 17.2031 12.9902C16.7546 13.447 16.1547 13.8132 15.4922 14.0986C14.5427 14.5076 13.3697 14.7907 12.085 14.9199C12.5356 14.9699 13.0099 15 13.501 15C15.1844 14.9999 16.6605 14.6833 17.6777 14.2139C18.7675 13.7108 18.995 13.2144 19 13.0068V13H19.001C19.001 12.8744 18.9324 12.6316 18.541 12.3086C18.368 12.1659 18.1488 12.0253 17.8877 11.8906ZM16 9.78125C15.8404 9.87079 15.6784 9.95414 15.5156 10.0293C14.1805 10.6455 12.406 11 10.5 11C8.59404 11 6.8195 10.6455 5.48438 10.0293C5.32156 9.95414 5.15959 9.87079 5 9.78125V11.2002C5.00005 11.2506 5.02001 11.3805 5.22461 11.5889C5.43389 11.802 5.7861 12.0404 6.2998 12.2617C7.32379 12.7027 8.80806 13 10.5 13C12.1919 13 13.6762 12.7027 14.7002 12.2617C15.2139 12.0404 15.5661 11.802 15.7754 11.5889C15.98 11.3805 15.9999 11.2506 16 11.2002V9.78125ZM10.5 5C8.81618 5 7.34065 5.31757 6.32324 5.78711C5.22088 6.29589 5 6.79674 5 7C5 7.20326 5.22088 7.70411 6.32324 8.21289C7.34065 8.68243 8.81618 9 10.5 9C12.1838 9 13.6593 8.68243 14.6768 8.21289C15.7791 7.70411 16 7.20326 16 7C16 6.79674 15.7791 6.29589 14.6768 5.78711C13.6593 5.31757 12.1838 5 10.5 5Z" fill="black"/>
</svg>
