<svg width="24" height="24" viewBox="0 0 24 24" fill="none" xmlns="http://www.w3.org/2000/svg">
<path d="M17 3C19.2091 3 21 4.79086 21 7V17C21 17.3466 20.8202 17.6684 20.5254 17.8506C20.2306 18.0327 19.8626 18.0495 19.5527 17.8945L17 16.6182V22C17 22.3466 16.8202 22.6684 16.5254 22.8506C16.2306 23.0327 15.8626 23.0495 15.5527 22.8945L11.9746 21.1055C11.836 21.0362 11.6833 21.0001 11.5283 21H7C4.79086 21 3 19.2091 3 17V12C3 9.79086 4.79086 8 7 8V7C7 4.79086 8.79086 3 11 3H17ZM7 10C5.89543 10 5 10.8954 5 12V17C5 18.1046 5.89543 19 7 19H11.5283C11.9937 19.0001 12.4528 19.1083 12.8691 19.3164L15 20.3818V12C15 10.8954 14.1046 10 13 10H7ZM11 5C9.89543 5 9 5.89543 9 7V8H13C15.2091 8 17 9.79086 17 12V14.3818L19 15.3818V7C19 5.89543 18.1046 5 17 5H11Z" fill="black"/>
</svg>
