<svg width="24" height="24" viewBox="0 0 24 24" fill="none" xmlns="http://www.w3.org/2000/svg">
<path d="M16 3C18.7614 3 21 5.23858 21 8V22C21 22.3466 20.8202 22.6684 20.5254 22.8506C20.2306 23.0327 19.8626 23.0495 19.5527 22.8945L15.9746 21.1055C15.836 21.0362 15.6833 21.0001 15.5283 21H8C5.23858 21 3 18.7614 3 16V8C3 5.23858 5.23858 3 8 3H16ZM8 5C6.34315 5 5 6.34315 5 8V16C5 17.6569 6.34315 19 8 19H15.5283C15.9937 19.0001 16.4528 19.1083 16.8691 19.3164L19 20.3818V8C19 6.34315 17.6569 5 16 5H8Z" fill="black"/>
</svg>
