<svg width="24" height="24" viewBox="0 0 24 24" fill="none" xmlns="http://www.w3.org/2000/svg">
<path d="M2.34027 9.41016C2.4833 8.87671 3.03339 8.5601 3.56683 8.70312C4.09985 8.84644 4.41585 9.3955 4.27289 9.92871C3.99432 10.9679 3.92557 12.0617 4.08148 13.1436C4.1928 13.0561 4.31176 12.9752 4.43793 12.9023C5.87277 12.0741 7.70817 12.5652 8.53656 14C9.36471 15.4348 8.87252 17.2692 7.43793 18.0977C7.31178 18.1705 7.18161 18.2315 7.05023 18.2842C7.90942 18.9606 8.89045 19.4501 9.93011 19.7285C10.4635 19.8713 10.7808 20.4187 10.6381 20.9521C10.4952 21.4856 9.94601 21.803 9.41254 21.6602C6.94166 20.9983 4.72004 19.3915 3.33929 17C1.95856 14.6084 1.67783 11.881 2.34027 9.41016ZM20.434 8.70312C20.9673 8.56033 21.5165 8.87699 21.6596 9.41016C22.322 11.8809 22.0412 14.6085 20.6606 17C19.2798 19.3915 17.0582 20.9984 14.5873 21.6602C14.054 21.803 13.5048 21.4854 13.3618 20.9521C13.2193 20.4188 13.5365 19.8703 14.0698 19.7275C15.1094 19.4491 16.0905 18.9605 16.9496 18.2842C16.8185 18.2316 16.6889 18.1704 16.5629 18.0977C15.1281 17.2692 14.6359 15.4349 15.4643 14C16.2928 12.5652 18.1281 12.0739 19.5629 12.9023C19.6885 12.9749 19.8066 13.0556 19.9174 13.1426C20.0733 12.0608 20.0065 10.9668 19.728 9.92773C19.5852 9.39448 19.9008 8.84624 20.434 8.70312ZM6.80414 15C6.52804 14.5218 5.91619 14.3578 5.43793 14.6338C4.95973 14.9099 4.79572 15.5217 5.07172 16C5.34785 16.4781 5.95971 16.6422 6.43793 16.3662C6.91602 16.09 7.08014 15.4782 6.80414 15ZM18.5629 14.6338C18.0847 14.3577 17.4729 14.5219 17.1967 15C16.9206 15.4783 17.0846 16.0901 17.5629 16.3662C18.0411 16.6418 18.6521 16.478 18.9282 16C19.2041 15.5219 19.0408 14.91 18.5629 14.6338ZM12.0004 2L12.5151 2.0127C15.072 2.14251 17.3772 3.23365 19.0727 4.92969C19.4631 5.32026 19.4622 5.95428 19.0717 6.34473C18.6811 6.73472 18.048 6.73411 17.6577 6.34375C16.8968 5.58278 15.9832 4.97719 14.9682 4.57129C14.9883 4.71138 15.0004 4.85437 15.0004 5C15.0004 6.65672 13.6571 7.99979 12.0004 8C10.3436 8 9.00043 6.65685 9.00043 5C9.00043 4.8541 9.01057 4.71064 9.0307 4.57031C8.01576 4.97618 7.10289 5.58288 6.34222 6.34375C5.95185 6.73424 5.31877 6.73491 4.92816 6.34473C4.53757 5.95426 4.5377 5.32027 4.92816 4.92969C6.73677 3.12068 9.23888 2 12.0004 2ZM12.0004 4C11.4481 4 11.0004 4.44772 11.0004 5C11.0004 5.55228 11.4481 6 12.0004 6C12.5525 5.99979 13.0004 5.55215 13.0004 5C13.0004 4.44785 12.5525 4.00021 12.0004 4Z" fill="black"/>
</svg>
