<svg width="24" height="24" viewBox="0 0 24 24" fill="none" xmlns="http://www.w3.org/2000/svg">
<path d="M18 4C20.2091 4 22 5.79086 22 8V16C22 18.2091 20.2091 20 18 20H6C3.79086 20 2 18.2091 2 16V8C2 5.79086 3.79086 4 6 4H18ZM6 6C4.89543 6 4 6.89543 4 8V16C4 17.1046 4.89543 18 6 18H7C7 17.4477 7.44772 17 8 17C8.55228 17 9 17.4477 9 18H15C15 17.4477 15.4477 17 16 17C16.5523 17 17 17.4477 17 18H18C19.1046 18 20 17.1046 20 16V8C20 6.89543 19.1046 6 18 6H6ZM8 9C8.55228 9 9 9.44772 9 10C9 10.5523 8.55228 11 8 11C7.44772 11 7 10.5523 7 10C7 9.44772 7.44772 9 8 9ZM16 9C16.5523 9 17 9.44772 17 10C17 10.5523 16.5523 11 16 11H11C10.4477 11 10 10.5523 10 10C10 9.44772 10.4477 9 11 9H16Z" fill="black"/>
</svg>
