<svg width="24" height="24" viewBox="0 0 24 24" fill="none" xmlns="http://www.w3.org/2000/svg">
<path d="M12 2C17.5228 2 22 6.47715 22 12C22 17.5228 17.5228 22 12 22C6.47715 22 2 17.5228 2 12C2 6.47715 6.47715 2 12 2ZM12 4C7.58172 4 4 7.58172 4 12C4 16.4183 7.58172 20 12 20C16.4183 20 20 16.4183 20 12C20 7.58172 16.4183 4 12 4ZM12 7C13.4002 7 14.6667 7.57684 15.5732 8.50293L15.75 8.69238L15.8135 8.77246C16.1087 9.18427 16.05 9.76083 15.6621 10.1035C15.248 10.469 14.6155 10.4297 14.25 10.0156C13.6988 9.39132 12.8957 9 12 9C10.3431 9 9 10.3431 9 12C9 13.6569 10.3431 15 12 15C12.8957 15 13.6988 14.6087 14.25 13.9844L14.3223 13.9111C14.6943 13.5671 15.274 13.5539 15.6621 13.8965C16.0758 14.262 16.1153 14.8937 15.75 15.3076L15.5732 15.4971C14.6667 16.4232 13.4002 17 12 17C9.23858 17 7 14.7614 7 12C7 9.23858 9.23858 7 12 7Z" fill="black"/>
</svg>
