<svg width="24" height="24" viewBox="0 0 24 24" fill="none" xmlns="http://www.w3.org/2000/svg">
<path d="M15.0002 16.9996C15.5523 16.9998 16 17.4476 16.0002 17.9996V20.9996C16.0002 21.5519 15.5524 21.9995 15.0002 21.9996C14.4479 21.9996 14.0002 21.5519 14.0002 20.9996V17.9996C14.0004 17.4475 14.448 16.9996 15.0002 16.9996ZM18.0002 13.9996C18.5523 13.9998 19 14.4476 19.0002 14.9996V20.9996C19.0002 21.5519 18.5524 21.9995 18.0002 21.9996C17.4479 21.9996 17.0002 21.5519 17.0002 20.9996V14.9996C17.0004 14.4475 17.448 13.9996 18.0002 13.9996ZM21.0002 15.9996C21.5523 15.9998 22 16.4476 22.0002 16.9996V20.9996C22.0002 21.5519 21.5524 21.9995 21.0002 21.9996C20.4479 21.9996 20.0002 21.5519 20.0002 20.9996V16.9996C20.0004 16.4475 20.448 15.9996 21.0002 15.9996ZM10.2219 3.26625C10.9666 1.82167 13.0326 1.82182 13.7775 3.26625L15.8713 7.32875L20.3293 8.11879C21.8985 8.39679 22.5277 10.3085 21.4308 11.4645L20.7248 12.2086C20.3445 12.6088 19.7121 12.6249 19.3117 12.2448C18.9115 11.8646 18.8946 11.2322 19.2746 10.8317L19.9807 10.0875L15.5226 9.29848C14.9081 9.18959 14.3798 8.79952 14.0939 8.24477L12.0002 4.18227L9.90643 8.24477C9.62057 8.79948 9.09217 9.18955 8.47772 9.29848L4.01971 10.0875L7.20038 13.4391C7.61972 13.881 7.81513 14.4901 7.73065 15.0934L7.08417 19.695L11.05 17.6979C11.543 17.4498 12.1442 17.6486 12.3928 18.1413C12.6411 18.6345 12.4426 19.2366 11.9494 19.485L7.98358 21.4811C6.54225 22.2067 4.87926 21.0146 5.1037 19.4166L5.75018 14.8161L2.56854 11.4645C1.4721 10.3085 2.10199 8.39675 3.67108 8.11879L8.12811 7.32875L10.2219 3.26625Z" fill="black"/>
</svg>
