<svg width="24" height="24" viewBox="0 0 24 24" fill="none" xmlns="http://www.w3.org/2000/svg">
<path d="M7.89697 2.20155C8.15399 2.00762 8.49313 1.94835 8.80518 2.04823C9.16165 2.16267 9.42429 2.467 9.48584 2.83632L9.84619 5.00038H11.9995C12.5518 5.00038 12.9995 5.4481 12.9995 6.00038C12.9993 6.55249 12.5517 7.00038 11.9995 7.00038H8.99951C8.51098 7.00016 8.09365 6.64633 8.01318 6.16444L7.83252 5.08046L4.26709 8.64687C4.07242 8.84212 4.07216 9.1588 4.26709 9.3539L7.83252 12.9193L8.01318 11.8363L8.03174 11.7475C8.14541 11.3113 8.54129 11.0006 8.99951 11.0004H14.1528L14.5132 8.83632L14.5454 8.70155C14.6412 8.39557 14.8798 8.15033 15.1899 8.04921C15.5447 7.93389 15.9347 8.0259 16.2007 8.28749L21.2134 13.2182C22.2093 14.1977 22.2093 15.8031 21.2134 16.7826L16.2007 21.7133C15.9347 21.9746 15.5446 22.0668 15.1899 21.9516C14.8356 21.8361 14.5746 21.5321 14.5132 21.1644L14.1528 19.0004H11.9995C11.4476 19.0001 10.9997 18.5523 10.9995 18.0004C10.9995 17.4483 11.4475 17.0006 11.9995 17.0004H14.9995C15.4884 17.0004 15.9055 17.3541 15.9858 17.8363L16.1694 18.9379L19.811 15.3568C20.0102 15.1609 20.0102 14.8398 19.811 14.6439L16.1694 11.0619L15.9858 12.1644C15.9053 12.6464 15.4882 13.0004 14.9995 13.0004H9.84619L9.48584 15.1644C9.42415 15.5336 9.1615 15.8381 8.80518 15.9525C8.4486 16.0666 8.05722 15.9722 7.79248 15.7074L2.85303 10.768C1.87705 9.79182 1.87731 8.20911 2.85303 7.2328L7.79248 2.29335L7.89697 2.20155Z" fill="black"/>
</svg>
