<svg width="24" height="24" viewBox="0 0 24 24" fill="none" xmlns="http://www.w3.org/2000/svg">
<path d="M12 2C13.3807 2 14.5 3.11929 14.5 4.5C14.5 5.00666 14.3479 5.47723 14.0889 5.87109L16.3428 9.62793L17.0947 9.17578C17.0344 8.96065 17 8.73439 17 8.5C17 7.11929 18.1193 6 19.5 6C20.8807 6 22 7.11929 22 8.5C22 9.55002 21.3519 10.4471 20.4346 10.8174L20 16.0361V18C20 19.6569 18.6569 21 17 21H7C5.34315 21 4 19.6569 4 18V16.0361L3.56445 10.8174C2.64753 10.4469 2 9.5497 2 8.5C2 7.11929 3.11929 6 4.5 6C5.88071 6 7 7.11929 7 8.5C7 8.73449 6.96466 8.96058 6.9043 9.17578L7.65723 9.62793L9.91016 5.87109C9.65129 5.47732 9.5 5.00647 9.5 4.5C9.5 3.11929 10.6193 2 12 2ZM6 18C6 18.5523 6.44772 19 7 19H17C17.5523 19 18 18.5523 18 18V17H6V18ZM12.4111 6.96289C12.2772 6.98508 12.1402 7 12 7C11.8594 7 11.7221 6.98519 11.5879 6.96289L9.37207 10.6572C8.80374 11.6043 7.57505 11.911 6.62793 11.3428L5.61523 10.7344C5.59881 10.7426 5.58205 10.75 5.56543 10.7578L5.91992 15H18.0801L18.4326 10.7578C18.416 10.7499 18.3992 10.7426 18.3828 10.7344L17.3721 11.3428C16.425 11.911 15.1963 11.6043 14.6279 10.6572L12.4111 6.96289ZM4.5 8C4.22386 8 4 8.22386 4 8.5C4 8.77614 4.22386 9 4.5 9C4.77614 9 5 8.77614 5 8.5C5 8.22386 4.77614 8 4.5 8ZM19.5 8C19.2239 8 19 8.22386 19 8.5C19 8.77614 19.2239 9 19.5 9C19.7761 9 20 8.77614 20 8.5C20 8.22386 19.7761 8 19.5 8ZM12 4C11.7239 4 11.5 4.22386 11.5 4.5C11.5 4.77614 11.7239 5 12 5C12.2761 5 12.5 4.77614 12.5 4.5C12.5 4.22386 12.2761 4 12 4Z" fill="black"/>
</svg>
