<svg width="24" height="24" viewBox="0 0 24 24" fill="none" xmlns="http://www.w3.org/2000/svg">
<path d="M10.0391 2.45566C11.2566 1.77086 12.7434 1.77086 13.9609 2.45566L18.9609 5.26816C20.2203 5.97657 20.9999 7.30957 21 8.75449V15.2447C21 16.6897 20.2203 18.0225 18.9609 18.731L13.9609 21.5435C12.7433 22.2285 11.2567 22.2285 10.0391 21.5435L5.03906 18.731C3.77969 18.0225 3 16.6897 3 15.2447V8.75449C3.00015 7.30957 3.7797 5.97657 5.03906 5.26816L10.0391 2.45566ZM12.9805 4.19882C12.3717 3.85649 11.6283 3.85649 11.0195 4.19882L6.01953 7.01132C5.38995 7.36551 5.00015 8.03213 5 8.75449V15.2447C5 15.9672 5.38994 16.6336 6.01953 16.9879L11.0195 19.8004C11.6284 20.1428 12.3716 20.1429 12.9805 19.8004L17.9805 16.9879C18.6101 16.6336 19 15.9672 19 15.2447V8.75449C18.9999 8.03213 18.61 7.36551 17.9805 7.01132L12.9805 4.19882ZM15.5 7.9996C16.0521 7.9996 16.4998 8.4475 16.5 8.9996C16.5 9.55189 16.0523 9.9996 15.5 9.9996H13V15.9996C13 16.5519 12.5523 16.9996 12 16.9996C11.4477 16.9996 11 16.5519 11 15.9996V9.9996H8.5C7.94772 9.9996 7.5 9.55189 7.5 8.9996C7.50022 8.4475 7.94785 7.9996 8.5 7.9996H15.5Z" fill="black"/>
</svg>
