<svg width="24" height="24" viewBox="0 0 24 24" fill="none" xmlns="http://www.w3.org/2000/svg">
<path d="M9.2041 15.0107C10.2128 15.113 11 15.9643 11 17V19C11 20.1046 10.1046 21 9 21H5C3.89543 21 3 20.1046 3 19V17C3 15.8954 3.89543 15 5 15H9L9.2041 15.0107ZM19.2041 11.0107C20.2128 11.113 21 11.9643 21 13V19C21 20.1046 20.1046 21 19 21H15C13.8954 21 13 20.1046 13 19V13C13 11.8954 13.8954 11 15 11H19L19.2041 11.0107ZM5 19H9V17H5V19ZM15 19H19V13H15V19ZM9.2041 3.01074C10.2128 3.113 11 3.96435 11 5V11C11 12.1046 10.1046 13 9 13H5C3.89543 13 3 12.1046 3 11V5C3 3.89543 3.89543 3 5 3H9L9.2041 3.01074ZM5 11H9V5H5V11ZM19.2041 3.01074C20.2128 3.113 21 3.96435 21 5V7C21 8.10457 20.1046 9 19 9H15C13.8954 9 13 8.10457 13 7V5C13 3.89543 13.8954 3 15 3H19L19.2041 3.01074ZM15 7H19V5H15V7Z" fill="black"/>
</svg>
