<svg width="24" height="24" viewBox="0 0 24 24" fill="none" xmlns="http://www.w3.org/2000/svg">
<path d="M16 2C16.5523 2 17 2.44772 17 3C19.2091 3 21 4.79086 21 7V17C21 19.2091 19.2091 21 17 21H7C4.79086 21 3 19.2091 3 17V7C3 4.79086 4.79086 3 7 3C7 2.44772 7.44772 2 8 2C8.55228 2 9 2.44772 9 3H15C15 2.44772 15.4477 2 16 2ZM5 17C5 18.1046 5.89543 19 7 19H17C18.1046 19 19 18.1046 19 17V10H5V17ZM13.293 11.793C13.6835 11.4024 14.3165 11.4024 14.707 11.793C15.0976 12.1835 15.0976 12.8165 14.707 13.207L13.4141 14.5L14.707 15.793L14.7754 15.8691C15.0957 16.2619 15.0731 16.8409 14.707 17.207C14.3409 17.5731 13.7619 17.5957 13.3691 17.2754L13.293 17.207L12 15.9141L10.707 17.207C10.3165 17.5976 9.68349 17.5976 9.29297 17.207C8.90244 16.8165 8.90244 16.1835 9.29297 15.793L10.5859 14.5L9.29297 13.207C8.90244 12.8165 8.90244 12.1835 9.29297 11.793C9.68349 11.4024 10.3165 11.4024 10.707 11.793L12 13.0859L13.293 11.793ZM7 5C5.89543 5 5 5.89543 5 7V8H19V7C19 5.89543 18.1046 5 17 5H7Z" fill="black"/>
</svg>
