<svg width="24" height="24" viewBox="0 0 24 24" fill="none" xmlns="http://www.w3.org/2000/svg">
<path d="M13 2C15.2091 2 17 3.79086 17 6V7H20C20.5523 7 21 7.44772 21 8C21 8.55228 20.5523 9 20 9H19.9258L19.21 18.3066C19.0497 20.3906 17.3118 22 15.2217 22H8.77832C6.68817 22 4.95034 20.3906 4.79004 18.3066L4.07422 9H4C3.44772 9 3 8.55228 3 8C3 7.44772 3.44772 7 4 7H7V6C7 3.79086 8.79086 2 11 2H13ZM6.78418 18.1533C6.86433 19.1953 7.73325 20 8.77832 20H15.2217C16.2668 20 17.1357 19.1953 17.2158 18.1533L17.9199 9H6.08008L6.78418 18.1533ZM11 4C9.89543 4 9 4.89543 9 6V7H15V6C15 4.89543 14.1046 4 13 4H11Z" fill="black"/>
</svg>
