<svg width="24" height="24" viewBox="0 0 24 24" fill="none" xmlns="http://www.w3.org/2000/svg">
<path d="M10 18C10.5523 18 11 18.4477 11 19C11 19.5523 10.5523 20 10 20H6C5.44772 20 5 19.5523 5 19C5 18.4477 5.44772 18 6 18H10ZM14 13C14.5523 13 15 13.4477 15 14C15 14.5523 14.5523 15 14 15H6C5.44772 15 5 14.5523 5 14C5 13.4477 5.44772 13 6 13H14ZM18 4C19.6569 4 21 5.34315 21 7C21 8.65685 19.6569 10 18 10H6C4.34315 10 3 8.65685 3 7C3 5.34315 4.34315 4 6 4H18ZM6 6C5.44772 6 5 6.44772 5 7C5 7.55228 5.44772 8 6 8H18C18.5523 8 19 7.55228 19 7C19 6.44772 18.5523 6 18 6H6Z" fill="black"/>
</svg>
