<svg width="24" height="24" viewBox="0 0 24 24" fill="none" xmlns="http://www.w3.org/2000/svg">
<path d="M10.2931 4.29279C12.8928 1.69329 17.1075 1.69319 19.7072 4.29279C22.3068 6.8924 22.3067 11.1072 19.7072 13.7068L15.2931 18.1209C14.7306 18.6834 13.9675 18.9997 13.172 18.9998H8.00012C7.53723 18.9998 7.10058 18.8911 6.70911 18.7039L4.70715 20.7068C4.31663 21.0974 3.68362 21.0974 3.29309 20.7068C2.90258 20.3163 2.90257 19.6833 3.29309 19.2928L5.29504 17.2899C5.10818 16.8987 5.00012 16.4622 5.00012 15.9998V10.8279C5.00025 10.0325 5.31653 9.26934 5.87903 8.70685L10.2931 4.29279ZM18.2931 5.70685C16.4745 3.8883 13.5258 3.8884 11.7072 5.70685L7.29309 10.1209C7.10567 10.3083 7.00025 10.5629 7.00012 10.8279V15.5858L14.2931 8.29279C14.6836 7.90243 15.3167 7.90233 15.7072 8.29279C16.0976 8.68326 16.0975 9.31631 15.7072 9.70685L14.4142 10.9998H15.0001L15.1027 11.0047C15.6067 11.0561 16 11.4823 16.0001 11.9998C16.0001 12.5174 15.6067 12.9435 15.1027 12.9949L15.0001 12.9998H12.4142L8.41418 16.9998H13.172C13.4371 16.9997 13.6916 16.8943 13.879 16.7068L18.2931 12.2928C20.1115 10.4742 20.1117 7.52541 18.2931 5.70685Z" fill="black"/>
</svg>
