<svg width="24" height="24" viewBox="0 0 24 24" fill="none" xmlns="http://www.w3.org/2000/svg">
<path d="M17 3C19.2091 3 21 4.79086 21 7V14C21 16.2091 19.2091 18 17 18H15V20H16C16.5523 20 17 20.4477 17 21C17 21.5523 16.5523 22 16 22H8C7.44772 22 7 21.5523 7 21C7 20.4477 7.44772 20 8 20H9V18H7C4.79086 18 3 16.2091 3 14V7C3 4.79086 4.79086 3 7 3H17ZM11 18V20H13V18H11ZM7 5C5.89543 5 5 5.89543 5 7V14C5 15.1046 5.89543 16 7 16H17C18.1046 16 19 15.1046 19 14V7C19 5.89543 18.1046 5 17 5H7Z" fill="black"/>
</svg>
