<svg width="24" height="24" viewBox="0 0 24 24" fill="none" xmlns="http://www.w3.org/2000/svg">
<path d="M12 2C17.5228 2 22 6.47715 22 12C22 17.5228 17.5228 22 12 22C6.47715 22 2 17.5228 2 12C2 6.47715 6.47715 2 12 2ZM12.9961 4.06348C12.9633 4.58613 12.5309 5 12 5C11.4691 5 11.0357 4.58616 11.0029 4.06348C7.38205 4.51375 4.51375 7.38205 4.06348 11.0029C4.58616 11.0357 5 11.4691 5 12C5 12.5309 4.58613 12.9633 4.06348 12.9961C4.51336 16.6174 7.38178 19.4852 11.0029 19.9355C11.0362 19.4133 11.4694 19 12 19C12.5306 19 12.9628 19.4134 12.9961 19.9355C16.6177 19.4856 19.4856 16.6177 19.9355 12.9961C19.4134 12.9628 19 12.5306 19 12C19 11.4694 19.4133 11.0362 19.9355 11.0029C19.4852 7.38178 16.6174 4.51336 12.9961 4.06348ZM14.2578 8.53027C14.5985 8.44518 14.9587 8.54464 15.207 8.79297C15.4554 9.04129 15.5548 9.40148 15.4697 9.74219L14.6152 13.1602C14.4361 13.8767 13.8767 14.4361 13.1602 14.6152L9.74219 15.4697C9.40148 15.5548 9.04129 15.4554 8.79297 15.207C8.54464 14.9587 8.44518 14.5985 8.53027 14.2578L9.38477 10.8398C9.56391 10.1233 10.1233 9.56391 10.8398 9.38477L14.2578 8.53027ZM11.3242 11.3242L10.873 13.126L12.6758 12.6758L13.126 10.873L11.3242 11.3242Z" fill="black"/>
</svg>
