<svg width="24" height="24" viewBox="0 0 24 24" fill="none" xmlns="http://www.w3.org/2000/svg">
<path d="M11.2706 2.28854C11.7239 2.0361 12.2764 2.03609 12.7296 2.28854L12.8253 2.34616L14.3214 3.33249L16.1124 3.22702C16.7107 3.19186 17.2724 3.51659 17.5411 4.05222L18.3448 5.65475L19.9484 6.45944C20.4839 6.72823 20.8087 7.28998 20.7736 7.88815L20.6671 9.67819L21.6544 11.1753C21.9838 11.6758 21.984 12.3252 21.6544 12.8257L20.6671 14.3217L20.7736 16.1128C20.8086 16.7109 20.4839 17.2728 19.9484 17.5415L18.3448 18.3452L17.5411 19.9487C17.2723 20.4841 16.7105 20.809 16.1124 20.7739L14.3214 20.6674L12.8253 21.6548C12.3248 21.9842 11.6754 21.9842 11.1749 21.6548L9.67786 20.6674L7.88782 20.7739C7.2897 20.8091 6.72792 20.4841 6.45911 19.9487L5.65442 18.3452L4.05188 17.5415C3.51637 17.2728 3.19169 16.7109 3.22668 16.1128L3.33215 14.3217L2.34583 12.8257C2.01624 12.3252 2.01636 11.6758 2.34583 11.1753L3.33215 9.67819L3.22668 7.88815C3.1915 7.28994 3.51631 6.72821 4.05188 6.45944L5.65442 5.65475L6.45911 4.05222L6.51282 3.95456C6.77906 3.50948 7.25696 3.23321 7.77551 3.22507L7.88782 3.22702L9.67786 3.33249L11.1749 2.34616L11.2706 2.28854ZM10.6388 5.09421C10.3688 5.27191 10.0483 5.35828 9.72571 5.33932L8.09778 5.24265L7.36829 6.69968C7.22333 6.98853 6.98824 7.22374 6.69934 7.36862L5.24231 8.09811L5.33899 9.72604C5.35786 10.0486 5.27158 10.3692 5.09387 10.6391L4.19739 12.0005L5.09387 13.3618C5.2715 13.6317 5.35796 13.9523 5.33899 14.2749L5.24231 15.9018L6.69934 16.6323C6.95205 16.7591 7.16382 16.9545 7.30969 17.1948L7.36829 17.3012L8.09778 18.7573L9.72571 18.6616C10.0484 18.6426 10.3688 18.7289 10.6388 18.9067L12.0001 19.8022L13.3615 18.9067L13.465 18.8442C13.6763 18.7283 13.9125 18.6649 14.1534 18.6596L14.2745 18.6616L15.9015 18.7573L16.632 17.3012L16.6906 17.1948C16.8364 16.9545 17.0481 16.7591 17.3009 16.6323L18.757 15.9018L18.6613 14.2749C18.6423 13.9523 18.7287 13.6317 18.9064 13.3618L19.8019 12.0005L18.9064 10.6391C18.7287 10.3692 18.6424 10.0486 18.6613 9.72604L18.757 8.09811L17.3009 7.36862C17.012 7.22375 16.7769 6.98851 16.632 6.69968L15.9015 5.24265L14.2745 5.33932C13.9519 5.3583 13.6314 5.27188 13.3615 5.09421L12.0001 4.19772L10.6388 5.09421ZM14.0001 13.0005C14.5524 13.0005 15.0001 13.4482 15.0001 14.0005C14.9999 14.5525 14.5522 15.0004 14.0001 15.0005C13.448 15.0005 13.0004 14.5525 13.0001 14.0005C13.0001 13.4482 13.4478 13.0005 14.0001 13.0005ZM13.2931 9.29343C13.6836 8.9029 14.3166 8.9029 14.7072 9.29343C15.0974 9.68397 15.0976 10.3171 14.7072 10.7075L10.7072 14.7075C10.3167 15.0977 9.68357 15.0977 9.29309 14.7075C8.90263 14.317 8.90276 13.684 9.29309 13.2934L13.2931 9.29343ZM10.0001 9.00046C10.5524 9.0005 11.0001 9.4482 11.0001 10.0005C10.9999 10.5525 10.5522 11.0004 10.0001 11.0005C9.44799 11.0005 9.00037 10.5525 9.00012 10.0005C9.00012 9.44817 9.44784 9.00046 10.0001 9.00046Z" fill="black"/>
</svg>
