<svg width="24" height="24" viewBox="0 0 24 24" fill="none" xmlns="http://www.w3.org/2000/svg">
<path d="M11.6052 9.05261C11.8522 8.55871 12.4531 8.35854 12.947 8.60535C13.441 8.85234 13.6413 9.45317 13.3943 9.94714L11.0935 14.5487C10.4408 15.8541 8.65476 16.0437 7.74292 14.9042L6.71851 13.6249L6.65894 13.5419C6.38392 13.1161 6.47051 12.5421 6.87476 12.2186C7.27901 11.8952 7.85764 11.9371 8.21265 12.2987L8.28101 12.3749L9.30444 13.6552L11.6052 9.05261ZM15.6052 9.05261C15.8522 8.55884 16.4532 8.3587 16.947 8.60535C17.4408 8.85238 17.6412 9.45324 17.3943 9.94714L15.0935 14.5487C14.4552 15.8252 12.7339 16.0344 11.8054 14.9774C11.9158 14.8513 12.0135 14.7087 12.0935 14.5487L12.8337 13.0663L13.3044 13.6552L15.6052 9.05261Z" fill="black"/>
</svg>
