<svg width="24" height="24" viewBox="0 0 24 24" fill="none" xmlns="http://www.w3.org/2000/svg">
<path d="M16.3945 3C17.7319 3.00003 18.9808 3.66848 19.7227 4.78125L20.3281 5.68945C20.7661 6.34649 21 7.11855 21 7.9082V17C21 19.2091 19.2091 21 17 21H7C4.79086 21 3 19.2091 3 17V7.9082C3.00002 7.11855 3.23385 6.34649 3.67188 5.68945L4.27734 4.78125C5.01919 3.66848 6.26809 3.00003 7.60547 3H16.3945ZM5 8V17C5 18.1046 5.89543 19 7 19H17C18.1046 19 19 18.1046 19 17V8H5ZM12 10C12.5523 10 13 10.4477 13 11V13.5859L13.293 13.293C13.6835 12.9024 14.3165 12.9024 14.707 13.293C15.0976 13.6835 15.0976 14.3165 14.707 14.707L12.707 16.707C12.3165 17.0976 11.6835 17.0976 11.293 16.707L9.29297 14.707C8.90244 14.3165 8.90244 13.6835 9.29297 13.293C9.65908 12.9269 10.2381 12.9043 10.6309 13.2246L10.707 13.293L11 13.5859V11C11 10.4477 11.4477 10 12 10ZM7.60547 5C6.93679 5.00003 6.31232 5.33425 5.94141 5.89062L5.86816 6H18.1318L18.0586 5.89062C17.6877 5.33425 17.0632 5.00003 16.3945 5H7.60547Z" fill="black"/>
</svg>
