<svg width="24" height="24" viewBox="0 0 24 24" fill="none" xmlns="http://www.w3.org/2000/svg">
<path d="M19.293 17.293C19.6835 16.9025 20.3165 16.9025 20.707 17.293C21.0975 17.6835 21.0975 18.3165 20.707 18.707L19.293 20.1211C18.7304 20.6836 17.9674 20.9999 17.1719 21H6.82812C6.0326 20.9999 5.26957 20.6836 4.70703 20.1211L3.29297 18.707C2.90244 18.3165 2.90244 17.6835 3.29297 17.293C3.6835 16.9025 4.31652 16.9025 4.70703 17.293L6.12109 18.707C6.30856 18.8945 6.56303 18.9999 6.82812 19H17.1719C17.437 18.9999 17.6915 18.8945 17.8789 18.707L19.293 17.293ZM12 3C12.5523 3.00003 13 3.44773 13 4V13.0859L14.293 11.793C14.6835 11.4025 15.3165 11.4025 15.707 11.793C16.0975 12.1835 16.0975 12.8165 15.707 13.207L13.4141 15.5C12.633 16.2809 11.367 16.2809 10.5859 15.5L8.29297 13.207L8.22461 13.1309C7.90426 12.7381 7.92685 12.1591 8.29297 11.793C8.65909 11.4269 9.2381 11.4043 9.63086 11.7246L9.70703 11.793L11 13.0859V4C11 3.44772 11.4477 3 12 3Z" fill="black"/>
</svg>
