<svg width="24" height="24" viewBox="0 0 24 24" fill="none" xmlns="http://www.w3.org/2000/svg">
<path d="M14.1964 3.39001C14.8149 2.77146 15.7129 2.52257 16.5616 2.73474C18.8778 3.31392 20.6866 5.12264 21.2657 7.43884C21.4777 8.28742 21.2289 9.18557 20.6104 9.80408L12.3604 18.0541C12.1586 18.2559 11.9157 18.4128 11.6485 18.5131L5.91119 20.6644C4.30354 21.2672 2.7334 19.6969 3.336 18.0892L5.48737 12.3519C5.58759 12.0847 5.74455 11.8419 5.94635 11.64L14.1964 3.39001ZM5.20905 18.7914L9.13678 17.3177L8.05377 16.7094C7.73462 16.5298 7.47065 16.2658 7.29108 15.9467L6.6817 14.8627L5.20905 18.7914ZM16.0762 4.67517C15.9091 4.6334 15.7322 4.68229 15.6104 4.80408L7.74225 12.6713L9.03424 14.9662L11.3282 16.2572L19.1964 8.39001C19.318 8.26827 19.3669 8.09121 19.3253 7.92419C18.9253 6.32439 17.676 5.07517 16.0762 4.67517Z" fill="black"/>
</svg>
