<svg width="24" height="24" viewBox="0 0 24 24" fill="none" xmlns="http://www.w3.org/2000/svg">
<path d="M12 2C17.5228 2 22 6.47715 22 12C22 17.5228 17.5228 22 12 22C6.47715 22 2 17.5228 2 12C2 6.47715 6.47715 2 12 2ZM12 4C7.58172 4 4 7.58172 4 12C4 16.4183 7.58172 20 12 20C16.4183 20 20 16.4183 20 12C20 7.58172 16.4183 4 12 4ZM12.25 6C12.821 6 13.3855 6.12216 13.9053 6.3584L14.4141 6.58984L14.5049 6.63672C14.9427 6.89204 15.1244 7.44275 14.9102 7.91406C14.6815 8.41664 14.0886 8.63865 13.5859 8.41016L13.0781 8.17969C12.8182 8.06155 12.5355 8 12.25 8H12C10.8903 8 9.92423 8.60424 9.40527 9.5H11C11.5523 9.5 12 9.94772 12 10.5C12 11.0523 11.5523 11.5 11 11.5H9V12.5H11L11.1025 12.5049C11.6067 12.5562 12 12.9823 12 13.5C12 14.0177 11.6067 14.4438 11.1025 14.4951L11 14.5H9.40527C9.92423 15.3958 10.8903 16 12 16H12.25C12.5355 16 12.8182 15.9385 13.0781 15.8203L13.5859 15.5898C14.0886 15.3614 14.6815 15.5834 14.9102 16.0859C15.1386 16.5886 14.9166 17.1815 14.4141 17.4102L13.9053 17.6416C13.3855 17.8778 12.821 18 12.25 18H12C9.76114 18 7.86561 16.5286 7.22852 14.5H7C6.44772 14.5 6 14.0523 6 13.5C6 12.9477 6.44772 12.5 7 12.5V11.5C6.44772 11.5 6 11.0523 6 10.5C6 9.94772 6.44772 9.5 7 9.5H7.22852C7.86561 7.47139 9.76114 6 12 6H12.25Z" fill="black"/>
</svg>
