<svg width="24" height="24" viewBox="0 0 24 24" fill="none" xmlns="http://www.w3.org/2000/svg">
<path d="M9.29306 13.7933C9.68358 13.4028 10.3166 13.4028 10.7071 13.7933L12.0001 15.0863L13.2931 13.7933L13.3692 13.725C13.762 13.4046 14.341 13.4272 14.7071 13.7933C15.073 14.1595 15.0958 14.7385 14.7755 15.1312L14.7071 15.2074L13.4142 16.5004C12.6332 17.2811 11.367 17.281 10.586 16.5004L9.29306 15.2074C8.90258 14.8169 8.90267 14.1839 9.29306 13.7933ZM10.586 7.50036C11.3671 6.71941 12.6331 6.71941 13.4142 7.50036L14.7071 8.79333L14.7755 8.8695C15.0956 9.26227 15.0732 9.84136 14.7071 10.2074C14.3411 10.5733 13.762 10.5959 13.3692 10.2757L13.2931 10.2074L12.0001 8.91442L10.7071 10.2074C10.3167 10.5977 9.68356 10.5976 9.29306 10.2074C8.90258 9.81691 8.90267 9.18386 9.29306 8.79333L10.586 7.50036Z" fill="black"/>
</svg>
