<svg width="24" height="24" viewBox="0 0 24 24" fill="none" xmlns="http://www.w3.org/2000/svg">
<path d="M9.26758 3C9.62488 3 9.95517 3.19056 10.1338 3.5C10.3124 3.80961 10.3118 4.1916 10.1328 4.50098C10.0484 4.64699 10 4.81637 10 5C10 5.55228 10.4477 6 11 6C11.5523 6 12 5.55228 12 5C12 4.81637 11.9516 4.64699 11.8672 4.50098C11.6882 4.1916 11.6876 3.80961 11.8662 3.5C12.0448 3.19056 12.3751 3 12.7324 3H16C18.2091 3 20 4.79086 20 7V8C21.6569 8 23 9.34315 23 11C23 12.6569 21.6569 14 20 14V16C20 18.2091 18.2091 20 16 20H14C14 21.6569 12.6569 23 11 23C9.34315 23 8 21.6569 8 20H7C4.79086 20 3 18.2091 3 16V12.7324C3 12.3751 3.19056 12.0448 3.5 11.8662C3.80961 11.6876 4.1916 11.6882 4.50098 11.8672C4.64699 11.9516 4.81637 12 5 12C5.55228 12 6 11.5523 6 11C6 10.4477 5.55228 10 5 10C4.81637 10 4.64699 10.0484 4.50098 10.1328C4.1916 10.3118 3.80961 10.3124 3.5 10.1338C3.19056 9.95517 3 9.62488 3 9.26758V7C3 4.79086 4.79086 3 7 3H9.26758ZM7 5C5.89543 5 5 5.89543 5 7V8C6.65685 8 8 9.34315 8 11C8 12.6569 6.65685 14 5 14V16C5 17.1046 5.89543 18 7 18H9.26953C9.62703 18 9.9572 18.1913 10.1357 18.501C10.3141 18.8106 10.3138 19.1917 10.1348 19.501C10.0485 19.65 10 19.8192 10 20C10 20.5523 10.4477 21 11 21C11.5523 21 12 20.5523 12 20C12 19.8192 11.9515 19.65 11.8652 19.501C11.6862 19.1917 11.6859 18.8106 11.8643 18.501C12.0428 18.1913 12.373 18 12.7305 18H16C17.1046 18 18 17.1046 18 16V12.7295C18 12.3719 18.1912 12.0418 18.501 11.8633C18.8106 11.6849 19.1917 11.6852 19.501 11.8643C19.6515 11.9515 19.8207 12 20 12C20.5523 12 21 11.5523 21 11C21 10.4477 20.5523 10 20 10C19.8192 10 19.65 10.0485 19.501 10.1348C19.1917 10.3138 18.8106 10.3141 18.501 10.1357C18.1913 9.9572 18 9.62703 18 9.26953V7C18 5.89543 17.1046 5 16 5H14C14 6.65685 12.6569 8 11 8C9.34315 8 8 6.65685 8 5H7Z" fill="black"/>
</svg>
