<svg width="24" height="24" viewBox="0 0 24 24" fill="none" xmlns="http://www.w3.org/2000/svg">
<path d="M10.2229 3.26625C10.9679 1.82209 13.0328 1.82193 13.7776 3.26625L15.8714 7.32875L20.3294 8.11879C21.8984 8.39689 22.5277 10.3086 21.4309 11.4645L18.2503 14.8161L18.8968 19.4166C19.1212 21.0146 17.4582 22.2066 16.0169 21.4811L12.0003 19.4596L7.98367 21.4811C6.54235 22.2067 4.87938 21.0146 5.10379 19.4166L5.75027 14.8161L2.56961 11.4645C1.47248 10.3085 2.10185 8.39679 3.67117 8.11879L8.12918 7.32875L10.2229 3.26625ZM9.90652 8.24477C9.62067 8.79945 9.09223 9.18953 8.47781 9.29848L4.01981 10.0875L7.20047 13.4391C7.61988 13.881 7.81523 14.4901 7.73074 15.0934L7.08426 19.695L11.1009 17.6725C11.6665 17.3879 12.3341 17.3878 12.8997 17.6725L16.9163 19.695L16.2698 15.0934C16.1853 14.49 16.3806 13.881 16.8001 13.4391L19.9807 10.0875L15.5227 9.29848C14.9082 9.18961 14.3799 8.79955 14.094 8.24477L12.0003 4.18227L9.90652 8.24477Z" fill="black"/>
</svg>
