<svg width="24" height="24" viewBox="0 0 24 24" fill="none" xmlns="http://www.w3.org/2000/svg">
<path d="M10.2598 2C10.9015 2 11.5354 2.14952 12.1094 2.43652C15.335 4.04944 17.9506 6.66502 19.5635 9.89062C19.8505 10.4646 20 11.0985 20 11.7402V18C20 20.2091 18.2091 22 16 22H8C5.79086 22 4 20.2091 4 18V6C4 3.79086 5.79086 2 8 2H10.2598ZM8 4C6.89543 4 6 4.89543 6 6V18C6 19.1046 6.89543 20 8 20H16C17.1046 20 18 19.1046 18 18V12H14C11.7909 12 10 10.2091 10 8V4H8ZM12 8C12 9.10457 12.8954 10 14 10H17.3477C16.063 7.78008 14.22 5.93593 12 4.65137V8Z" fill="black"/>
</svg>
