<svg width="24" height="24" viewBox="0 0 24 24" fill="none" xmlns="http://www.w3.org/2000/svg">
<path d="M10.2598 2C10.9015 2 11.5354 2.14952 12.1094 2.43652C15.335 4.04944 17.9506 6.66502 19.5635 9.89062C19.8505 10.4646 20 11.0985 20 11.7402V18.5859L20.293 18.293C20.6835 17.9024 21.3165 17.9024 21.707 18.293C22.0976 18.6835 22.0976 19.3165 21.707 19.707L19.707 21.707C19.3165 22.0976 18.6835 22.0976 18.293 21.707L16.293 19.707L16.2246 19.6309C15.9043 19.2381 15.9269 18.6591 16.293 18.293C16.6591 17.9269 17.2381 17.9043 17.6309 18.2246L17.707 18.293L18 18.5859V12H14C11.7909 12 10 10.2091 10 8V4H8C6.89543 4 6 4.89543 6 6V18C6 19.1046 6.89543 20 8 20H13C13.5523 20 14 20.4477 14 21C14 21.5523 13.5523 22 13 22H8C5.79086 22 4 20.2091 4 18V6C4 3.79086 5.79086 2 8 2H10.2598ZM12 8C12 9.10457 12.8954 10 14 10H17.3477C16.063 7.78008 14.22 5.93593 12 4.65137V8Z" fill="black"/>
</svg>
