<svg width="24" height="24" viewBox="0 0 24 24" fill="none" xmlns="http://www.w3.org/2000/svg">
<path d="M19 3C20.1046 3 21 3.89543 21 5V6.11523C21 6.96047 20.643 7.76639 20.0176 8.33496L15.4287 12.5068L13.9863 21.1641C13.9404 21.4393 13.7812 21.6829 13.5479 21.8359C13.3146 21.9888 13.0284 22.0373 12.7578 21.9697L10.7578 21.4697C10.375 21.374 10.0842 21.0624 10.0156 20.6738L8.57422 12.5107L3.98242 8.33496C3.39614 7.80197 3.04542 7.06045 3.00391 6.27344L3 6.11523V5C3 3.89543 3.89543 3 5 3H19ZM11.8711 19.6875L12.1914 19.7676L13.3193 13H10.6914L11.8711 19.6875ZM5 6.11523L5.00586 6.21973C5.03137 6.46264 5.14463 6.68954 5.32715 6.85547L9.88672 11H14.1133L18.6729 6.85547C18.8813 6.66595 19 6.39698 19 6.11523V5H5V6.11523Z" fill="black"/>
</svg>
