<svg width="24" height="24" viewBox="0 0 24 24" fill="none" xmlns="http://www.w3.org/2000/svg">
<path d="M9.375 2C10.7958 2 12.7593 2.26739 14.3574 3.77148C15.6862 5.02209 16.6232 6.99799 16.9072 9.99707C17.062 9.8538 17.1829 9.73653 17.2637 9.6543C17.3065 9.61073 17.3384 9.57696 17.3584 9.55566C17.3683 9.54512 17.3759 9.53758 17.3799 9.5332C17.3814 9.53161 17.3822 9.53001 17.3828 9.5293C17.6138 9.27371 17.9606 9.1557 18.2998 9.21582C18.639 9.27607 18.9238 9.50665 19.0527 9.82617C19.6305 11.2582 20 12.695 20 14C20 18.539 16.4079 22 12 22C7.59208 22 4 18.539 4 14C4 10.5936 6.10188 8.79796 7.4707 7.4502C8.19524 6.7368 8.65631 6.21045 8.85645 5.64844C9.0269 5.16953 9.05081 4.52402 8.49121 3.46875C8.32684 3.15879 8.33769 2.78501 8.51855 2.48438C8.69945 2.18391 9.02427 2 9.375 2ZM11.7373 13.9502C11.1286 14.4249 10.7213 14.8932 10.457 15.3301C10.0068 16.0745 9.92981 16.7936 10.0469 17.4492C10.1675 18.1249 10.5006 18.7557 10.8965 19.249C11.2213 19.6537 11.525 19.8882 11.6992 19.9922C11.7989 19.9969 11.8991 20 12 20C12.013 20 12.026 19.9981 12.0391 19.998C12.7513 19.1288 12.9994 18.5262 13.0664 18.1016C13.1375 17.6507 13.0298 17.2608 12.7832 16.7402C12.5661 16.282 12.1154 15.5193 11.8906 14.7373C11.8183 14.4855 11.7667 14.2235 11.7373 13.9502ZM10.8672 4.14746C11.0306 4.92041 10.9839 5.63883 10.7412 6.32031C10.3671 7.37063 9.57027 8.1885 8.87305 8.875C7.39819 10.3272 6 11.5565 6 14C6 16.0062 6.92456 17.7261 8.36133 18.8037C8.2402 18.4865 8.14079 18.1517 8.07812 17.8008C7.88271 16.7064 8.02451 15.488 8.74609 14.2949C9.45789 13.1182 10.6899 12.0369 12.5527 11.1055C12.9205 10.9216 13.3634 10.9818 13.6689 11.2568C13.9746 11.532 14.0809 11.9665 13.9365 12.3516C13.6387 13.1459 13.6753 13.7068 13.8125 14.1846C13.9783 14.7616 14.2454 15.1556 14.5908 15.8848C14.9067 16.5516 15.2052 17.3807 15.042 18.4141C14.9941 18.7169 14.9079 19.0229 14.7832 19.3359C16.6979 18.3566 18 16.3805 18 14C18 13.4031 17.8917 12.7214 17.6816 11.9756C17.3641 12.2401 16.9903 12.5338 16.5654 12.8252C16.2594 13.0349 15.8624 13.0576 15.5342 12.8848C15.2058 12.7118 15 12.3711 15 12C15 8.15086 14.0379 6.21826 12.9863 5.22852C12.3531 4.63249 11.6155 4.31037 10.8672 4.14746Z" fill="black"/>
</svg>
