<svg width="24" height="24" viewBox="0 0 24 24" fill="none" xmlns="http://www.w3.org/2000/svg">
<path d="M8.17188 3C8.96742 3.00008 9.73043 3.31637 10.293 3.87891L11.4141 5H18C20.2091 5 22 6.79086 22 9V17C22 19.2091 20.2091 21 18 21H6C3.79086 21 2 19.2091 2 17V7C2 4.79086 3.79086 3 6 3H8.17188ZM4 11V17C4 18.1046 4.89543 19 6 19H18C19.1046 19 20 18.1046 20 17V11H4ZM6 5C4.89543 5 4 5.89543 4 7V9H20C20 7.89543 19.1046 7 18 7H11C10.7348 7 10.4805 6.89457 10.293 6.70703L8.87891 5.29297C8.69144 5.1055 8.43698 5.00008 8.17188 5H6Z" fill="black"/>
</svg>
