<svg width="24" height="24" viewBox="0 0 24 24" fill="none" xmlns="http://www.w3.org/2000/svg">
<path d="M12 6.28464C12 4.3548 14.3079 3.35996 15.7109 4.68503L20.8389 9.52878C22.2593 10.8705 22.2594 13.1305 20.8389 14.4721L15.7109 19.3159C14.308 20.6405 12.0004 19.6457 12 17.7163V16.0005H9C5.25501 16.0005 2.19656 13.0591 2.00879 9.36081L2 9.00046V6.24753L2.00391 6.14987C2.085 5.15928 3.39717 4.79392 3.96875 5.65085C4.94721 7.11831 6.59464 8.00033 8.3584 8.00046H12V6.28464ZM14.1211 6.10104C14.08 6.11879 14.0488 6.14472 14.0303 6.17136C14.0148 6.19379 14 6.22781 14 6.28464V9.00046C13.9998 9.55253 13.5521 10.0005 13 10.0005H8.3584C6.76433 10.0004 5.2416 9.47487 4 8.54538V9.00046L4.00684 9.25729C4.14076 11.8991 6.32487 14.0005 9 14.0005H13C13.5523 14.0005 14 14.4482 14 15.0005V17.7163C14.0001 17.7731 14.0148 17.8072 14.0303 17.8296C14.0488 17.8561 14.0801 17.8822 14.1211 17.8999C14.1622 17.9175 14.2023 17.9213 14.2344 17.9165C14.2613 17.9124 14.2956 17.9007 14.3369 17.8618L19.4658 13.018C20.0506 12.4657 20.0505 11.5354 19.4658 10.9829L14.3369 6.13913C14.2955 6.10008 14.2613 6.08855 14.2344 6.08444C14.2023 6.07956 14.1623 6.08331 14.1211 6.10104Z" fill="black"/>
</svg>
