<svg width="24" height="24" viewBox="0 0 24 24" fill="none" xmlns="http://www.w3.org/2000/svg">
<path d="M4 14C4.55228 14 5 14.4477 5 15V17C5 18.1046 5.89543 19 7 19H9C9.55228 19 10 19.4477 10 20C10 20.5523 9.55228 21 9 21H7C4.79086 21 3 19.2091 3 17V15C3 14.4477 3.44772 14 4 14ZM20 14C20.5523 14 21 14.4477 21 15V17C21 19.2091 19.2091 21 17 21H15C14.4477 21 14 20.5523 14 20C14 19.4477 14.4477 19 15 19H17C18.1046 19 19 18.1046 19 17V15C19 14.4477 19.4477 14 20 14ZM9 3C9.55228 3 10 3.44772 10 4C10 4.55228 9.55228 5 9 5H7C5.89543 5 5 5.89543 5 7V9C5 9.55228 4.55228 10 4 10C3.44772 10 3 9.55228 3 9V7C3 4.79086 4.79086 3 7 3H9ZM17 3C19.2091 3 21 4.79086 21 7V9C21 9.55228 20.5523 10 20 10C19.4477 10 19 9.55228 19 9V7C19 5.89543 18.1046 5 17 5H15C14.4477 5 14 4.55228 14 4C14 3.44772 14.4477 3 15 3H17Z" fill="black"/>
</svg>
