<svg width="24" height="24" viewBox="0 0 24 24" fill="none" xmlns="http://www.w3.org/2000/svg">
<path d="M12 2C17.5228 2 22 6.47715 22 12C22 17.5228 17.5228 22 12 22C6.47715 22 2 17.5228 2 12C2 6.47715 6.47715 2 12 2ZM12 4C7.58172 4 4 7.58172 4 12C4 16.4183 7.58172 20 12 20C16.4183 20 20 16.4183 20 12C20 7.58172 16.4183 4 12 4ZM10.4004 6.18164C11.4077 5.67796 12.5946 5.67962 13.6006 6.18262C15.0959 6.93027 15.8757 8.61767 15.4697 10.2422C15.3358 10.7779 14.7935 11.1035 14.2578 10.9697C13.7221 10.8358 13.3965 10.2935 13.5303 9.75781C13.7084 9.04525 13.3654 8.30038 12.7061 7.9707C12.2618 7.74875 11.7377 7.7493 11.2949 7.9707L11.2188 8.00879C10.546 8.34518 10.1632 9.0747 10.2695 9.81934L10.5811 12H12C12.5523 12 13 12.4477 13 13C13 13.5523 12.5523 14 12 14H10.8672L10.9014 14.2402C10.9873 14.842 10.8888 15.4557 10.6182 16H14.5C15.0523 16 15.5 16.4477 15.5 17C15.5 17.5523 15.0523 18 14.5 18H9.16211C8.34446 18 7.81223 17.1396 8.17773 16.4082L8.82617 15.1113C8.91706 14.9294 8.95063 14.7237 8.92188 14.5225L8.84766 14H8C7.44772 14 7 13.5523 7 13C7 12.4477 7.44772 12 8 12H8.56152L8.29004 10.1016C8.06206 8.50481 8.88154 6.94107 10.3242 6.21973L10.4004 6.18164Z" fill="black"/>
</svg>
