<svg width="24" height="24" viewBox="0 0 24 24" fill="none" xmlns="http://www.w3.org/2000/svg">
<path d="M14.5 2C16.433 2 18 3.567 18 5.5C18 6.03681 17.8791 6.54536 17.6631 7H18C19.6569 7 21 8.34315 21 10V11C21 11.8874 20.6124 12.6822 20 13.2314V18C20 20.2091 18.2091 22 16 22H8C5.79086 22 4 20.2091 4 18V13.2314C3.3876 12.6822 3 11.8874 3 11V10C3 8.34315 4.34315 7 6 7H6.33691C6.12093 6.54536 6 6.03681 6 5.5C6 3.567 7.567 2 9.5 2C10.4797 2 11.3647 2.40311 12 3.05176C12.6353 2.40311 13.5203 2 14.5 2ZM6 18C6 19.1046 6.89543 20 8 20H11V14H6V18ZM13 20H16C17.1046 20 18 19.1046 18 18V14H13V20ZM6 9C5.44772 9 5 9.44772 5 10V11C5 11.5523 5.44772 12 6 12H11V9H6ZM13 12H18C18.5523 12 19 11.5523 19 11V10C19 9.44772 18.5523 9 18 9H13V12ZM9.5 4C8.67157 4 8 4.67157 8 5.5C8 6.32843 8.67157 7 9.5 7C10.3284 7 11 6.32843 11 5.5C11 4.67157 10.3284 4 9.5 4ZM14.5 4C13.6716 4 13 4.67157 13 5.5C13 6.32843 13.6716 7 14.5 7C15.3284 7 16 6.32843 16 5.5C16 4.67157 15.3284 4 14.5 4Z" fill="black"/>
</svg>
