<svg width="24" height="24" viewBox="0 0 24 24" fill="none" xmlns="http://www.w3.org/2000/svg">
<path d="M16.0518 3.68378C16.2156 3.19274 16.7233 2.91272 17.2178 3.02362L17.3164 3.05194L18.2646 3.36737C19.8979 3.91182 20.9999 5.44066 21 7.16229V17.0002L20.9951 17.2062C20.8878 19.3195 19.14 21.0002 17 21.0002C14.8308 21.0002 13.0651 19.2733 13.002 17.1193L12.8945 17.0656C12.3315 16.7841 11.6685 16.7841 11.1055 17.0656L10.9971 17.1193C10.934 19.2733 9.16922 21.0002 7 21.0002C4.86002 21.0002 3.1122 19.3195 3.00488 17.2062L3 17.0002V7.16229C3.00007 5.44066 4.10207 3.91182 5.73535 3.36737L6.68359 3.05194C7.20744 2.87733 7.77348 3.16002 7.94824 3.68378C8.12275 4.20758 7.84011 4.77368 7.31641 4.94843L6.36719 5.26483C5.55072 5.53713 5.00007 6.3016 5 7.16229V13.5363C5.58846 13.1958 6.27121 13.0002 7 13.0002C8.53429 13.0002 9.86616 13.8642 10.5371 15.132C11.4769 14.7626 12.5221 14.7628 13.4619 15.132C14.1328 13.864 15.4656 13.0002 17 13.0002C17.7288 13.0002 18.4115 13.1958 19 13.5363V7.16229C18.9999 6.3016 18.4493 5.53713 17.6328 5.26483L16.6836 4.94843C16.1599 4.77368 15.8773 4.20758 16.0518 3.68378ZM7 15.0002C5.89543 15.0002 5 15.8956 5 17.0002C5.0001 18.1047 5.89549 19.0002 7 19.0002C8.10451 19.0002 8.9999 18.1047 9 17.0002C9 15.8956 8.10457 15.0002 7 15.0002ZM17 15.0002C15.8954 15.0002 15 15.8956 15 17.0002C15.0001 18.1047 15.8955 19.0002 17 19.0002C18.1045 19.0002 18.9999 18.1047 19 17.0002C19 15.8956 18.1046 15.0002 17 15.0002Z" fill="black"/>
</svg>
