<svg width="24" height="24" viewBox="0 0 24 24" fill="none" xmlns="http://www.w3.org/2000/svg">
<path d="M12.0001 16C13.6569 16.0001 15.0001 17.3432 15.0001 19C15.0001 20.6568 13.6569 21.9999 12.0001 22C10.3433 22 9.00012 20.6569 9.00012 19C9.00012 17.3431 10.3433 16 12.0001 16ZM12.0001 18C11.4478 18 11.0001 18.4477 11.0001 19C11.0001 19.5523 11.4478 20 12.0001 20C12.5524 19.9999 13.0001 19.5522 13.0001 19C13.0001 18.4478 12.5524 18.0001 12.0001 18ZM4.43762 12.9023C5.8725 12.0739 7.70783 12.5651 8.53625 14C9.36455 15.4348 8.87242 17.2692 7.43762 18.0977C6.00277 18.9261 4.16842 18.4348 3.33997 17C2.5116 15.5652 3.00299 13.7309 4.43762 12.9023ZM15.464 14C16.2924 12.5651 18.1277 12.0739 19.5626 12.9023C20.9971 13.7309 21.4886 15.5653 20.6603 17C19.8319 18.4348 17.9975 18.926 16.5626 18.0977C15.1278 17.2692 14.6356 15.4349 15.464 14ZM6.80383 15C6.52769 14.5217 5.91591 14.3576 5.43762 14.6338C4.95943 14.9099 4.79542 15.5218 5.07141 16C5.34751 16.4782 5.95936 16.6422 6.43762 16.3662C6.91591 16.0901 7.07998 15.4783 6.80383 15ZM18.5626 14.6338C18.0844 14.3577 17.4726 14.5218 17.1964 15C16.9203 15.4783 17.0843 16.0901 17.5626 16.3662C18.0408 16.642 18.6517 16.478 18.9279 16C19.204 15.5218 19.0407 14.91 18.5626 14.6338ZM3.33997 7C4.16842 5.5652 6.00278 5.07394 7.43762 5.90234C8.87241 6.73075 9.36454 8.56516 8.53625 10C7.70783 11.4349 5.8725 11.9261 4.43762 11.0977C3.00299 10.2691 2.5116 8.43477 3.33997 7ZM16.5626 5.90234C17.9975 5.07406 19.8319 5.56518 20.6603 7C21.4886 8.43469 20.9971 10.2691 19.5626 11.0977C18.1277 11.9261 16.2924 11.4349 15.464 10C14.6356 8.56513 15.1278 6.73076 16.5626 5.90234ZM6.43762 7.63379C5.95936 7.35782 5.34751 7.52178 5.07141 8C4.79541 8.47825 4.95943 9.09008 5.43762 9.36621C5.91591 9.64235 6.52769 9.47829 6.80383 9C7.07997 8.52171 6.91591 7.90993 6.43762 7.63379ZM18.9279 8C18.6518 7.52197 18.0408 7.35803 17.5626 7.63379C17.0843 7.90993 16.9203 8.52171 17.1964 9C17.4726 9.4782 18.0844 9.64233 18.5626 9.36621C19.0407 9.08999 19.2039 8.4782 18.9279 8ZM12.0001 2C13.6569 2.00006 15.0001 3.34319 15.0001 5C15.0001 6.65682 13.6569 7.99994 12.0001 8C10.3433 8 9.00012 6.65685 9.00012 5C9.00012 3.34315 10.3433 2 12.0001 2ZM12.0001 4C11.4478 4 11.0001 4.44772 11.0001 5C11.0001 5.55228 11.4478 6 12.0001 6C12.5524 5.99994 13.0001 5.55225 13.0001 5C13.0001 4.44775 12.5524 4.00006 12.0001 4Z" fill="black"/>
</svg>
