<svg width="24" height="24" viewBox="0 0 24 24" fill="none" xmlns="http://www.w3.org/2000/svg">
<path d="M12.5 2C13.3893 2 14.1682 2.46559 14.6113 3.16504C14.8877 3.0598 15.1867 3 15.5 3C16.8807 3 18 4.11929 18 5.5V11.1309L18.2627 10.9561C19.3676 10.2194 20.8556 10.4747 21.6523 11.5371C22.2967 12.3963 22.3213 13.571 21.7129 14.4561L18.6123 18.9658C17.3064 20.8653 15.1488 22 12.8438 22H10C6.68629 22 4 19.3137 4 16V7.5C4 6.11929 5.11929 5 6.5 5C6.6855 5 6.86606 5.02124 7.04004 5.05957C7.2482 3.88902 8.26965 3 9.5 3C9.81298 3 10.1116 3.06001 10.3877 3.16504C10.8308 2.46535 11.6105 2 12.5 2ZM12.5 4C12.2239 4 12 4.22386 12 4.5V11.5C12 12.0523 11.5523 12.5 11 12.5C10.4477 12.5 10 12.0523 10 11.5V5.5C10 5.22386 9.77614 5 9.5 5C9.22386 5 9 5.22386 9 5.5V12C9 12.5523 8.55228 13 8 13C7.44772 13 7 12.5523 7 12V7.5C7 7.22386 6.77614 7 6.5 7C6.22386 7 6 7.22386 6 7.5V16C6 18.2091 7.79086 20 10 20H12.8438C14.4901 20 16.0311 19.1896 16.9639 17.833L20.0645 13.3223C20.1865 13.1447 20.182 12.9087 20.0527 12.7363C19.8928 12.5233 19.5937 12.4723 19.3721 12.6201L18.1484 13.4355C17.23 14.0478 16.0001 13.39 16 12.2861V5.5C16 5.22386 15.7761 5 15.5 5C15.2239 5 15 5.22386 15 5.5V12C15 12.5523 14.5523 13 14 13C13.4477 13 13 12.5523 13 12V4.5C13 4.22386 12.7761 4 12.5 4Z" fill="black"/>
</svg>
