<svg width="24" height="24" viewBox="0 0 24 24" fill="none" xmlns="http://www.w3.org/2000/svg">
<path d="M15 2.5C15.5523 2.5 16 2.94772 16 3.5V8H20.5C21.0523 8 21.5 8.44772 21.5 9C21.5 9.55228 21.0523 10 20.5 10H16V14H20.5C21.0523 14 21.5 14.4477 21.5 15C21.5 15.5523 21.0523 16 20.5 16H16V20.5L15.9951 20.6025C15.9438 21.1067 15.5177 21.5 15 21.5C14.4823 21.5 14.0562 21.1067 14.0049 20.6025L14 20.5V16H10V20.5C10 21.0523 9.55228 21.5 9 21.5C8.44772 21.5 8 21.0523 8 20.5V16H3.5L3.39746 15.9951C2.89333 15.9438 2.5 15.5177 2.5 15C2.5 14.4477 2.94772 14 3.5 14H8V10H3.5C2.94772 10 2.5 9.55228 2.5 9C2.5 8.44772 2.94772 8 3.5 8H8V3.5L8.00488 3.39746C8.05622 2.89333 8.48232 2.5 9 2.5C9.51768 2.5 9.94378 2.89333 9.99512 3.39746L10 3.5V8H14V3.5C14 2.94772 14.4477 2.5 15 2.5ZM10 14H14V10H10V14Z" fill="black"/>
</svg>
