<svg width="24" height="24" viewBox="0 0 24 24" fill="none" xmlns="http://www.w3.org/2000/svg">
<path fill-rule="evenodd" clip-rule="evenodd" d="M13.4999 2C17.642 2 20.9999 5.35786 20.9999 9.5C20.9999 10.3392 20.8612 11.1469 20.6063 11.9014C21.2761 12.0103 21.9027 12.3954 22.2889 13.0391C22.8588 13.989 22.7099 15.205 21.9266 15.9883L18.413 19.501C18.144 19.7699 17.8038 19.9566 17.4325 20.0391L13.8348 20.8389C13.2914 20.9596 12.7284 20.9656 12.1825 20.8564L8.81336 20.1826C8.40514 20.101 7.9821 20.1488 7.6034 20.3184C7.4666 21.0963 6.87535 21.7525 6.05555 21.9287L5.3202 22.0859C4.24051 22.318 3.17756 21.6313 2.9452 20.5518L1.79969 15.2246C1.56763 14.1447 2.25497 13.0807 3.33484 12.8486L4.0702 12.6914C4.68549 12.5592 5.29499 12.7255 5.74891 13.0928L6.61414 12.4746C6.21937 11.5617 5.99988 10.5556 5.99988 9.5C5.99988 5.35791 9.35781 2.00007 13.4999 2ZM3.75477 14.8047L4.90027 20.1309L5.63563 19.9727L4.49012 14.6465L3.75477 14.8047ZM10.1679 13.7021C9.50536 13.3711 8.7139 13.4328 8.11121 13.8633L6.59852 14.9424L7.32117 18.2998C7.93085 18.1257 8.57628 18.096 9.20496 18.2217L12.5751 18.8955C12.848 18.9501 13.1296 18.9471 13.4013 18.8867L16.9989 18.0869L20.5116 14.5732C20.646 14.4388 20.6719 14.2304 20.5741 14.0674C20.4354 13.8366 20.1171 13.7978 19.9266 13.9883L18.5829 15.332C17.8662 16.0487 16.943 16.5237 15.9432 16.6904L14.1639 16.9863C14.0407 17.0068 13.9192 17.0027 13.8036 16.9795C13.704 16.9916 13.6027 17 13.4999 17H12.5057C12.2782 17 12.0517 17.0364 11.8358 17.1084L10.8163 17.4482C10.2925 17.6228 9.72639 17.3401 9.55164 16.8164C9.37707 16.2926 9.65981 15.7266 10.1835 15.5518L11.204 15.2109C11.6237 15.0711 12.0634 15 12.5057 15H13.4999C13.776 15 13.9999 14.7761 13.9999 14.5C13.9999 14.2239 13.776 14 13.4999 14H11.2225C10.9209 13.9999 10.6232 13.9298 10.3534 13.7949L10.1679 13.7021ZM13.4999 4C10.4624 4.00007 7.99988 6.46248 7.99988 9.5C7.99988 10.2394 8.14545 10.9434 8.40906 11.5859C9.28989 11.3909 10.2272 11.4956 11.0624 11.9131L11.2362 12H13.4999C14.8806 12 15.9999 13.1193 15.9999 14.5C15.9999 14.5417 15.9951 14.5829 15.993 14.624C16.4343 14.4868 16.8383 14.2465 17.1679 13.917L17.9833 13.1006C17.9611 12.884 18.0091 12.6586 18.1356 12.4609C18.6825 11.6068 18.9999 10.5919 18.9999 9.5C18.9999 6.46243 16.5374 4 13.4999 4Z" fill="black"/>
</svg>
