<svg width="24" height="24" viewBox="0 0 24 24" fill="none" xmlns="http://www.w3.org/2000/svg">
<path d="M10.007 3.43355C11.1437 2.4233 12.8567 2.42323 13.9933 3.43355L21.6642 10.2529L21.7375 10.3242C22.0804 10.6974 22.0911 11.277 21.7473 11.664C21.4032 12.0511 20.8261 12.1084 20.4152 11.8115L20.3361 11.747L19.798 11.2685L19.2443 17.3623C19.057 19.4223 17.3294 20.9997 15.2609 21H8.73944C6.67084 20.9998 4.94339 19.4224 4.75604 17.3623L4.20135 11.2685L3.66425 11.747C3.25148 12.1139 2.62004 12.0767 2.25311 11.664C1.88619 11.2512 1.92334 10.6198 2.33612 10.2529L10.007 3.43355ZM12.6642 4.92867C12.2854 4.59199 11.715 4.59206 11.3361 4.92867L6.05975 9.61714L6.74823 17.1806C6.84187 18.2106 7.7052 18.9998 8.73944 19H15.2609C16.2951 18.9997 17.1585 18.2106 17.2521 17.1806L17.9396 9.61714L12.6642 4.92867Z" fill="black"/>
</svg>
