<svg width="24" height="24" viewBox="0 0 24 24" fill="none" xmlns="http://www.w3.org/2000/svg">
<path d="M14.3037 18.0195C14.8452 17.9112 15.3721 18.2623 15.4805 18.8037C15.5888 19.3452 15.2377 19.8721 14.6963 19.9805L13.4717 20.2246C13.4883 20.3141 13.5 20.4057 13.5 20.5C13.5 21.3284 12.8284 22 12 22C11.2787 22 10.676 21.491 10.5322 20.8125L9.69629 20.9805C9.15479 21.0888 8.62793 20.7377 8.51953 20.1963C8.41123 19.6548 8.76226 19.1279 9.30371 19.0195L14.3037 18.0195ZM12 5C13.8672 5.00001 15.4147 5.39691 16.4912 6.39062C17.5848 7.40038 18 8.84549 18 10.5C18 12.923 16.422 14.5001 15.4453 15.249C15.3872 15.2936 15.3362 15.3411 15.29 15.3887C15.3817 15.507 15.4491 15.647 15.4805 15.8037C15.5888 16.3452 15.2377 16.8721 14.6963 16.9805L9.69629 17.9805C9.15479 18.0888 8.62793 17.7377 8.51953 17.1963C8.44234 16.8104 8.59852 16.4319 8.89062 16.207C8.71564 15.6681 8.33776 15.1223 7.81543 14.6045C6.95006 13.7465 6 12.3749 6 10.5C6 8.84549 6.4152 7.40038 7.50879 6.39062C8.58532 5.3969 10.1328 5 12 5ZM12 7C10.3677 7 9.41474 7.35332 8.86621 7.85938C8.33514 8.3496 8 9.15473 8 10.5C8 11.6511 8.57607 12.5426 9.22363 13.1846C9.87446 13.8298 10.5324 14.6901 10.832 15.7129L13.1064 15.2588C13.3001 14.5911 13.7366 14.0393 14.2285 13.6621C15.0271 13.0498 16 11.9895 16 10.5C16 9.15475 15.6649 8.3496 15.1338 7.85938C14.5852 7.35331 13.6323 7.00001 12 7ZM5 4C5.55228 4 6 4.44772 6 5C6 5.55228 5.55228 6 5 6C4.44772 6 4 5.55228 4 5C4 4.44772 4.44772 4 5 4ZM19 4C19.5523 4 20 4.44772 20 5C20 5.55228 19.5523 6 19 6C18.4477 6 18 5.55228 18 5C18 4.44772 18.4477 4 19 4ZM12 1C12.5523 1 13 1.44772 13 2C13 2.55228 12.5523 3 12 3C11.4477 3 11 2.55228 11 2C11 1.44772 11.4477 1 12 1Z" fill="black"/>
</svg>
