<svg width="24" height="24" viewBox="0 0 24 24" fill="none" xmlns="http://www.w3.org/2000/svg">
<path d="M7.42862 2.89443C10.4461 2.29093 13.5537 2.29095 16.5712 2.89443C18.8592 3.35211 20.6477 5.14061 21.1054 7.42861C21.7089 10.4461 21.7089 13.5537 21.1054 16.5712C20.6477 18.8592 18.8593 20.6477 16.5712 21.1054C13.5537 21.7089 10.4461 21.7089 7.42862 21.1054C5.14062 20.6476 3.35212 18.8592 2.89444 16.5712C2.29096 13.5537 2.29094 10.4461 2.89444 7.42861C3.35215 5.14061 5.14062 3.35214 7.42862 2.89443ZM5.61417 17.7987C6.15874 18.4784 6.93104 18.9664 7.8212 19.1444C10.5797 19.6961 13.4202 19.6961 16.1786 19.1444C17.0685 18.9665 17.8411 18.4791 18.3857 17.7997L14.9999 14.414L13.7069 15.7069C13.3164 16.0975 12.6834 16.0975 12.2929 15.7069L9.99991 13.414L5.61417 17.7987ZM16.1786 4.85537C13.4202 4.30372 10.5796 4.30371 7.8212 4.85537C6.32477 5.15469 5.15469 6.32476 4.85538 7.82119C4.32887 10.4539 4.3056 13.1612 4.78409 15.8007L9.29288 11.2929L9.36905 11.2245C9.76179 10.9042 10.3408 10.9268 10.7069 11.2929L12.9999 13.5858L14.2929 12.2929L14.369 12.2245C14.7618 11.9042 15.3408 11.9268 15.7069 12.2929L19.2148 15.8007C19.6933 13.1611 19.671 10.4539 19.1444 7.82119C18.8451 6.32476 17.6751 5.15466 16.1786 4.85537ZM15.4999 6.9999C16.3283 6.9999 16.9999 7.67152 16.9999 8.4999C16.9999 9.32833 16.3283 9.9999 15.4999 9.9999C14.6715 9.99985 13.9999 9.3283 13.9999 8.4999C14 7.67155 14.6716 6.99995 15.4999 6.9999Z" fill="black"/>
</svg>
