<svg width="24" height="24" viewBox="0 0 24 24" fill="none" xmlns="http://www.w3.org/2000/svg">
<path d="M18 3C19.6569 3 21 4.34315 21 6C21 7.65685 19.6569 9 18 9C16.7059 9 15.6064 8.17948 15.1855 7.03125C14.3673 7.17862 13.7093 7.82612 13.5684 8.6709L12.4043 15.6572C12.1035 17.4619 10.623 18.8147 8.83203 18.9814C8.42515 20.1557 7.31271 21 6 21C4.34315 21 3 19.6569 3 18C3 16.3431 4.34315 15 6 15C7.29363 15 8.39231 15.8202 8.81348 16.9678C9.63213 16.8207 10.2907 16.1741 10.4316 15.3291L11.5957 8.34277C11.8964 6.53839 13.3764 5.18468 15.167 5.01758C15.574 3.84361 16.6875 3 18 3ZM6 17C5.44772 17 5 17.4477 5 18C5 18.5523 5.44772 19 6 19C6.55228 19 7 18.5523 7 18C7 17.4477 6.55228 17 6 17ZM18 5C17.4477 5 17 5.44772 17 6C17 6.55228 17.4477 7 18 7C18.5523 7 19 6.55228 19 6C19 5.44772 18.5523 5 18 5Z" fill="black"/>
</svg>
