<svg width="24" height="24" viewBox="0 0 24 24" fill="none" xmlns="http://www.w3.org/2000/svg">
<path d="M16 2C19.3137 2.00003 22 4.68631 22 8C22 11.3137 19.3137 14 16 14C14.704 14 13.5053 13.5873 12.5244 12.8887L9.41406 16L10.707 17.293L10.7754 17.3691C11.0957 17.7619 11.0731 18.3409 10.707 18.707C10.3409 19.0731 9.76191 19.0957 9.36914 18.7754L9.29297 18.707L8 17.4141L6.91406 18.5L8.70703 20.293L8.77539 20.3691C9.09571 20.7619 9.07311 21.3409 8.70703 21.707C8.34093 22.0731 7.76191 22.0957 7.36914 21.7754L7.29297 21.707L5.5 19.9141L4.70703 20.707C4.31652 21.0975 3.6835 21.0975 3.29297 20.707C2.90244 20.3165 2.90244 19.6835 3.29297 19.293L11.1104 11.4746C10.4122 10.4939 10 9.29551 10 8C10 4.68629 12.6863 2 16 2ZM16 4C13.7909 4 12 5.79086 12 8C12 10.2091 13.7909 12 16 12C18.2091 12 20 10.2091 20 8C20 5.79088 18.2091 4.00003 16 4Z" fill="black"/>
</svg>
