<svg width="24" height="24" viewBox="0 0 24 24" fill="none" xmlns="http://www.w3.org/2000/svg">
<path d="M17.2061 3.00488C19.3194 3.11211 21 4.85996 21 7V11.7578C20.9999 12.8185 20.5782 13.8359 19.8281 14.5859L13.8281 20.5859C12.2661 22.1477 9.73391 22.1477 8.17188 20.5859L3.41406 15.8281C1.85227 14.2661 1.85228 11.7339 3.41406 10.1719L9.41406 4.17188C10.1641 3.42184 11.1815 3.00012 12.2422 3H17L17.2061 3.00488ZM12.2422 5C11.7119 5.00012 11.2031 5.21098 10.8281 5.58594L4.82812 11.5859C4.04739 12.3669 4.04739 13.6331 4.82812 14.4141L9.58594 19.1719C10.3669 19.9526 11.6331 19.9526 12.4141 19.1719L18.4141 13.1719C18.789 12.7969 18.9999 12.2881 19 11.7578V7C19 5.96435 18.2128 5.113 17.2041 5.01074L17 5H12.2422ZM16 7C16.5523 7 17 7.44772 17 8C17 8.55228 16.5523 9 16 9C15.4477 8.99999 15 8.55228 15 8C15 7.44772 15.4477 7.00001 16 7Z" fill="black"/>
</svg>
