<svg width="24" height="24" viewBox="0 0 24 24" fill="none" xmlns="http://www.w3.org/2000/svg">
<path d="M12 2C17.5228 2 22 6.47715 22 12C22 17.5228 17.5228 22 12 22C6.47715 22 2 17.5228 2 12C2 6.47715 6.47715 2 12 2ZM10.3281 16C10.442 16.6514 10.5805 17.2483 10.7412 17.7764C10.968 18.5213 11.2241 19.0926 11.4795 19.4814C11.7473 19.8893 11.9378 19.983 11.9863 19.9971L11.9854 19.999C11.9902 19.999 11.9951 20 12 20C12.0046 20 12.0091 19.999 12.0137 19.999V19.9971C12.0622 19.983 12.2527 19.8893 12.5205 19.4814C12.7759 19.0926 13.032 18.5213 13.2588 17.7764C13.4195 17.2483 13.558 16.6514 13.6719 16H10.3281ZM5.07324 16C6.00428 17.6088 7.47741 18.8643 9.24512 19.5127C9.09075 19.1537 8.95135 18.7664 8.82715 18.3584C8.61219 17.6522 8.43701 16.858 8.30176 16H5.07324ZM15.6982 16C15.563 16.858 15.3878 17.6522 15.1729 18.3584C15.0486 18.7665 14.9083 19.1536 14.7539 19.5127C16.522 18.8644 17.9956 17.6091 18.9268 16H15.6982ZM4.25195 10C4.08743 10.6392 4 11.3094 4 12C4 12.6906 4.08743 13.3608 4.25195 14H8.07422C8.02719 13.353 8 12.6839 8 12C8 11.3161 8.0271 10.647 8.07422 10H4.25195ZM10.0801 10C10.0297 10.639 10 11.3084 10 12C10 12.6916 10.0297 13.361 10.0801 14H13.9199C13.9703 13.361 14 12.6916 14 12C14 11.3084 13.9703 10.639 13.9199 10H10.0801ZM15.9258 10C15.9729 10.647 16 11.3161 16 12C16 12.6839 15.9728 13.353 15.9258 14H19.748C19.9126 13.3608 20 12.6906 20 12C20 11.3094 19.9126 10.6392 19.748 10H15.9258ZM9.24609 4.48633C7.47786 5.13461 6.00449 6.39085 5.07324 8H8.30176C8.43599 7.14948 8.60984 6.36165 8.82227 5.66016C8.94804 5.24483 9.0894 4.85091 9.24609 4.48633ZM11.9844 4.00293C11.931 4.01932 11.7389 4.12036 11.4717 4.53125C11.2169 4.92318 10.9617 5.49587 10.7363 6.24023C10.5777 6.76422 10.4408 7.35548 10.3281 8H13.6719C13.5592 7.35548 13.4223 6.76422 13.2637 6.24023C13.0383 5.49587 12.7831 4.92318 12.5283 4.53125C12.2611 4.12036 12.069 4.01932 12.0156 4.00293V4H11.9834L11.9844 4.00293ZM14.7529 4.48633C14.9097 4.851 15.0519 5.2447 15.1777 5.66016C15.3902 6.36165 15.564 7.14948 15.6982 8H18.9268C17.9954 6.39059 16.5215 5.13452 14.7529 4.48633Z" fill="black"/>
</svg>
