<svg width="24" height="24" viewBox="0 0 24 24" fill="none" xmlns="http://www.w3.org/2000/svg">
<path d="M14.2041 10.0107C15.2128 10.113 16 10.9643 16 12H19C20.1046 12 21 12.8954 21 14V17.2695C21.5973 17.6155 22 18.2601 22 19V20C22 21.1046 21.1046 22 20 22H4C2.89543 22 2 21.1046 2 20V19C2 18.2601 2.40267 17.6155 3 17.2695V15C3 13.8954 3.89543 13 5 13H8V12C8 10.8954 8.89543 10 10 10H14L14.2041 10.0107ZM4 20H20V19H4V20ZM5 17H8V15H5V17ZM10 17H14V12H10V17ZM16 17H19V14H16V17ZM12 1.5C12.3263 1.5 12.6322 1.65943 12.8193 1.92676L13.9004 3.4707L14.5107 3.12793C14.8662 2.92851 15.3069 2.96493 15.625 3.21973C15.9431 3.47454 16.075 3.89673 15.958 4.28711L14.9717 7.57422C14.7179 8.42019 13.9389 9 13.0557 9H10.9443C10.0611 9 9.28211 8.42019 9.02832 7.57422L8.04199 4.28711C7.925 3.89673 8.05693 3.47454 8.375 3.21973C8.6931 2.96493 9.13381 2.92851 9.48926 3.12793L10.0996 3.4707L11.1807 1.92676C11.3678 1.65943 11.6737 1.5 12 1.5ZM11.7383 4.61719C11.4288 5.05932 10.9696 5.33909 10.4736 5.43359L10.9443 7H13.0557L13.5254 5.43359C13.0298 5.33892 12.571 5.05904 12.2617 4.61719L12 4.24316L11.7383 4.61719Z" fill="black"/>
</svg>
