<svg width="24" height="24" viewBox="0 0 24 24" fill="none" xmlns="http://www.w3.org/2000/svg">
<path d="M5.10547 9.82901C6.43523 9.16416 7.99993 10.1314 8 11.6181V17.9999C8 19.1045 7.10457 19.9999 6 19.9999H4C2.96435 19.9999 2.113 19.2127 2.01074 18.204L2 17.9999V12.6181C2.00004 11.8606 2.42796 11.1678 3.10547 10.829L5.10547 9.82901ZM12.1055 6.82901C13.4352 6.16416 14.9999 7.13138 15 8.61807V17.9999C15 19.1045 14.1046 19.9999 13 19.9999H11C9.89543 19.9999 9 19.1045 9 17.9999V9.61807C9.00004 8.86059 9.42796 8.16779 10.1055 7.82901L12.1055 6.82901ZM19.1055 3.82901C20.4352 3.16416 21.9999 4.13138 22 5.61807V17.9999C22 19.1045 21.1046 19.9999 20 19.9999H18C16.8954 19.9999 16 19.1045 16 17.9999V6.61807C16 5.86059 16.428 5.16779 17.1055 4.82901L19.1055 3.82901ZM4 12.6181V17.9999H6V11.6181L4 12.6181ZM11 9.61807V17.9999H13V8.61807L11 9.61807ZM18 6.61807V17.9999H20V5.61807L18 6.61807Z" fill="black"/>
</svg>
