<svg width="24" height="24" viewBox="0 0 24 24" fill="none" xmlns="http://www.w3.org/2000/svg">
<path d="M11.9994 4.94749C14.5054 1.8516 19.8456 2.42306 21.4779 6.50316C22.3716 8.73735 22.1551 11.3398 20.6879 13.3274C19.5847 14.8217 18.1185 16.6831 16.64 18.1799C15.902 18.927 15.1352 19.6088 14.389 20.1106C13.6691 20.5946 12.8389 21.0002 11.9994 21.0002C11.16 21 10.3296 20.5946 9.60974 20.1106C8.86365 19.6088 8.09766 18.9269 7.35974 18.1799C5.88102 16.683 4.41411 14.8218 3.31091 13.3274C1.84384 11.3399 1.62735 8.73726 2.52087 6.50316C4.15303 2.42298 9.49324 1.85183 11.9994 4.94749ZM19.6215 7.24632C18.3861 4.15792 14.0118 4.25871 12.9525 7.30394C12.6381 8.20704 11.3605 8.20717 11.0463 7.30394C9.98686 4.25882 5.61364 4.15797 4.3783 7.24632C3.71773 8.89809 3.90183 10.7602 4.92029 12.1399C6.00271 13.6062 7.40338 15.3785 8.78259 16.7746C9.47335 17.4739 10.1341 18.0534 10.726 18.4514C11.3438 18.8668 11.7639 19 11.9994 19.0002C12.2347 19.0002 12.6548 18.8669 13.2728 18.4514C13.8647 18.0534 14.5264 17.4739 15.2172 16.7746C16.5962 15.3786 17.9961 13.606 19.0785 12.1399C20.0969 10.7602 20.282 8.89809 19.6215 7.24632Z" fill="black"/>
</svg>
