<svg width="24" height="24" viewBox="0 0 24 24" fill="none" xmlns="http://www.w3.org/2000/svg">
<path d="M11.9994 4.94749C14.5054 1.8516 19.8456 2.42306 21.4779 6.50316C22.3716 8.73735 22.1551 11.3398 20.6879 13.3274C19.5847 14.8217 18.1185 16.6831 16.64 18.1799C15.902 18.927 15.1352 19.6088 14.389 20.1106C13.6691 20.5946 12.8389 21.0002 11.9994 21.0002C11.16 21 10.3296 20.5946 9.60974 20.1106C8.86365 19.6088 8.09766 18.9269 7.35974 18.1799C5.88102 16.683 4.41411 14.8218 3.31091 13.3274C1.84384 11.3399 1.62735 8.73726 2.52087 6.50316C4.15303 2.42298 9.49324 1.85183 11.9994 4.94749Z" fill="black"/>
</svg>
