<svg width="24" height="24" viewBox="0 0 24 24" fill="none" xmlns="http://www.w3.org/2000/svg">
<path d="M6.29333 10.2933C6.68386 9.9028 7.31687 9.9028 7.7074 10.2933C8.09757 10.6839 8.0978 11.317 7.7074 11.7074L5.7074 13.7074C4.44107 14.9737 4.44107 17.027 5.7074 18.2933C6.97376 19.5593 9.02712 19.5595 10.2933 18.2933L12.2933 16.2933C12.6839 15.9028 13.3169 15.9028 13.7074 16.2933C14.0976 16.6839 14.0978 17.317 13.7074 17.7074L11.7074 19.7074C9.66014 21.7546 6.34074 21.7544 4.29333 19.7074C2.24596 17.66 2.24596 14.3407 4.29333 12.2933L6.29333 10.2933ZM13.7933 8.79332C14.1839 8.4028 14.8169 8.4028 15.2074 8.79332C15.5976 9.18387 15.5978 9.81698 15.2074 10.2074L10.2074 15.2074C9.81699 15.5978 9.18389 15.5976 8.79333 15.2074C8.40281 14.8169 8.40281 14.1838 8.79333 13.7933L13.7933 8.79332ZM12.2933 4.29332C14.3407 2.24594 17.66 2.24594 19.7074 4.29332C21.7544 6.34073 21.7547 9.66012 19.7074 11.7074L17.7074 13.7074C17.317 14.0978 16.6839 14.0976 16.2933 13.7074C15.9028 13.3169 15.9028 12.6838 16.2933 12.2933L18.2933 10.2933C19.5595 9.02711 19.5593 6.97374 18.2933 5.70738C17.027 4.44105 14.9737 4.44105 13.7074 5.70738L11.7074 7.70738C11.317 8.09779 10.6839 8.09755 10.2933 7.70738C9.90281 7.31686 9.90281 6.68384 10.2933 6.29332L12.2933 4.29332Z" fill="black"/>
</svg>
