<svg width="24" height="24" viewBox="0 0 24 24" fill="none" xmlns="http://www.w3.org/2000/svg">
<path d="M8 13C9.65685 13 11 14.3431 11 16V18C11 19.6569 9.65685 21 8 21H6C4.34315 21 3 19.6569 3 18V16C3 14.3431 4.34315 13 6 13H8ZM19 18C19.5523 18 20 18.4477 20 19C20 19.5523 19.5523 20 19 20H14C13.4477 20 13 19.5523 13 19C13 18.4477 13.4477 18 14 18H19ZM6 15C5.44772 15 5 15.4477 5 16V18C5 18.5523 5.44772 19 6 19H8C8.55228 19 9 18.5523 9 18V16C9 15.4477 8.55228 15 8 15H6ZM20 14C20.5523 14 21 14.4477 21 15C21 15.5523 20.5523 16 20 16H14C13.4477 16 13 15.5523 13 15C13 14.4477 13.4477 14 14 14H20ZM8 3C9.65685 3 11 4.34315 11 6V8C11 9.65685 9.65685 11 8 11H6C4.34315 11 3 9.65685 3 8V6C3 4.34315 4.34315 3 6 3H8ZM19 8C19.5523 8 20 8.44772 20 9C20 9.55228 19.5523 10 19 10H14C13.4477 10 13 9.55228 13 9C13 8.44772 13.4477 8 14 8H19ZM6 5C5.44772 5 5 5.44772 5 6V8C5 8.55228 5.44772 9 6 9H8C8.55228 9 9 8.55228 9 8V6C9 5.44772 8.55228 5 8 5H6ZM20 4C20.5523 4 21 4.44772 21 5C21 5.55228 20.5523 6 20 6H14C13.4477 6 13 5.55228 13 5C13 4.44772 13.4477 4 14 4H20Z" fill="black"/>
</svg>
