<svg width="24" height="24" viewBox="0 0 24 24" fill="none" xmlns="http://www.w3.org/2000/svg">
<path d="M17.7998 3C17.8798 3 17.9576 3.01056 18.0322 3.02832C19.7058 3.24073 21 4.66909 21 6.40039V13C21 15.2091 19.2091 17 17 17C17 19.2091 15.2091 21 13 21H7C4.79086 21 3 19.2091 3 17V7C3 4.79086 4.79086 3 7 3H17.7998ZM7 5C5.89543 5 5 5.89543 5 7V17C5 18.1046 5.89543 19 7 19H13C14.1046 19 15 18.1046 15 17V5.59961C15 5.39302 15.0267 5.19267 15.0723 5H7ZM17.5996 5C17.2685 5.00021 17.0002 5.26855 17 5.59961V15C18.1046 15 19 14.1046 19 13V6.40039C19 5.62719 18.3728 5 17.5996 5ZM12 11C12.5523 11 13 11.4477 13 12C13 12.5523 12.5523 13 12 13H8C7.44772 13 7 12.5523 7 12C7 11.4477 7.44772 11 8 11H12ZM12 7C12.5523 7 13 7.44772 13 8C13 8.55228 12.5523 9 12 9H8C7.44772 9 7 8.55228 7 8C7 7.44772 7.44772 7 8 7H12Z" fill="black"/>
</svg>
