<svg width="24" height="24" viewBox="0 0 24 24" fill="none" xmlns="http://www.w3.org/2000/svg">
<path d="M16.5762 13.6172C16.7744 13.1389 17.3007 12.8964 17.7861 13.042L17.8828 13.0762L18.1924 13.21C18.904 13.5328 19.5386 13.9246 20.0244 14.3965C20.5864 14.9424 21 15.6512 21 16.5C21 17.3141 20.6182 18.0111 20.0898 18.5576C19.5662 19.0992 18.8567 19.541 18.0576 19.8906C16.4561 20.5913 14.3137 21 12 21C9.6863 21 7.54387 20.5913 5.94238 19.8906C5.14332 19.541 4.43385 19.0992 3.91016 18.5576C3.38176 18.0111 3 17.3141 3 16.5C3.00001 15.6512 3.41357 14.9424 3.97559 14.3965C4.53075 13.8572 5.28039 13.4229 6.11719 13.0762C6.6274 12.8648 7.21241 13.107 7.42383 13.6172C7.63523 14.1274 7.39301 14.7124 6.88281 14.9238C6.18 15.215 5.67907 15.53 5.36914 15.8311C5.0662 16.1253 5.00001 16.348 5 16.5C5 16.6524 5.06654 16.8762 5.34766 17.167C5.63355 17.4627 6.09568 17.7749 6.74414 18.0586C8.03808 18.6247 9.89547 19 12 19C14.1045 19 15.9619 18.6247 17.2559 18.0586C17.9043 17.7749 18.3664 17.4627 18.6523 17.167C18.9335 16.8762 19 16.6524 19 16.5C19 16.348 18.9338 16.1253 18.6309 15.8311C18.3209 15.53 17.82 15.215 17.1172 14.9238C16.607 14.7124 16.3648 14.1274 16.5762 13.6172ZM12 3C14.2091 3 16 4.79086 16 7C16 8.86384 14.7252 10.43 13 10.874V16C13 16.5523 12.5523 17 12 17C11.4477 17 11 16.5523 11 16V10.874C9.27477 10.43 8 8.86384 8 7C8 4.79086 9.79086 3 12 3ZM12 5C10.8954 5 10 5.89543 10 7C10 8.10457 10.8954 9 12 9C13.1046 9 14 8.10457 14 7C14 5.89543 13.1046 5 12 5Z" fill="black"/>
</svg>
