<svg width="24" height="24" viewBox="0 0 24 24" fill="none" xmlns="http://www.w3.org/2000/svg">
<path d="M11.9999 4C12.5522 4 12.9999 4.44772 12.9999 5V17.0859L14.2928 15.793C14.6834 15.4025 15.3164 15.4025 15.7069 15.793C16.0974 16.1835 16.0974 16.8165 15.7069 17.207L13.4139 19.5C12.6329 20.2809 11.3668 20.2809 10.5858 19.5L8.29285 17.207L8.22449 17.1309C7.9042 16.7381 7.9268 16.1591 8.29285 15.793C8.65894 15.4269 9.23796 15.4043 9.63074 15.7246L9.70691 15.793L10.9999 17.0859V5C10.9999 4.44775 11.4476 4.00006 11.9999 4Z" fill="black"/>
</svg>
