<svg width="24" height="24" viewBox="0 0 24 24" fill="none" xmlns="http://www.w3.org/2000/svg">
<path d="M10.5858 4.50036C11.3668 3.71941 12.6329 3.71941 13.4139 4.50036L15.7069 6.79333C16.0973 7.18386 16.0974 7.81691 15.7069 8.20739C15.3164 8.59765 14.6833 8.5977 14.2928 8.20739L12.9999 6.91442V19.0004C12.9997 19.5525 12.552 20.0004 11.9999 20.0004C11.4477 20.0003 11.0001 19.5525 10.9999 19.0004V6.91442L9.70691 8.20739L9.63074 8.27575C9.23802 8.59587 8.6589 8.5733 8.29285 8.20739C7.92681 7.84135 7.90435 7.26227 8.22449 6.8695L8.29285 6.79333L10.5858 4.50036Z" fill="black"/>
</svg>
