<svg width="24" height="24" viewBox="0 0 24 24" fill="none" xmlns="http://www.w3.org/2000/svg">
<path d="M6.79333 8.29306C7.18387 7.90267 7.81692 7.90258 8.2074 8.29306C8.59765 8.68356 8.59771 9.31666 8.2074 9.70712L6.91443 11.0001H19.0004C19.5525 11.0003 20.0004 11.4479 20.0004 12.0001C20.0003 12.5522 19.5524 12.9999 19.0004 13.0001H6.91443L8.2074 14.2931L8.27576 14.3692C8.59587 14.762 8.57331 15.3411 8.2074 15.7071C7.84136 16.0732 7.26228 16.0956 6.86951 15.7755L6.79333 15.7071L4.50037 13.4142C3.71942 12.6331 3.71942 11.3671 4.50037 10.586L6.79333 8.29306Z" fill="black"/>
</svg>
