<svg width="24" height="24" viewBox="0 0 24 24" fill="none" xmlns="http://www.w3.org/2000/svg">
<path d="M15.793 8.29304C16.1835 7.90251 16.8165 7.90251 17.207 8.29304L19.5 10.586C20.2809 11.367 20.2809 12.6331 19.5 13.4141L17.207 15.7071L17.1309 15.7755C16.7381 16.0957 16.1591 16.0732 15.793 15.7071C15.4269 15.341 15.4043 14.762 15.7246 14.3692L15.793 14.293L17.0859 13.0001H5C4.44774 13.0001 4.00004 12.5523 4 12.0001C4 11.4478 4.44772 11.0001 5 11.0001H17.0859L15.793 9.7071C15.4025 9.3166 15.4025 8.68357 15.793 8.29304Z" fill="black"/>
</svg>
