<svg width="24" height="24" viewBox="0 0 24 24" fill="none" xmlns="http://www.w3.org/2000/svg">
<path d="M8.01465 3.42438C8.60091 3.07271 9.32697 3.04448 9.93848 3.35016L14.9561 5.85992L17.9707 4.05035C19.3036 3.25081 20.9997 4.21191 21 5.76617V16.4332C21 17.1355 20.6314 17.7865 20.0293 18.148L15.9854 20.5748C15.399 20.9266 14.6731 20.9548 14.0615 20.649L9.04395 18.1392L6.0293 19.9488C4.69625 20.7486 3 19.7876 3 18.233V7.56598C3.00015 6.86377 3.36864 6.21255 3.9707 5.85114L8.01465 3.42438ZM10 16.3804L14 18.3814V7.61774L10 5.61676V16.3804ZM16 7.56598V18.233L19 16.4332V5.76617L16 7.56598ZM5 7.56598V18.233L8 16.4322V5.7652L5 7.56598Z" fill="black"/>
</svg>
