<svg width="24" height="24" viewBox="0 0 24 24" fill="none" xmlns="http://www.w3.org/2000/svg">
<path d="M15 3C17.2091 3 19 4.79086 19 7V7.53613C20.1954 8.22781 21 9.51962 21 11V17C21 19.2091 19.2091 21 17 21H7C4.79086 21 3 19.2091 3 17V11C3 9.51962 3.80464 8.22781 5 7.53613V7C5 4.79086 6.79086 3 9 3H15ZM13.3418 16.4473C12.4972 16.8696 11.5028 16.8696 10.6582 16.4473L5 13.6182V17C5 18.1046 5.89543 19 7 19H17C18.1046 19 19 18.1046 19 17V13.6182L13.3418 16.4473ZM7 9C5.89543 9 5 9.89543 5 11C5 11.2341 5.13242 11.448 5.3418 11.5527L11.5527 14.6582C11.8343 14.799 12.1657 14.799 12.4473 14.6582L18.6582 11.5527C18.8676 11.448 19 11.2341 19 11C19 9.89543 18.1046 9 17 9H7ZM9 5C7.89543 5 7 5.89543 7 7H17C17 5.89543 16.1046 5 15 5H9Z" fill="black"/>
</svg>
