<svg width="24" height="24" viewBox="0 0 24 24" fill="none" xmlns="http://www.w3.org/2000/svg">
<path d="M17 3C19.2091 3 21 4.79086 21 7V22C21 22.3466 20.8202 22.6684 20.5254 22.8506C20.2306 23.0327 19.8626 23.0495 19.5527 22.8945L15.9746 21.1055C15.836 21.0362 15.6833 21.0001 15.5283 21H13.5C12.9477 21 12.5 20.5523 12.5 20C12.5 19.4477 12.9477 19 13.5 19H15.5283C15.9937 19.0001 16.4528 19.1083 16.8691 19.3164L19 20.3818V7C19 5.89543 18.1046 5 17 5H7C5.89543 5 5 5.89543 5 7V7.5C5 8.05228 4.55228 8.5 4 8.5C3.44772 8.5 3 8.05228 3 7.5V7C3 4.79086 4.79086 3 7 3H17ZM7 9C8.65685 9 10 10.3431 10 12C10 12.5523 9.55228 13 9 13C8.48232 13 8.05621 12.6067 8.00488 12.1025L7.99512 11.8975C7.94379 11.3933 7.51768 11 7 11C6.44772 11 6 11.4477 6 12V14H8.5C9.88071 14 11 15.1193 11 16.5V18.5C11 19.8807 9.88071 21 8.5 21H5.5C4.11929 21 3 19.8807 3 18.5V16.5C3 15.6828 3.39363 14.9591 4 14.5029V12C4 10.3431 5.34315 9 7 9ZM5.5 16C5.22386 16 5 16.2239 5 16.5V18.5C5 18.7761 5.22386 19 5.5 19H6C6 18.4477 6.44772 18 7 18C7.55228 18 8 18.4477 8 19H8.5C8.77614 19 9 18.7761 9 18.5V16.5C9 16.2239 8.77614 16 8.5 16H5.5Z" fill="black"/>
</svg>
