<svg width="24" height="24" viewBox="0 0 24 24" fill="none" xmlns="http://www.w3.org/2000/svg">
<path d="M18 4C20.2091 4 22 5.79086 22 8V16C22 18.2091 20.2091 20 18 20H6C3.79086 20 2 18.2091 2 16V8C2 5.79086 3.79086 4 6 4H18ZM13.6641 15.0928C12.6564 15.7644 11.3436 15.7644 10.3359 15.0928L4 10.8682V16C4 17.1046 4.89543 18 6 18H18C19.1046 18 20 17.1046 20 16V10.8682L13.6641 15.0928ZM6 6C4.89543 6 4 6.89543 4 8C4 8.29038 4.14511 8.56157 4.38672 8.72266L11.4453 13.4287C11.7811 13.6525 12.2189 13.6525 12.5547 13.4287L19.6133 8.72266C19.8549 8.56157 20 8.29038 20 8C20 6.89543 19.1046 6 18 6H6Z" fill="black"/>
</svg>
