<svg width="24" height="24" viewBox="0 0 24 24" fill="none" xmlns="http://www.w3.org/2000/svg">
<path d="M4.00006 12C4.55232 12 5.00006 12.4477 5.00006 13C5.00006 16.866 8.13407 20 12.0001 20C12.8012 20 13.5702 19.8631 14.2872 19.6152L16.5225 21.8506C16.3703 21.9443 16.192 22 16.0001 22H8.00006C7.44778 22 7.00006 21.5523 7.00006 21C7.00006 20.8387 7.03871 20.6866 7.10651 20.5518C4.63565 18.9473 3.00006 16.1655 3.00006 13C3.00006 12.4477 3.44778 12 4.00006 12ZM12.0001 2C15.3137 2.00003 18.0001 4.68631 18.0001 8V13C18.0001 14.0357 17.7348 15.0084 17.2725 15.8584L18.0069 16.5928C18.6369 15.5425 19.0001 14.3139 19.0001 13C19.0001 12.4477 19.4478 12 20.0001 12C20.5523 12 21.0001 12.4477 21.0001 13C21.0001 14.8683 20.4284 16.6015 19.4532 18.0391L21.7071 20.293C22.0976 20.6835 22.0976 21.3165 21.7071 21.707C21.3166 22.0975 20.6836 22.0975 20.293 21.707L2.29303 3.70703C1.90251 3.31651 1.90251 2.68349 2.29303 2.29297C2.68356 1.90247 3.31658 1.90245 3.70709 2.29297L6.66608 5.25195C7.66281 3.32064 9.67687 2 12.0001 2ZM8.01471 13.3428C8.17897 15.2781 9.72112 16.8196 11.6563 16.9844L13.4854 18.8135C13.0103 18.9345 12.5128 19 12.0001 19C8.68635 19 6.00006 16.3137 6.00006 13V11.3281L8.01471 13.3428ZM12.0001 4C10.2174 4 8.7081 5.16633 8.19147 6.77734L15.7647 14.3506C15.9164 13.9287 16.0001 13.4742 16.0001 13V8C16.0001 5.79088 14.2092 4.00003 12.0001 4Z" fill="black"/>
</svg>
