<svg width="24" height="24" viewBox="0 0 24 24" fill="none" xmlns="http://www.w3.org/2000/svg">
<path d="M20 12C20.5523 12 21 12.4477 21 13C21 16.1658 19.3638 18.9474 16.8926 20.5518C16.9605 20.6867 17 20.8386 17 21C17 21.5523 16.5523 22 16 22H8C7.44772 22 7 21.5523 7 21C7 20.8387 7.03865 20.6866 7.10645 20.5518C4.63559 18.9473 3 16.1655 3 13C3 12.4477 3.44772 12 4 12C4.55228 12 5 12.4477 5 13C5 16.866 8.13401 20 12 20C15.866 20 19 16.866 19 13C19 12.4477 19.4477 12 20 12ZM12 2C15.3137 2 18 4.68629 18 8V13C18 16.3137 15.3137 19 12 19C8.68629 19 6 16.3137 6 13V8C6 4.68629 8.68629 2 12 2ZM12 4C9.79086 4 8 5.79086 8 8V13C8 15.2091 9.79086 17 12 17C14.2091 17 16 15.2091 16 13V8C16 5.79086 14.2091 4 12 4Z" fill="black"/>
</svg>
