<svg width="24" height="24" viewBox="0 0 24 24" fill="none" xmlns="http://www.w3.org/2000/svg">
<path d="M14.4 2C15.278 2 16.1303 2.11433 16.943 2.32812C17.7099 2.52988 18.1667 3.13386 18.2936 3.77539C18.4156 4.39257 18.246 5.06576 17.8043 5.57324C16.3065 7.29442 15.4 9.53974 15.4 12L15.4108 12.459C15.5159 14.7387 16.4003 16.8124 17.8043 18.4258C18.246 18.9333 18.4155 19.6065 18.2936 20.2236C18.1668 20.865 17.7105 21.4688 16.944 21.6709C16.1312 21.8851 15.2785 22 14.4 22C8.87718 22 4.40002 17.5228 4.40002 12C4.40002 6.47715 8.87718 2 14.4 2ZM14.4 4C9.98175 4 6.40002 7.58172 6.40002 12C6.40002 16.4183 9.98175 20 14.4 20C15.0609 20 15.7014 19.9179 16.3141 19.7666C16.309 19.7573 16.3031 19.7479 16.2955 19.7393C14.4934 17.6686 13.4 14.9615 13.4 12C13.4 9.03839 14.4933 6.33068 16.2955 4.25977C16.3031 4.25108 16.309 4.24174 16.3141 4.23242C15.7015 4.08143 15.0609 4 14.4 4Z" fill="black"/>
</svg>
