<svg width="24" height="24" viewBox="0 0 24 24" fill="none" xmlns="http://www.w3.org/2000/svg">
<path d="M17 3C19.2091 3 21 4.79086 21 7V19.2188C21 20.5199 19.7769 21.4748 18.5146 21.1592L12 19.5312L5.48535 21.1592C4.22306 21.4748 3 20.5199 3 19.2188V7C3 4.79086 4.79086 3 7 3H17ZM7 5C5.89543 5 5 5.89543 5 7V19.2188L11.5146 17.5908C11.8331 17.5112 12.1669 17.5112 12.4854 17.5908L19 19.2188V7C19 5.89543 18.1046 5 17 5H7ZM12 9C12.5523 9 13 9.44772 13 10V11H14L14.1025 11.0049C14.6067 11.0562 15 11.4823 15 12C15 12.5177 14.6067 12.9438 14.1025 12.9951L14 13H13V14C13 14.5523 12.5523 15 12 15C11.4477 15 11 14.5523 11 14V13H10C9.44772 13 9 12.5523 9 12C9 11.4477 9.44772 11 10 11H11V10C11 9.44772 11.4477 9.00001 12 9Z" fill="black"/>
</svg>
