<svg width="24" height="24" viewBox="0 0 24 24" fill="none" xmlns="http://www.w3.org/2000/svg">
<path d="M10 3C10.5523 3 11 3.44772 11 4C11 4.55228 10.5523 5 10 5H7C5.89543 5 5 5.89543 5 7V17C5 18.1046 5.89543 19 7 19H17C18.1046 19 19 18.1046 19 17V14C19 13.4477 19.4477 13 20 13C20.5523 13 21 13.4477 21 14V17C21 19.2091 19.2091 21 17 21H7C4.79086 21 3 19.2091 3 17V7C3 4.79086 4.79086 3 7 3H10ZM18.5 2.5C20.1569 2.5 21.5 3.84315 21.5 5.5V5.58594C21.5 6.11632 21.2891 6.62496 20.9141 7L15.207 12.707C15.0869 12.8272 14.9378 12.9152 14.7744 12.9619L11.2744 13.9619C10.9253 14.0615 10.5497 13.9637 10.293 13.707C10.0363 13.4503 9.9385 13.0747 10.0381 12.7256L11.0381 9.22559L11.0811 9.10547C11.131 8.98912 11.2029 8.88305 11.293 8.79297L17 3.08594C17.375 2.7109 17.8837 2.50004 18.4141 2.5H18.5ZM12.8906 10.0225L12.4561 11.543L13.9766 11.1084L19.5 5.58594V5.5C19.5 4.94772 19.0523 4.5 18.5 4.5H18.4141L12.8906 10.0225Z" fill="black"/>
</svg>
