<svg width="24" height="24" viewBox="0 0 24 24" fill="none" xmlns="http://www.w3.org/2000/svg">
<path d="M4 3C4.55228 3 5 3.44772 5 4V7L5.00488 7.10254C5.05621 7.60667 5.48232 8 6 8H8.17383C8.58594 6.83532 9.69415 6 11 6H19L19.1543 6.00391C20.7394 6.08421 22 7.39489 22 9C22 10.6569 20.6569 12 19 12H11C9.69415 12 8.58594 11.1647 8.17383 10H6C5.64888 10 5.31314 9.93604 5 9.8252V16L5.00488 16.1025C5.05621 16.6067 5.48232 17 6 17H8.17383C8.58594 15.8353 9.69415 15 11 15H19L19.1543 15.0039C20.7394 15.0842 22 16.3949 22 18C22 19.6569 20.6569 21 19 21H11C9.69415 21 8.58594 20.1647 8.17383 19H6C4.39489 19 3.08421 17.7394 3.00391 16.1543L3 16V4C3 3.44772 3.44772 3 4 3ZM11 17C10.4477 17 10 17.4477 10 18C10 18.5523 10.4477 19 11 19H19C19.5523 19 20 18.5523 20 18C20 17.4823 19.6067 17.0562 19.1025 17.0049L19 17H11ZM11 8C10.4477 8 10 8.44772 10 9C10 9.55228 10.4477 10 11 10H19C19.5523 10 20 9.55228 20 9C20 8.48232 19.6067 8.05621 19.1025 8.00488L19 8H11Z" fill="black"/>
</svg>
