<svg width="24" height="24" viewBox="0 0 24 24" fill="none" xmlns="http://www.w3.org/2000/svg">
<path d="M11.9999 2C16.4182 2 19.9999 5.5817 19.9999 10V16C20.5522 16 20.9999 16.4477 20.9999 17C20.9999 17.5523 20.5522 18 19.9999 18H15.9999C15.9999 20.2091 14.2091 22 11.9999 22C9.79083 22 7.99994 20.2091 7.99994 18H3.99994C3.44765 18 2.99994 17.5523 2.99994 17C2.99994 16.4477 3.44765 16 3.99994 16V10C3.99994 5.58174 7.58172 2.00005 11.9999 2ZM9.99994 18C9.99994 19.1045 10.8954 20 11.9999 20C13.1045 20 13.9999 19.1046 13.9999 18H9.99994ZM11.9999 4C8.68626 4.00005 5.99994 6.68634 5.99994 10V16H17.9999V10C17.9999 6.68631 15.3137 4 11.9999 4Z" fill="black"/>
</svg>
