<svg width="24" height="24" viewBox="0 0 24 24" fill="none" xmlns="http://www.w3.org/2000/svg">
<path d="M6.00003 11.3281V16H10.6719L12.6719 18H10C10 19.1046 10.8955 20 12 20C12.7247 20 13.3572 19.6132 13.708 19.0361L15.1436 20.4717C14.4112 21.4019 13.2758 22 12 22C9.79089 22 8.00003 20.2091 8.00003 18H4.00003C3.44775 18 3.00003 17.5523 3.00003 17C3.00003 16.4477 3.44775 16 4.00003 16V10C4.00003 9.78298 4.01042 9.56812 4.02737 9.35547L6.00003 11.3281ZM12 2C16.4183 2.00002 20 5.58172 20 10V16C20.5523 16 21 16.4477 21 17C21 17.5523 20.5523 18 20 18H19.4141L21.7071 20.293C22.0976 20.6835 22.0976 21.3165 21.7071 21.707C21.3165 22.0975 20.6835 22.0975 20.293 21.707L2.293 3.70703C1.90248 3.31651 1.90248 2.68349 2.293 2.29297C2.68353 1.90246 3.31654 1.90245 3.70706 2.29297L6.0596 4.64551C7.52372 3.02209 9.6418 2.00003 12 2ZM12 4C10.1941 4.00003 8.57467 4.79812 7.47464 6.06055L17.4141 16H18V10C18 6.68632 15.3137 4.00002 12 4Z" fill="black"/>
</svg>
