<svg width="24" height="24" viewBox="0 0 24 24" fill="none" xmlns="http://www.w3.org/2000/svg">
<path d="M7.41406 3.11093C7.90445 2.85789 8.50715 3.05046 8.76074 3.54062C9.01431 4.03117 8.82251 4.63461 8.33203 4.88828C5.75695 6.21951 4.00015 8.9053 4 11.9996C4 14.9974 5.64852 17.6122 8.09277 18.983L8.33203 19.1109L8.4209 19.1627C8.84504 19.4397 8.99822 19.9988 8.76074 20.4586C8.52298 20.9185 7.97829 21.1163 7.50684 20.9303L7.41406 20.8883L7.11523 20.7271C4.06483 19.0163 2 15.7499 2 11.9996C2.00015 8.12842 4.20071 4.77206 7.41406 3.11093ZM15.2393 3.54062C15.4771 3.08095 16.0218 2.88303 16.4932 3.06894L16.5859 3.11093L16.8848 3.27206C19.9352 4.98278 21.9999 8.24945 22 11.9996C22 15.8709 19.7993 19.2271 16.5859 20.8883C16.0954 21.1415 15.4928 20.949 15.2393 20.4586C14.9859 19.968 15.1775 19.3645 15.668 19.1109C18.2431 17.7796 20 15.094 20 11.9996C19.9999 9.00194 18.3515 6.38693 15.9072 5.0162L15.668 4.88828L15.5791 4.83652C15.155 4.55937 15.0016 4.00041 15.2393 3.54062ZM8.78906 5.77792C9.27964 5.52434 9.88309 5.71706 10.1367 6.20761C10.3902 6.69816 10.1985 7.30164 9.70801 7.55527C8.09765 8.38774 7.00016 10.0662 7 11.9996C7 13.9331 8.09755 15.6124 9.70801 16.4449C10.1984 16.6986 10.3903 17.302 10.1367 17.7926C9.88306 18.2831 9.27963 18.4749 8.78906 18.2213C6.54059 17.0588 5 14.7098 5 11.9996C5.00016 9.28943 6.54054 6.94032 8.78906 5.77792ZM13.8633 6.20761C14.1169 5.71706 14.7204 5.52434 15.2109 5.77792C17.4595 6.94032 18.9998 9.28943 19 11.9996C19 14.7098 17.4594 17.0588 15.2109 18.2213C14.7204 18.4749 14.1169 18.2831 13.8633 17.7926C13.6097 17.302 13.8016 16.6986 14.292 16.4449C15.9024 15.6124 17 13.9331 17 11.9996C16.9998 10.0662 15.9024 8.38774 14.292 7.55527C13.8015 7.30164 13.6098 6.69816 13.8633 6.20761ZM12 8.9996C13.6567 8.9996 14.9998 10.3429 15 11.9996C15 13.6565 13.6569 14.9996 12 14.9996C10.3431 14.9996 9 13.6565 9 11.9996C9.00021 10.3429 10.3433 8.9996 12 8.9996ZM12 10.9996C11.4478 10.9996 11.0002 11.4475 11 11.9996C11 12.5519 11.4477 12.9996 12 12.9996C12.5523 12.9996 13 12.5519 13 11.9996C12.9998 11.4475 12.5522 10.9996 12 10.9996Z" fill="black"/>
</svg>
