<svg width="24" height="24" viewBox="0 0 24 24" fill="none" xmlns="http://www.w3.org/2000/svg">
<path d="M0.232533 10.0406C0.916188 7.15934 3.21127 4.88489 6.09709 4.21943C8.47136 3.67224 10.725 4.1824 12.4811 5.37208C11.5605 6.44211 10.7963 8.08229 9.93742 10.5871C9.41628 9.87366 8.51388 9.45642 7.52748 9.64499C6.58806 9.82464 5.82932 10.5792 5.64692 11.5183C5.34829 13.0549 6.51708 14.3999 7.99994 14.3999C8.00199 14.3999 8.00405 14.3999 8.00645 14.3999C8.26702 14.3996 8.51696 14.3564 8.75148 14.2792L6.97308 19.9318C2.42338 19.3482 -0.931464 14.9464 0.232533 10.0406ZM16.992 10.0002C19.0248 10.5851 21.4241 10.0002 21.4241 10.0002C20.7278 13.0402 18.5198 14.944 15.3357 15.1758C14.0736 18.1047 11.1895 20.0017 7.99994 20L10.3999 12.372C12.8671 4.53142 14.1319 4.00035 19.9828 4.00035H24C23.328 6.96015 21.012 9.22123 16.992 10.0002Z" fill="black"/>
</svg>
