<svg width="24" height="24" viewBox="0 0 24 24" fill="none" xmlns="http://www.w3.org/2000/svg">
<path d="M9 7C9.55228 7 10 7.44772 10 8C10 8.55228 9.55228 9 9 9H7C5.89543 9 5 9.89543 5 11V17L5.01074 17.2041C5.11301 18.2128 5.96435 19 7 19H13C14.1046 19 15 18.1046 15 17V15C15 14.4477 15.4477 14 16 14C16.5523 14 17 14.4477 17 15V17C17 19.2091 15.2091 21 13 21H7C4.85997 21 3.11212 19.3194 3.00488 17.2061L3 17V11C3 8.79086 4.79086 7 7 7H9ZM18 3C19.6569 3 21 4.34315 21 6V9C21 9.55228 20.5523 10 20 10C19.4477 10 19 9.55228 19 9V6.41406L12.707 12.707C12.3165 13.0976 11.6835 13.0976 11.293 12.707C10.9024 12.3165 10.9024 11.6835 11.293 11.293L17.5859 5H15C14.4477 5 14 4.55228 14 4C14 3.44772 14.4477 3 15 3H18Z" fill="black"/>
</svg>
