<svg width="24" height="24" viewBox="0 0 24 24" fill="none" xmlns="http://www.w3.org/2000/svg">
<path d="M9 3C9.55228 3 10 3.44772 10 4C10 4.55228 9.55228 5 9 5H7C5.89543 5 5 5.89543 5 7V17C5 18.1046 5.89543 19 7 19H17C18.1046 19 19 18.1046 19 17V15C19 14.4477 19.4477 14 20 14C20.5523 14 21 14.4477 21 15V17C21 19.2091 19.2091 21 17 21H7C4.79086 21 3 19.2091 3 17V7C3 4.79086 4.79086 3 7 3H9ZM18 3C19.6569 3 21 4.34315 21 6V9C21 9.55228 20.5523 10 20 10C19.4477 10 19 9.55228 19 9V6.41406L12.707 12.707C12.3165 13.0976 11.6835 13.0976 11.293 12.707C10.9024 12.3165 10.9024 11.6835 11.293 11.293L17.5859 5H15C14.4477 5 14 4.55228 14 4C14 3.44772 14.4477 3 15 3H18Z" fill="black"/>
</svg>
