<svg width="24" height="24" viewBox="0 0 24 24" fill="none" xmlns="http://www.w3.org/2000/svg">
<path d="M18 4C20.2091 4 22 5.79086 22 8V13.6826C22.6317 14.6329 23 15.7734 23 17C23 20.3137 20.3137 23 17 23C14.7795 23 12.8422 21.7929 11.8047 20H6C3.79086 20 2 18.2091 2 16V8C2 5.79086 3.79086 4 6 4H18ZM17 13C14.7909 13 13 14.7909 13 17C13 19.2091 14.7909 21 17 21C19.2091 21 21 19.2091 21 17C21 14.7909 19.2091 13 17 13ZM17 14C17.5523 14 18 14.4477 18 15V16.7793L18.8164 17.0518L18.9111 17.0889C19.3735 17.2968 19.612 17.8251 19.4482 18.3164C19.2735 18.8402 18.7074 19.1229 18.1836 18.9482L16.6836 18.4482C16.2754 18.312 16 17.9303 16 17.5V15C16 14.4477 16.4477 14 17 14ZM4 11V16C4 17.1046 4.89543 18 6 18H11.085C11.0304 17.6747 11 17.3408 11 17C11 13.6863 13.6863 11 17 11C18.093 11 19.1174 11.293 20 11.8037V11H4ZM6 6C4.89543 6 4 6.89543 4 8V9H20V8C20 6.89543 19.1046 6 18 6H6Z" fill="black"/>
</svg>
