<svg width="24" height="24" viewBox="0 0 24 24" fill="none" xmlns="http://www.w3.org/2000/svg">
<path d="M9 2C10.1046 2 11 2.89543 11 4H18C20.2091 4 22 5.79086 22 8V16C22 18.2091 20.2091 20 18 20H6C3.79086 20 2 18.2091 2 16V8C2 6.13616 3.27477 4.57002 5 4.12598V4C5 2.89543 5.89543 2 7 2H9ZM6 6C4.89543 6 4 6.89543 4 8V16C4 17.1046 4.89543 18 6 18H8.39355C6.36026 16.7752 5 14.5467 5 12C5 9.45333 6.36026 7.22479 8.39355 6H6ZM15.6064 6C17.6397 7.22479 19 9.45333 19 12C19 14.5467 17.6397 16.7752 15.6064 18H18C19.1046 18 20 17.1046 20 16V8C20 6.89543 19.1046 6 18 6H15.6064ZM12 7C9.23858 7 7 9.23858 7 12C7 14.7614 9.23858 17 12 17C14.7614 17 17 14.7614 17 12C17 9.23858 14.7614 7 12 7ZM12 8C12.5523 8 13 8.44772 13 9C13 9.55228 12.5523 10 12 10C10.8954 10 10 10.8954 10 12C10 12.5523 9.55228 13 9 13C8.44772 13 8 12.5523 8 12C8 9.79086 9.79086 8 12 8Z" fill="black"/>
</svg>
