<svg width="24" height="24" viewBox="0 0 24 24" fill="none" xmlns="http://www.w3.org/2000/svg">
<path d="M12 2C12.5523 2 13 2.44772 13 3V11H21C21.5523 11 22 11.4477 22 12C22 17.5228 17.5228 22 12 22C6.47715 22 2 17.5228 2 12C2 6.47715 6.47715 2 12 2ZM11 4.06348C7.05378 4.55566 4 7.92045 4 12C4 16.4183 7.58172 20 12 20C16.0795 20 19.4433 16.9462 19.9355 13H12C11.4477 13 11 12.5523 11 12V4.06348ZM15.1045 3.49023C15.3504 2.99583 15.9508 2.79429 16.4453 3.04004C18.3988 4.01093 19.9891 5.60115 20.96 7.55469C21.2057 8.04918 21.0042 8.64965 20.5098 8.89551C20.0153 9.14125 19.4148 8.93972 19.1689 8.44531C18.3921 6.88209 17.1179 5.60791 15.5547 4.83105C15.0603 4.58521 14.8588 3.98474 15.1045 3.49023Z" fill="black"/>
</svg>
