<svg width="24" height="24" viewBox="0 0 24 24" fill="none" xmlns="http://www.w3.org/2000/svg">
<g clip-path="url(#clip0_405_7463)">
<path d="M4.18365 3.28992C5.83773 2.463 7.8204 2.88334 9.00104 4.25281C9.64072 4.08812 10.3107 3.99988 11.0001 3.99988H13.0001C17.0794 3.9999 20.4432 7.05393 20.9356 10.9999H21.3819L22.1055 9.55261C22.3526 9.05872 22.9534 8.85839 23.4473 9.10535C23.9413 9.35232 24.1415 9.95319 23.8946 10.4471L23.3526 11.5302C23.7495 11.8956 24 12.4178 24.0001 12.9999V13.2362C23.9999 14.2102 23.2104 14.9997 22.2364 14.9999C21.5614 14.9999 21.0104 14.6337 20.713 14.119C20.2601 15.7665 19.295 17.2004 18.0001 18.2391V20.9999C18.0001 21.5521 17.5523 21.9999 17.0001 21.9999H15.0001C14.6213 21.9999 14.2749 21.7859 14.1055 21.4471L13.378 19.9891C13.2532 19.9953 13.1272 19.9999 13.0001 19.9999H11.0001C10.8736 19.9999 10.7483 19.9952 10.6241 19.9891L9.89459 21.4471C9.72521 21.7859 9.37882 21.9999 9.00006 21.9999H7.00006C6.44778 21.9999 6.00006 21.5522 6.00006 20.9999V18.2401C5.30535 17.6832 4.70557 17.0129 4.22858 16.2557L2.8194 16.0555H2.81842C2.20782 15.9683 1.67514 15.587 1.39752 15.0321L1.28522 14.7889C0.795466 13.6439 0.799823 12.3434 1.28912 11.202L1.40143 10.9598L1.51373 10.7655C1.80041 10.3304 2.2583 10.026 2.78229 9.93835L3.29596 9.85242C3.54751 8.9471 3.95336 8.10644 4.48444 7.36121L3.1319 4.99597C2.99569 4.75742 2.96344 4.47277 3.04303 4.20984C3.12278 3.94708 3.30717 3.72816 3.5528 3.60535L4.18365 3.28992ZM7.63678 5.75769C7.14429 5.01946 6.23523 4.70593 5.40924 4.9491L6.5528 6.95105C6.76241 7.31788 6.71825 7.77667 6.44342 8.09753C5.76838 8.88498 5.29627 9.84905 5.10162 10.91C5.02553 11.3242 4.69767 11.6464 4.28229 11.7157L3.16901 11.9012C2.8411 12.5916 2.83915 13.396 3.16217 14.0829L4.98541 14.3436C5.2984 14.3882 5.57268 14.5786 5.72369 14.8563C6.17058 15.6795 6.80613 16.387 7.57233 16.9218C7.84022 17.1087 7.99992 17.4154 8.00006 17.7421V19.9999H8.3819L9.13971 18.4843C9.30755 18.1489 9.64632 17.9393 10.0128 17.9315L10.171 17.9413C10.4463 17.9793 10.7227 17.9999 11.0001 17.9999H13.0001C13.278 17.9999 13.5548 17.9793 13.8301 17.9413C14.2016 17.89 14.5657 18.0508 14.7794 18.3485L14.8614 18.4843L15.6182 19.9999H16.0001V17.7421C16.0002 17.4154 16.1599 17.1087 16.4278 16.9218C17.887 15.9032 18.871 14.2585 18.9883 12.3788L19.0001 11.9999C18.9998 8.68638 16.3136 5.9999 13.0001 5.99988H11.0001C10.2797 5.99988 9.59067 6.12698 8.95319 6.35828C8.52062 6.51504 8.03705 6.35599 7.78131 5.97351L7.63776 5.75867L7.63678 5.75769ZM8.00006 9.99988C8.55229 9.9999 9 10.4477 9.00006 10.9999C9.00006 11.5521 8.55233 11.9999 8.00006 11.9999H7.9903C7.43801 11.9999 6.9903 11.5522 6.9903 10.9999C6.99036 10.4476 7.43805 9.99988 7.9903 9.99988H8.00006ZM13.0001 6.99988C13.9598 6.99989 14.8422 7.33948 15.5313 7.9032L15.6671 8.01843L15.7393 8.0907C16.081 8.4651 16.0904 9.04467 15.7452 9.43054C15.3769 9.84207 14.7446 9.87699 14.3331 9.50867C13.9786 9.19149 13.5128 8.99989 13.0001 8.99988H11.0001C10.4478 8.99988 10.0001 8.55216 10.0001 7.99988C10.0001 7.44765 10.4478 6.99988 11.0001 6.99988H13.0001Z" fill="black"/>
</g>
<defs>
<clipPath id="clip0_405_7463">
<rect width="24" height="24" fill="white"/>
</clipPath>
</defs>
</svg>
