<svg width="24" height="24" viewBox="0 0 24 24" fill="none" xmlns="http://www.w3.org/2000/svg">
<path d="M14.2926 3.29303C14.6831 2.90255 15.3161 2.90265 15.7067 3.29303L20.7067 8.29303L20.775 8.3692C21.0954 8.76198 21.0728 9.34098 20.7067 9.70709C20.4253 9.98834 20.0184 10.0656 19.6666 9.94147L14.4537 16.8956L13.9899 20.1417C13.9362 20.5164 13.6752 20.8285 13.316 20.9483C12.9568 21.0679 12.5604 20.9748 12.2926 20.7071L8.49964 16.9141L5.20667 20.2071C4.81613 20.5974 4.18307 20.5975 3.79261 20.2071C3.4023 19.8166 3.40234 19.1835 3.79261 18.793L7.08558 15.5001L3.29261 11.7071C3.02493 11.4393 2.93172 11.0429 3.0514 10.6837C3.1712 10.3246 3.48339 10.0635 3.85804 10.0098L7.10413 9.54596L14.0573 4.33209C13.9337 3.98063 14.0117 3.57411 14.2926 3.29303ZM8.30433 11.1465C8.03551 11.348 7.71991 11.4789 7.38734 11.5264L6.12074 11.7071L12.2916 17.878L12.4733 16.6124C12.5208 16.2798 12.6517 15.9642 12.8532 15.6954L18.1793 8.59381L15.4049 5.8194L8.30433 11.1465Z" fill="black"/>
</svg>
