<svg width="24" height="24" viewBox="0 0 24 24" fill="none" xmlns="http://www.w3.org/2000/svg">
<path d="M12 2C16.9598 2 21 5.97806 21 10.9092C21 13.8711 19.435 15.9501 17.6924 17.624C16.8306 18.4518 15.8722 19.2288 15.0234 19.9521C14.153 20.694 13.379 21.3942 12.7734 22.1338C12.5835 22.3656 12.2997 22.5 12 22.5C11.7003 22.5 11.4165 22.3656 11.2266 22.1338C10.621 21.3942 9.84699 20.694 8.97656 19.9521C8.12785 19.2288 7.16939 18.4518 6.30762 17.624C4.56497 15.9501 3.00001 13.8711 3 10.9092C3 5.97806 7.04024 2 12 2ZM12 4C8.12321 4 5 7.1041 5 10.9092C5.00001 13.0649 6.10171 14.6537 7.69238 16.1816C8.49712 16.9546 9.37235 17.6617 10.2734 18.4297C10.8608 18.9303 11.4539 19.4533 12 20.0098C12.5461 19.4533 13.1392 18.9303 13.7266 18.4297C14.6276 17.6617 15.5029 16.9546 16.3076 16.1816C17.8983 14.6537 19 13.0649 19 10.9092C19 7.1041 15.8768 4 12 4ZM12 8C13.6569 8 15 9.34315 15 11C15 12.6569 13.6569 14 12 14C10.3431 14 9 12.6569 9 11C9 9.34315 10.3431 8 12 8ZM12 10C11.4477 10 11 10.4477 11 11C11 11.5523 11.4477 12 12 12C12.5523 12 13 11.5523 13 11C13 10.4477 12.5523 10 12 10Z" fill="black"/>
</svg>
