<svg width="24" height="24" viewBox="0 0 24 24" fill="none" xmlns="http://www.w3.org/2000/svg">
<path d="M12 2C17.5228 2 22 6.47715 22 12C22 17.5228 17.5228 22 12 22C6.47715 22 2 17.5228 2 12C2 6.47715 6.47715 2 12 2ZM12 4C9.90216 4 7.9932 4.8078 6.56641 6.12891C6.69994 6.25701 6.87891 6.33301 7.07031 6.33301H8.32324C8.46311 6.33301 8.57714 6.21995 8.57715 6.08008C8.57715 5.89094 8.77681 5.76859 8.94531 5.85449L9.69238 6.23535C9.80651 6.29353 9.94537 6.27102 10.0352 6.17969L10.2588 5.95215C10.3612 5.84805 10.5379 5.92032 10.5381 6.06641C10.5381 6.18843 10.6677 6.26734 10.7764 6.21191L11.4902 5.84863C11.7022 5.7406 11.9594 5.78232 12.126 5.95215L12.1797 6.00684C12.3574 6.18834 12.3575 6.47871 12.1797 6.66016C11.9967 6.84675 11.6957 6.84675 11.5127 6.66016L11.4414 6.58789C11.289 6.43255 11.0615 6.37834 10.8555 6.44824L9.93066 6.7627C9.60669 6.87281 9.50943 7.28403 9.74902 7.52832C9.83562 7.61662 9.95445 7.66699 10.0781 7.66699H10.2051C10.3892 7.66699 10.5381 7.5171 10.5381 7.33301C10.5383 7.14906 10.6881 7 10.8721 7H11.0654C11.1486 7 11.2316 7.01987 11.3057 7.05762C11.749 7.28363 11.7094 7.93557 11.2383 8.0957L10.7178 8.27246C10.6 8.3125 10.4934 8.37991 10.4062 8.46875L8.87109 10.0332C8.68308 10.2249 8.42573 10.3329 8.15723 10.333H7.40918C7.31966 10.333 7.23358 10.3697 7.1709 10.4336C6.96453 10.6445 7.11394 11 7.40918 11H7.53613C7.74971 11 7.92285 11.1731 7.92285 11.3867V11.4131C7.92285 11.5684 8.01021 11.7106 8.14844 11.7812L8.77637 12.1016C9.06162 12.247 9.39929 12.2469 9.68457 12.1016L9.88477 12C10.2739 11.8018 10.7469 11.8787 11.0527 12.1904L11.123 12.2627C11.1692 12.3098 11.2199 12.3526 11.2744 12.3896L12.7158 13.3691C12.9897 13.5553 13.1543 13.8651 13.1543 14.1963V14.5918C13.1542 14.8535 13.0514 15.1051 12.8682 15.292L11.4727 16.7139C11.293 16.8971 11.1924 17.1438 11.1924 17.4004V17.8691C11.1924 18.3865 10.6455 18.7213 10.1846 18.4863C9.99524 18.3897 9.86033 18.2115 9.81934 18.0029L9.28809 15.2939C9.25049 15.1023 9.15818 14.9256 9.02148 14.7861L8.20898 13.958C8.02578 13.7711 7.92285 13.5196 7.92285 13.2578V12.8623C7.92271 12.5314 7.75895 12.2222 7.48535 12.0361L6.18066 11.1484C6.03718 11.0509 5.92113 10.9175 5.84473 10.7617L5.52832 10.1172C5.39293 9.84153 5.1128 9.66704 4.80566 9.66699C4.65072 9.66699 4.50662 9.62171 4.38379 9.5459C4.13479 10.3192 4 11.1439 4 12C4 16.4183 7.58172 20 12 20C14.6329 20 16.9679 18.7275 18.4258 16.7646C18.3523 16.7571 18.2786 16.7415 18.2061 16.7168L18.1533 16.6992C17.5826 16.505 17.3127 15.8538 17.5781 15.3125L17.6289 15.208C17.696 15.0711 17.7305 14.9201 17.7305 14.7676V14.7422C17.7305 14.4803 17.6277 14.2289 17.4443 14.042L17.2637 13.8574C17.1439 13.7353 17.0771 13.5705 17.0771 13.3994C17.0769 12.9118 16.5615 12.596 16.127 12.8174L16.0801 12.8418C15.8847 12.9412 15.6533 12.9413 15.458 12.8418L15.0078 12.6113C14.6729 12.4406 14.4619 12.0967 14.4619 11.7207V11.2324C14.4619 11.0799 14.4964 10.929 14.5635 10.792L14.8408 10.2266C15.0087 9.88413 15.3569 9.66718 15.7383 9.66699H16.8369C16.9947 9.66702 17.1504 9.70373 17.291 9.77539L18.1152 10.1963C18.2845 10.2824 18.4851 10.2825 18.6543 10.1963C19.0865 9.97593 19.0865 9.35806 18.6543 9.1377L17.6064 8.60352C17.2915 8.44296 16.9087 8.50544 16.6611 8.75781L16.5605 8.86035C16.4729 8.94972 16.3527 8.99987 16.2275 9H15.9893C15.6641 8.99999 15.4998 8.60815 15.7275 8.37598C15.7553 8.34776 15.787 8.32364 15.8223 8.30566L16.6611 7.87891C16.8417 7.78681 16.8984 7.56422 16.8008 7.39941L16.6992 7.2666C16.6021 7.10188 16.6586 6.88013 16.8389 6.78809L17.5352 6.43359C17.5839 6.40878 17.6345 6.38873 17.6865 6.37305C16.2365 4.90779 14.2243 4 12 4Z" fill="black"/>
</svg>
