<svg width="24" height="24" viewBox="0 0 24 24" fill="none" xmlns="http://www.w3.org/2000/svg">
<path d="M12 2C17.5228 2 22 6.47715 22 12C22 17.5228 17.5228 22 12 22C6.47715 22 2 17.5228 2 12C2 6.47715 6.47715 2 12 2ZM12 4C7.58172 4 4 7.58172 4 12C4 16.4183 7.58172 20 12 20C16.4183 20 20 16.4183 20 12C20 7.58172 16.4183 4 12 4ZM10 9.89258C10.0002 9.27529 10.6699 8.89108 11.2031 9.20215L14.8154 11.3086C15.3446 11.6173 15.3446 12.3827 14.8154 12.6914L11.2031 14.7979C10.6699 15.1089 10.0002 14.7247 10 14.1074V9.89258Z" fill="black"/>
</svg>
