<svg width="24" height="24" viewBox="0 0 24 24" fill="none" xmlns="http://www.w3.org/2000/svg">
<path d="M14.4121 2.19131C14.7637 1.93576 15.2401 1.93656 15.5909 2.19327C15.9414 2.45005 16.0857 2.90402 15.9483 3.31631L14.208 8.53799L19.1534 11.3642C20.4134 12.0842 20.5106 13.865 19.3369 14.7187L9.58792 21.8085C9.23636 22.0641 8.75995 22.0633 8.40921 21.8065C8.05862 21.5497 7.91435 21.0958 8.05179 20.6835L9.79202 15.4618L4.84671 12.6357C3.58663 11.9156 3.48939 10.1348 4.66312 9.28116L14.4121 2.19131ZM5.8389 10.8993L10.7842 13.7245C11.6119 14.1975 11.9908 15.1893 11.6895 16.0937L10.9346 18.3554L18.1612 13.1005L13.2159 10.2753C12.3882 9.80233 12.0092 8.81054 12.3106 7.90616L13.0645 5.64346L5.8389 10.8993Z" fill="black"/>
</svg>
