<svg width="24" height="24" viewBox="0 0 24 24" fill="none" xmlns="http://www.w3.org/2000/svg">
<path d="M16.8799 4.37109C17.2273 3.94181 17.8568 3.87537 18.2861 4.22266C20.5497 6.05432 22 8.85817 22 12C22 17.5228 17.5228 22 12 22C6.47715 22 2 17.5228 2 12C2 8.85817 3.45032 6.05432 5.71387 4.22266C6.14319 3.87537 6.77274 3.94181 7.12012 4.37109C7.46742 4.80042 7.40097 5.42997 6.97168 5.77734C5.15723 7.24559 4 9.4873 4 12C4 16.4183 7.58172 20 12 20C16.4183 20 20 16.4183 20 12C20 9.64423 18.9827 7.52681 17.3604 6.06152L17.0283 5.77734L16.9521 5.70898C16.5924 5.35201 16.5543 4.77359 16.8799 4.37109ZM12 2C12.5523 2 13 2.44772 13 3V11C13 11.5523 12.5523 12 12 12C11.4477 12 11 11.5523 11 11V3C11 2.44772 11.4477 2 12 2Z" fill="black"/>
</svg>
