<svg width="24" height="24" viewBox="0 0 24 24" fill="none" xmlns="http://www.w3.org/2000/svg">
<path d="M18 4C20.2091 4 22 5.79086 22 8V16C22 18.2091 20.2091 20 18 20H6C3.79086 20 2 18.2091 2 16V8C2 5.79086 3.79086 4 6 4H18ZM8.60156 16C7.60652 16.0002 6.76297 16.7318 6.62207 17.7168L6.58203 18H11.418L11.3779 17.7168C11.237 16.7318 10.3935 16.0002 9.39844 16H8.60156ZM6 6C4.89543 6 4 6.89543 4 8V16C4 16.5774 4.24636 17.0959 4.6377 17.4609L4.6416 17.4346C4.9231 15.4641 6.6111 14.0002 8.60156 14H9.39844C11.3889 14.0002 13.0769 15.4641 13.3584 17.4346L13.4395 18H18C19.1046 18 20 17.1046 20 16V8C20 6.89543 19.1046 6 18 6H6ZM17 14C17.5523 14 18 14.4477 18 15C18 15.5523 17.5523 16 17 16H16.5C15.9477 16 15.5 15.5523 15.5 15C15.5 14.4477 15.9477 14 16.5 14H17ZM9 7C10.6569 7 12 8.34315 12 10C12 11.6569 10.6569 13 9 13C7.34315 13 6 11.6569 6 10C6 8.34315 7.34315 7 9 7ZM17 11C17.5523 11 18 11.4477 18 12C18 12.5523 17.5523 13 17 13H15C14.4477 13 14 12.5523 14 12C14 11.4477 14.4477 11 15 11H17ZM9 9C8.44772 9 8 9.44772 8 10C8 10.5523 8.44772 11 9 11C9.55228 11 10 10.5523 10 10C10 9.44772 9.55228 9 9 9ZM17 8C17.5523 8 18 8.44772 18 9C18 9.55228 17.5523 10 17 10H15C14.4477 10 14 9.55228 14 9C14 8.44772 14.4477 8 15 8H17Z" fill="black"/>
</svg>
