<svg width="24" height="24" viewBox="0 0 24 24" fill="none" xmlns="http://www.w3.org/2000/svg">
<path d="M19 3C19.5523 3 20 3.44772 20 4C20 4.55228 19.5523 5 19 5H18.4512L18.1846 7.39062C18.0321 8.76225 17.3198 10.0098 16.2158 10.8379L14.667 12L16.2158 13.1621C17.3198 13.9902 18.0321 15.2377 18.1846 16.6094L18.4512 19H19L19.1025 19.0049C19.6067 19.0562 20 19.4823 20 20C20 20.5177 19.6067 20.9438 19.1025 20.9951L19 21H5C4.44773 21 4 20.5523 4 20C4 19.4477 4.44773 19 5 19H5.54883L5.81543 16.6094C5.96789 15.2377 6.6802 13.9902 7.78418 13.1621L9.33301 12L7.78418 10.8379C6.6802 10.0098 5.96789 8.76225 5.81543 7.39062L5.54883 5H5C4.44772 5 4 4.55228 4 4C4 3.44772 4.44772 3 5 3H19ZM7.80273 7.16992C7.89426 7.99289 8.32194 8.74144 8.98438 9.23828L11.5996 11.2002C11.8514 11.389 12 11.6852 12 12C12 12.3148 11.8514 12.611 11.5996 12.7998L8.98438 14.7617C8.32194 15.2586 7.89426 16.0071 7.80273 16.8301L7.56152 19H16.4385L16.1973 16.8301C16.1057 16.0071 15.6781 15.2586 15.0156 14.7617L12.4004 12.7998C12.1486 12.611 12 12.3148 12 12C12 11.6852 12.1486 11.389 12.4004 11.2002L15.0156 9.23828C15.6781 8.74144 16.1057 7.99289 16.1973 7.16992L16.4385 5H7.56152L7.80273 7.16992Z" fill="black"/>
</svg>
