<svg width="24" height="24" viewBox="0 0 24 24" fill="none" xmlns="http://www.w3.org/2000/svg">
<path d="M16.6816 3.21773C17.1301 1.34869 19.9998 1.61597 20 3.64351V9.17378C21.1647 9.58589 22 10.6941 22 12C22 13.3057 21.1645 14.4129 20 14.8251V20.3564C19.9999 22.4494 16.9426 22.6666 16.6465 20.5947C16.6113 20.3482 16.4495 20.1381 16.2207 20.04L14.3047 19.2187L13.6865 19.9921C12.8759 21.0053 11.506 21.3823 10.291 20.9267L8.94629 20.4228C7.77566 19.9837 7.00011 18.8645 7 17.6142V16.0869L6.7959 16H5C3.34315 16 2 14.6568 2 13V11C2.00003 9.34312 3.34316 7.99995 5 7.99995H6.7959L16.2207 3.95992C16.4495 3.86184 16.6113 3.65169 16.6465 3.40523L16.6816 3.21773ZM9 17.6142C9.00011 18.0309 9.25836 18.4043 9.64844 18.5507L10.9932 19.0546C11.398 19.2064 11.8548 19.0806 12.125 18.7431L12.3975 18.4013L9 16.9443V17.6142ZM18 5.06929C17.7338 5.38001 17.3972 5.63233 17.0088 5.79878L8 9.65816V14.3408L17.0088 18.2011C17.3969 18.3675 17.7339 18.6192 18 18.9296V5.06929ZM5 9.99995C4.44773 9.99995 4.00003 10.4477 4 11V13C4 13.5522 4.44772 14 5 14H6V9.99995H5Z" fill="black"/>
</svg>
