<svg width="24" height="24" viewBox="0 0 24 24" fill="none" xmlns="http://www.w3.org/2000/svg">
<path d="M9.2041 13.0107C10.2128 13.113 11 13.9643 11 15V19C11 20.1046 10.1046 21 9 21H5C3.96435 21 3.113 20.2128 3.01074 19.2041L3 19V15C3 13.8954 3.89543 13 5 13H9L9.2041 13.0107ZM14.0098 19C14.5621 19 15.0098 19.4477 15.0098 20C15.0098 20.5523 14.5621 21 14.0098 21H14C13.4477 21 13 20.5523 13 20C13 19.4477 13.4477 19 14 19H14.0098ZM20 16C20.5523 16 21 16.4477 21 17V19C21 20.1046 20.1046 21 19 21H17C16.4477 21 16 20.5523 16 20C16 19.4477 16.4477 19 17 19H19V17C19 16.4477 19.4477 16 20 16ZM5 19H9V15H5V19ZM7.00977 16C7.56205 16 8.00977 16.4477 8.00977 17C8.00977 17.5523 7.56205 18 7.00977 18H7C6.44772 18 6 17.5523 6 17C6 16.4477 6.44772 16 7 16H7.00977ZM17 13C17.5523 13 18 13.4477 18 14C18 14.5523 17.5523 15 17 15H15V17C15 17.5523 14.5523 18 14 18C13.4477 18 13 17.5523 13 17V15C13 13.8954 13.8954 13 15 13H17ZM17.0098 16C17.5621 16 18.0098 16.4477 18.0098 17C18.0098 17.5523 17.5621 18 17.0098 18H17C16.4477 18 16 17.5523 16 17C16 16.4477 16.4477 16 17 16H17.0098ZM20.0098 13C20.562 13 21.0098 13.4477 21.0098 14C21.0098 14.5523 20.562 15 20.0098 15H20C19.4477 15 19 14.5523 19 14C19 13.4477 19.4477 13 20 13H20.0098ZM9.2041 3.01074C10.2128 3.113 11 3.96435 11 5V9C11 10.1046 10.1046 11 9 11H5C3.96435 11 3.113 10.2128 3.01074 9.2041L3 9V5C3 3.89543 3.89543 3 5 3H9L9.2041 3.01074ZM19.2041 3.01074C20.2128 3.113 21 3.96435 21 5V9C21 10.1046 20.1046 11 19 11H15C13.9643 11 13.113 10.2128 13.0107 9.2041L13 9V5C13 3.89543 13.8954 3 15 3H19L19.2041 3.01074ZM5 9H9V5H5V9ZM15 9H19V5H15V9ZM7.00977 6C7.56205 6 8.00977 6.44772 8.00977 7C8.00977 7.55228 7.56205 8 7.00977 8H7C6.44772 8 6 7.55228 6 7C6 6.44772 6.44772 6 7 6H7.00977ZM17.0098 6C17.5621 6 18.0098 6.44772 18.0098 7C18.0098 7.55228 17.5621 8 17.0098 8H17C16.4477 8 16 7.55228 16 7C16 6.44772 16.4477 6 17 6H17.0098Z" fill="black"/>
</svg>
