<svg width="24" height="24" viewBox="0 0 24 24" fill="none" xmlns="http://www.w3.org/2000/svg">
<path d="M12 2C17.5228 2 22 6.47715 22 12C22 17.5228 17.5228 22 12 22C6.47715 22 2 17.5228 2 12C2 6.47715 6.47715 2 12 2ZM12 4C7.58172 4 4 7.58172 4 12C4 16.4183 7.58172 20 12 20C16.4183 20 20 16.4183 20 12C20 7.58172 16.4183 4 12 4ZM12 16C12.5523 16 13 16.4477 13 17C13 17.5523 12.5523 18 12 18C11.4477 18 11 17.5523 11 17C11 16.4477 11.4477 16 12 16ZM12.0684 6C14.2395 6 16 7.76048 16 9.93164C15.9999 11.2459 15.3426 12.4731 14.249 13.2021L12.998 14.0361C12.979 14.5717 12.5402 15 12 15C11.4477 15 11 14.5523 11 14C11 13.3533 11.3232 12.7494 11.8613 12.3906L13.1396 11.5381C13.6768 11.18 13.9999 10.5772 14 9.93164C14 8.86505 13.135 8 12.0684 8H12C10.8954 8 10 8.89543 10 10C10 10.5523 9.55228 11 9 11C8.44772 11 8 10.5523 8 10C8 7.79086 9.79086 6 12 6H12.0684Z" fill="black"/>
</svg>
