<svg width="24" height="24" viewBox="0 0 24 24" fill="none" xmlns="http://www.w3.org/2000/svg">
<path d="M19 18.9997C19.5522 18.9997 19.9998 19.4475 20 19.9997C20 20.5519 19.5523 20.9997 19 20.9997H5L4.89746 20.9948C4.39335 20.9434 4 20.5173 4 19.9997C4.00017 19.4821 4.39344 19.0559 4.89746 19.0045L5 18.9997H19ZM19 14.9997C19.5522 14.9997 19.9998 15.4475 20 15.9997C20 16.5519 19.5523 16.9997 19 16.9997H5L4.89746 16.9948C4.39335 16.9434 4 16.5173 4 15.9997C4.00017 15.4821 4.39344 15.0559 4.89746 15.0045L5 14.9997H19ZM19 10.9997C19.5522 10.9997 19.9998 11.4475 20 11.9997C20 12.5519 19.5523 12.9997 19 12.9997H5L4.89746 12.9948C4.39335 12.9434 4 12.5173 4 11.9997C4.00017 11.4821 4.39344 11.0559 4.89746 11.0045L5 10.9997H19ZM19.3691 3.22427C19.7618 2.90413 20.341 2.92677 20.707 3.29263C21.0732 3.65882 21.0959 4.23873 20.7754 4.6315L20.707 4.7067L19.4141 5.99966L20.707 7.29361C21.0972 7.68416 21.0975 8.31726 20.707 8.70767C20.3166 9.09777 19.6834 9.09777 19.293 8.70767L18 7.41373L16.707 8.7067C16.3165 9.0972 15.6835 9.09718 15.293 8.7067C14.9027 8.31615 14.9025 7.68308 15.293 7.29263L16.585 5.99966L15.293 4.70767C14.9025 4.31722 14.9027 3.68318 15.293 3.29263C15.6835 2.90254 16.3166 2.90241 16.707 3.29263L18 4.5856L19.293 3.29263L19.3691 3.22427ZM12 2.99966C12.5522 2.99966 12.9998 3.44753 13 3.99966C13 4.55195 12.5523 4.99966 12 4.99966H6C5.44783 4.99966 5.00018 5.44753 5 5.99966C5 6.55195 5.44772 6.99966 6 6.99966H12C12.5522 6.99966 12.9998 7.44753 13 7.99966C13 8.55195 12.5523 8.99966 12 8.99966H6C4.34315 8.99966 3 7.65652 3 5.99966C3.00018 4.34297 4.34326 2.99966 6 2.99966H12Z" fill="black"/>
</svg>
