<svg width="24" height="24" viewBox="0 0 24 24" fill="none" xmlns="http://www.w3.org/2000/svg">
<path d="M19 19C19.5523 19 20 19.4477 20 20C20 20.5523 19.5523 21 19 21H5C4.44772 21 4 20.5523 4 20C4 19.4477 4.44772 19 5 19H19ZM19 15C19.5523 15 20 15.4477 20 16C20 16.5523 19.5523 17 19 17H5C4.44772 17 4 16.5523 4 16C4 15.4477 4.44772 15 5 15H19ZM19 11C19.5523 11 20 11.4477 20 12C20 12.5523 19.5523 13 19 13H5L4.89746 12.9951C4.39333 12.9438 4 12.5177 4 12C4 11.4823 4.39333 11.0562 4.89746 11.0049L5 11H19ZM18 3C19.6569 3 21 4.34315 21 6C21 7.65685 19.6569 9 18 9H6C4.34315 9 3 7.65685 3 6C3 4.34315 4.34315 3 6 3H18ZM6 5C5.44772 5 5 5.44772 5 6C5 6.55228 5.44772 7 6 7H18C18.5523 7 19 6.55228 19 6C19 5.44772 18.5523 5 18 5H6Z" fill="black"/>
</svg>
