<svg width="24" height="24" viewBox="0 0 24 24" fill="none" xmlns="http://www.w3.org/2000/svg">
<path d="M19 19C19.5523 19 20 19.4477 20 20C20 20.5523 19.5523 21 19 21H5L4.89746 20.9951C4.39333 20.9438 4 20.5177 4 20C4 19.4823 4.39333 19.0562 4.89746 19.0049L5 19H19ZM19 15C19.5523 15 20 15.4477 20 16C20 16.5523 19.5523 17 19 17H5L4.89746 16.9951C4.39333 16.9438 4 16.5177 4 16C4 15.4823 4.39333 15.0562 4.89746 15.0049L5 15H19ZM19 11C19.5523 11 20 11.4477 20 12C20 12.5523 19.5523 13 19 13H5L4.89746 12.9951C4.39333 12.9438 4 12.5177 4 12C4 11.4823 4.39333 11.0562 4.89746 11.0049L5 11H19ZM12 3C12.5523 3 13 3.44772 13 4C13 4.55228 12.5523 5 12 5H6C5.44772 5 5 5.44772 5 6C5 6.55228 5.44772 7 6 7H12C12.5523 7 13 7.44772 13 8C13 8.55228 12.5523 9 12 9H6C4.34315 9 3 7.65685 3 6C3 4.34315 4.34315 3 6 3H12ZM18 3C18.5523 3 19 3.44772 19 4V5H20C20.5523 5 21 5.44772 21 6C21 6.55228 20.5523 7 20 7H19V8C19 8.55228 18.5523 9 18 9C17.4477 9 17 8.55228 17 8V7H16C15.4477 7 15 6.55228 15 6C15 5.44772 15.4477 5 16 5H17V4C17 3.44772 17.4477 3 18 3Z" fill="black"/>
</svg>
