<svg width="24" height="24" viewBox="0 0 24 24" fill="none" xmlns="http://www.w3.org/2000/svg">
<path d="M19.1111 15.668C19.3647 15.1776 19.9683 14.9851 20.4588 15.2383C20.9493 15.4918 21.1418 16.0954 20.8885 16.5859C19.2273 19.7994 15.8712 22 11.9998 22C9.26809 21.9999 6.7941 20.9029 4.99005 19.1289C4.92662 19.6201 4.50827 20 3.99982 20C3.44771 19.9999 2.99995 19.5521 2.99982 19V16.127C2.99993 15.6659 3.31546 15.2643 3.76349 15.1553C4.21159 15.0463 4.6766 15.2584 4.88849 15.668C6.21979 18.243 8.90552 19.9999 11.9998 20C15.0942 20 17.7798 18.2431 19.1111 15.668ZM11.9998 6C12.5521 6 12.9998 6.44772 12.9998 7H13.9998C14.5521 7 14.9998 7.44772 14.9998 8C14.9998 8.55228 14.5521 9 13.9998 9H10.9998C10.4476 9.00011 9.99982 9.44779 9.99982 10C9.99982 10.5522 10.4476 10.9999 10.9998 11H12.9998C14.6567 11 15.9998 12.3431 15.9998 14C15.9998 15.6569 14.6567 17 12.9998 17C12.9998 17.5523 12.5521 18 11.9998 18C11.4476 17.9999 10.9998 17.5522 10.9998 17H9.99982C9.44763 16.9999 8.99982 16.5522 8.99982 16C8.99982 15.4478 9.44763 15.0001 9.99982 15H12.9998C13.5521 15 13.9998 14.5523 13.9998 14C13.9998 13.4477 13.5521 13 12.9998 13H10.9998C9.34306 12.9999 7.99982 11.6568 7.99982 10C7.99982 8.34322 9.34306 7.00011 10.9998 7C10.9998 6.44779 11.4476 6.00011 11.9998 6ZM11.9998 2C14.7316 2 17.2055 3.09704 19.0096 4.87109C19.073 4.37998 19.4915 4.0001 19.9998 4C20.552 4 20.9997 4.44783 20.9998 5V7.87305C20.9997 8.3342 20.6842 8.73574 20.2361 8.84473C19.7881 8.95357 19.323 8.74163 19.1111 8.33203C17.7798 5.75695 15.0942 4 11.9998 4C8.90552 4.00008 6.21979 5.75701 4.88849 8.33203C4.63484 8.82232 4.03129 9.01504 3.54083 8.76172C3.05047 8.50819 2.85801 7.90454 3.11115 7.41406C4.7723 4.20066 8.12856 2.00008 11.9998 2Z" fill="black"/>
</svg>
