<svg width="24" height="24" viewBox="0 0 24 24" fill="none" xmlns="http://www.w3.org/2000/svg">
<path d="M12 16C13.6569 16 15 17.3431 15 19C15 20.6569 13.6569 22 12 22C10.3431 22 9 20.6569 9 19C9 17.3431 10.3431 16 12 16ZM5 14C6.65685 14 8 15.3431 8 17C8 18.6569 6.65685 20 5 20C3.34315 20 2 18.6569 2 17C2 15.3431 3.34315 14 5 14ZM12 18C11.4477 18 11 18.4477 11 19C11 19.5523 11.4477 20 12 20C12.5523 20 13 19.5523 13 19C13 18.4477 12.5523 18 12 18ZM19 14C20.6569 14 22 15.3431 22 17C22 18.6569 20.6569 20 19 20C17.3431 20 16 18.6569 16 17C16 15.3431 17.3431 14 19 14ZM5 16C4.44772 16 4 16.4477 4 17C4 17.5523 4.44772 18 5 18C5.55228 18 6 17.5523 6 17C6 16.4477 5.55228 16 5 16ZM19 16C18.4477 16 18 16.4477 18 17C18 17.5523 18.4477 18 19 18C19.5523 18 20 17.5523 20 17C20 16.4477 19.5523 16 19 16ZM12 2C14.7614 2 17 4.23858 17 7C17 8.79631 16.0521 10.3704 14.6299 11.252C14.9258 11.3964 15.2129 11.5658 15.4873 11.7617L16.0811 12.1865L16.1611 12.25C16.5418 12.5847 16.6145 13.1597 16.3135 13.5811C16.0125 14.0024 15.445 14.1205 15.0049 13.8691L14.9189 13.8135L14.3252 13.3896C12.9344 12.3962 11.0656 12.3962 9.6748 13.3896L9.08105 13.8135C8.63164 14.1345 8.00753 14.0305 7.68652 13.5811C7.36552 13.1316 7.46954 12.5075 7.91895 12.1865L8.5127 11.7617C8.78682 11.5659 9.07352 11.3963 9.36914 11.252C7.94728 10.3703 7 8.79602 7 7C7 4.23858 9.23858 2 12 2ZM12 4C10.3431 4 9 5.34315 9 7C9 8.65685 10.3431 10 12 10C13.6569 10 15 8.65685 15 7C15 5.34315 13.6569 4 12 4Z" fill="black"/>
</svg>
