<svg width="24" height="24" viewBox="0 0 24 24" fill="none" xmlns="http://www.w3.org/2000/svg">
<path d="M13.25 13C15.8734 13 18 15.1266 18 17.75C18 19.5449 16.5449 21 14.75 21H6.25C4.45507 21 3 19.5449 3 17.75C3 15.1266 5.12665 13 7.75 13H13.25ZM7.75 15C6.23122 15 5 16.2312 5 17.75C5 18.4404 5.55964 19 6.25 19H14.75C15.4404 19 16 18.4404 16 17.75C16 16.2312 14.7688 15 13.25 15H7.75ZM10.5 3C12.9853 3 15 5.01472 15 7.5C15 9.98528 12.9853 12 10.5 12C8.01472 12 6 9.98528 6 7.5C6 5.01472 8.01472 3 10.5 3ZM19.1553 3.55762C19.6759 3.37389 20.2467 3.64643 20.4307 4.16699C20.7996 5.21081 21 6.33308 21 7.5C21 8.66692 20.7996 9.78919 20.4307 10.833C20.2467 11.3536 19.6759 11.6261 19.1553 11.4424C18.6346 11.2583 18.3619 10.6877 18.5459 10.167C18.8402 9.33424 19 8.43677 19 7.5C19 6.56323 18.8402 5.66576 18.5459 4.83301C18.3619 4.31231 18.6346 3.74166 19.1553 3.55762ZM16.3252 4.55762C16.8459 4.37363 17.4165 4.64637 17.6006 5.16699C17.859 5.89807 18 6.68366 18 7.5C18 8.31634 17.859 9.10193 17.6006 9.83301C17.4165 10.3536 16.8459 10.6264 16.3252 10.4424C15.8048 10.2582 15.5319 9.68755 15.7158 9.16699C15.8996 8.64698 16 8.08618 16 7.5C16 6.91382 15.8996 6.35302 15.7158 5.83301C15.5319 5.31245 15.8048 4.74177 16.3252 4.55762ZM10.5 5C9.11929 5 8 6.11929 8 7.5C8 8.88071 9.11929 10 10.5 10C11.8807 10 13 8.88071 13 7.5C13 6.11929 11.8807 5 10.5 5Z" fill="black"/>
</svg>
