<svg width="24" height="24" viewBox="0 0 24 24" fill="none" xmlns="http://www.w3.org/2000/svg">
<path d="M21 11C21.5523 11 22 11.4477 22 12C22 14.6364 20.9387 17.2039 19.0713 19.0713C15.1894 22.9532 8.91054 22.9752 5 19.1396V19.5C4.99999 20.0522 4.55228 20.5 4 20.5C3.44772 20.5 3.00001 20.0522 3 19.5V17C3.00003 16.4477 3.44773 16 4 16H6.5C7.05227 16 7.49997 16.4477 7.5 17C7.49999 17.4874 7.15107 17.8928 6.68945 17.9814C9.83105 20.7758 14.6457 20.6687 17.6572 17.6572C19.1492 16.1652 20 14.1065 20 12C20 11.4477 20.4477 11 21 11ZM4.92871 4.92868C8.81064 1.04677 15.0895 1.02472 19 4.86032V4.49997C19 3.9477 19.4477 3.49997 20 3.49997C20.5523 3.49997 21 3.9477 21 4.49997V6.99997C21 7.55225 20.5523 7.99997 20 7.99997H17.5C16.9477 7.99997 16.5 7.55225 16.5 6.99997C16.5 6.51252 16.8489 6.1071 17.3105 6.01852C14.169 3.22412 9.35433 3.33121 6.34277 6.34274C4.85081 7.83471 4.00001 9.89347 4 12C3.99999 12.5522 3.55228 13 3 13C2.44772 13 2.00001 12.5522 2 12C2.00001 9.3635 3.06135 6.79604 4.92871 4.92868Z" fill="black"/>
</svg>
