<svg width="24" height="24" viewBox="0 0 24 24" fill="none" xmlns="http://www.w3.org/2000/svg">
<path d="M8 12C10.2091 12 12 13.7909 12 16V17C12 19.2091 10.2091 21 8 21H7C4.79086 21 3 19.2091 3 17V16C3 13.7909 4.79086 12 7 12H8ZM19.3691 13.2246C19.7619 12.9043 20.3409 12.9269 20.707 13.293L22.207 14.793L22.2754 14.8691C22.5957 15.2619 22.5731 15.8409 22.207 16.207C21.8796 16.5345 21.3825 16.5859 21 16.3643V17C21 19.2091 19.2091 21 17 21H15C14.4477 21 14 20.5523 14 20C14 19.4477 14.4477 19 15 19H17C18.1045 19 19 18.1046 19 17V16.3643C18.6175 16.5859 18.1204 16.5344 17.793 16.207C17.4024 15.8165 17.4024 15.1835 17.793 14.793L19.293 13.293L19.3691 13.2246ZM7 14C5.89543 14 5 14.8954 5 16V17C5 18.1046 5.89543 19 7 19H8C9.10454 19 10 18.1046 10 17V16C10 14.8954 9.10454 14 8 14H7ZM17 3C19.2091 3.00003 21 4.79088 21 7V8C21 10.2091 19.2091 12 17 12H16C13.7909 12 12 10.2091 12 8V7C12 4.79086 13.7909 3 16 3H17ZM9.10254 3.00488C9.60663 3.05625 10 3.48235 10 4C10 4.51765 9.60663 4.94375 9.10254 4.99512L9 5H7C5.89543 5 5 5.89543 5 7V7.63477C5.38249 7.41344 5.87973 7.46567 6.20703 7.79297C6.59752 8.18349 6.59752 8.81651 6.20703 9.20703L4.70703 10.707C4.31652 11.0975 3.6835 11.0975 3.29297 10.707L1.79297 9.20703C1.40244 8.81651 1.40244 8.18349 1.79297 7.79297C2.12028 7.46568 2.61752 7.41341 3 7.63477V7C3 4.79086 4.79086 3 7 3H9L9.10254 3.00488ZM16 5C14.8954 5 14 5.89543 14 7V8C14 9.10457 14.8954 10 16 10H17C18.1045 9.99997 19 9.10455 19 8V7C19 5.89545 18.1045 5.00003 17 5H16Z" fill="black"/>
</svg>
