<svg width="24" height="24" viewBox="0 0 24 24" fill="none" xmlns="http://www.w3.org/2000/svg">
<path d="M2.29302 2.29303C2.68355 1.90251 3.31656 1.90251 3.70708 2.29303L6.62701 5.21295C7.41034 3.88912 8.85035 3.00006 10.5001 3.00006C12.9853 3.00009 15.0001 5.0148 15.0001 7.50006C15 9.15005 14.1095 10.5882 12.7852 11.3712L21.7071 20.293C22.0976 20.6836 22.0976 21.3166 21.7071 21.7071C21.3166 22.0976 20.6836 22.0976 20.293 21.7071L2.29302 3.70709C1.9025 3.31657 1.9025 2.68355 2.29302 2.29303ZM9.67193 15.0001H7.75005C6.23127 15.0001 5.00005 16.2313 5.00005 17.7501C5.00008 18.4404 5.55972 19.0001 6.25005 19.0001H13.6719L15.5674 20.8956C15.3062 20.9633 15.0324 21.0001 14.7501 21.0001H6.25005C4.45515 21.0001 3.00008 19.545 3.00005 17.7501C3.00005 15.1525 5.08514 13.0422 7.6729 13.001L9.67193 15.0001ZM19.1553 3.55768C19.6759 3.37397 20.2467 3.6465 20.4307 4.16705C20.7996 5.21086 21.0001 6.33316 21.0001 7.50006C21 8.66696 20.7996 9.78926 20.4307 10.8331C20.2467 11.3536 19.6759 11.6261 19.1553 11.4424C18.6346 11.2584 18.362 10.6877 18.546 10.1671C18.8403 9.33431 19 8.43681 19.0001 7.50006C19.0001 6.56332 18.8403 5.66581 18.546 4.83307C18.362 4.31237 18.6346 3.74172 19.1553 3.55768ZM16.3252 4.55768C16.8459 4.37372 17.4166 4.64645 17.6006 5.16705C17.859 5.89812 18.0001 6.68375 18.0001 7.50006C18 8.31638 17.859 9.102 17.6006 9.83307C17.4166 10.3536 16.8459 10.6264 16.3252 10.4424C15.8048 10.2583 15.532 9.6876 15.7159 9.16705C15.8997 8.64705 16 8.08622 16.0001 7.50006C16.0001 6.91391 15.8997 6.35307 15.7159 5.83307C15.532 5.31251 15.8048 4.74183 16.3252 4.55768ZM10.5001 5.00006C9.39417 5.00006 8.45765 5.71862 8.12798 6.71393L11.2852 9.87115C12.2808 9.54165 13 8.60611 13.0001 7.50006C13.0001 6.11937 11.8807 5.00009 10.5001 5.00006Z" fill="black"/>
</svg>
