<svg width="24" height="24" viewBox="0 0 24 24" fill="none" xmlns="http://www.w3.org/2000/svg">
<path d="M11.9996 2C17.5225 2 21.9996 6.47715 21.9996 12C21.9996 17.5228 17.5225 22 11.9996 22C8.24948 21.9999 4.98281 19.9352 3.27209 16.8848L3.11096 16.5859L3.06897 16.4932C2.88306 16.0218 3.08098 15.4771 3.54065 15.2393C4.00044 15.0016 4.55941 15.155 4.83655 15.5791L4.88831 15.668L5.01624 15.9072C6.38696 18.3515 9.00198 19.9999 11.9996 20C16.4179 20 19.9996 16.4183 19.9996 12C19.9996 7.58172 16.4179 4 11.9996 4C9.96103 4.0001 8.10243 4.76259 6.68909 6.01855C7.15091 6.10699 7.49963 6.5124 7.49963 7C7.49963 7.55228 7.05192 8 6.49963 8H3.99963C3.44753 7.99979 2.99963 7.55216 2.99963 7L2.99963 4.5C2.99963 3.94785 3.44753 3.50021 3.99963 3.5C4.55192 3.5 4.99963 3.94772 4.99963 4.5V4.85938C6.80233 3.09192 9.27431 2.0001 11.9996 2Z" fill="black"/>
</svg>
