<svg width="24" height="24" viewBox="0 0 24 24" fill="none" xmlns="http://www.w3.org/2000/svg">
<path d="M17 9.00006C19.2091 9.00006 21 10.7909 21 13.0001V17.0001C21 19.2092 19.2091 21.0001 17 21.0001H13C10.7909 21.0001 9.00004 19.2092 9 17.0001V13.0001C9 10.7909 10.7909 9.00006 13 9.00006H17ZM13 11.0001C11.8954 11.0001 11 11.8955 11 13.0001V17.0001C11 18.1046 11.8955 19.0001 13 19.0001H17C18.1045 19.0001 19 18.1046 19 17.0001V13.0001C19 11.8955 18.1046 11.0001 17 11.0001H13ZM12.793 1.79303C13.1835 1.40251 13.8165 1.40251 14.207 1.79303L15.707 3.29303C16.0975 3.68356 16.0975 4.31658 15.707 4.70709L14.207 6.20709L14.1309 6.27545C13.7381 6.59576 13.1591 6.57316 12.793 6.20709C12.4682 5.88228 12.4144 5.39015 12.6299 5.00885C8.38343 5.20224 5 8.70584 5 13.0001C4.99996 13.5523 4.55226 14.0001 4 14.0001C3.44774 14.0001 3.00004 13.5523 3 13.0001C3 7.59754 7.28427 3.1981 12.6406 3.00885C12.4131 2.6252 12.4631 2.12295 12.793 1.79303Z" fill="black"/>
</svg>
