<svg width="24" height="24" viewBox="0 0 24 24" fill="none" xmlns="http://www.w3.org/2000/svg">
<path d="M11 9.00006C13.2091 9.00006 15 10.7909 15 13.0001V17.0001C15 19.2092 13.2091 21.0001 11 21.0001H7C4.79089 21.0001 3.00004 19.2092 3 17.0001V13.0001C3 10.7909 4.79086 9.00006 7 9.00006H11ZM7 11.0001C5.89543 11.0001 5 11.8955 5 13.0001V17.0001C5.00004 18.1046 5.89546 19.0001 7 19.0001H11C12.1045 19.0001 13 18.1046 13 17.0001V13.0001C13 11.8955 12.1046 11.0001 11 11.0001H7ZM9.79297 1.79303C10.1835 1.40251 10.8165 1.40251 11.207 1.79303C11.5369 2.12295 11.5869 2.6252 11.3594 3.00885C16.7157 3.1981 21 7.59754 21 13.0001C21 13.5523 20.5523 14.0001 20 14.0001C19.4477 14.0001 19 13.5523 19 13.0001C19 8.70584 15.6166 5.20224 11.3701 5.00885C11.5856 5.39015 11.5318 5.88228 11.207 6.20709C10.8409 6.57316 10.2619 6.59576 9.86914 6.27545L9.79297 6.20709L8.29297 4.70709C7.90246 4.31658 7.90248 3.68356 8.29297 3.29303L9.79297 1.79303Z" fill="black"/>
</svg>
