<svg width="24" height="24" viewBox="0 0 24 24" fill="none" xmlns="http://www.w3.org/2000/svg">
<path d="M7 3C9.20914 3 11 4.79086 11 7C11 7.88624 10.7105 8.7042 10.2227 9.36719C10.8368 9.61637 11.4013 9.98724 11.8789 10.4648L12.1729 10.7588L20.5146 6.12598C20.9974 5.8579 21.6058 6.03192 21.874 6.51465C22.1421 6.99741 21.9681 7.60584 21.4854 7.87402L14.0586 12L21.4854 16.126C21.9681 16.3942 22.1421 17.0026 21.874 17.4854C21.6058 17.9681 20.9974 18.1421 20.5146 17.874L12.1729 13.2402L11.8789 13.5352C11.4014 14.0127 10.8367 14.3827 10.2227 14.6318C10.7108 15.2949 11 16.1135 11 17C11 19.2091 9.20914 21 7 21C4.79086 21 3 19.2091 3 17C3 14.7909 4.79086 13 7 13H8.34277C9.13842 13 9.90223 12.6837 10.4648 12.1211L10.5859 12L10.4648 11.8789C9.90223 11.3163 9.13842 11 8.34277 11H7C4.79086 11 3 9.20914 3 7C3 4.79086 4.79086 3 7 3ZM7 15C5.89543 15 5 15.8954 5 17C5 18.1046 5.89543 19 7 19C8.10457 19 9 18.1046 9 17C9 15.8954 8.10457 15 7 15ZM7 5C5.89543 5 5 5.89543 5 7C5 8.10457 5.89543 9 7 9C8.10457 9 9 8.10457 9 7C9 5.89543 8.10457 5 7 5Z" fill="black"/>
</svg>
