<svg width="24" height="24" viewBox="0 0 24 24" fill="none" xmlns="http://www.w3.org/2000/svg">
<path d="M10.5 2C15.1944 2 19 5.80558 19 10.5C19 12.4868 18.316 14.3125 17.1738 15.7598L20.707 19.293C21.0974 19.6835 21.0975 20.3166 20.707 20.707C20.3166 21.0975 19.6835 21.0974 19.293 20.707L15.7598 17.1738C14.3125 18.316 12.4868 19 10.5 19C5.80558 19 2 15.1944 2 10.5C2 5.80558 5.80558 2 10.5 2ZM10.5 4C6.91015 4 4 6.91015 4 10.5C4 14.0899 6.91015 17 10.5 17C14.0899 17 17 14.0899 17 10.5C17 6.91015 14.0899 4 10.5 4Z" fill="black"/>
</svg>
