<svg width="24" height="24" viewBox="0 0 24 24" fill="none" xmlns="http://www.w3.org/2000/svg">
<path d="M11.0015 2.29242C11.6473 2.06458 12.3518 2.06465 12.9976 2.29242L18.979 4.40375C20.5269 4.95007 21.32 6.60991 20.9341 8.13519C20.6237 9.36228 20.2428 11.1156 19.9917 13.1245C19.1681 19.7116 14.0098 21.5193 12.5845 21.892C12.1987 21.9928 11.8004 21.9929 11.4146 21.892C9.9888 21.5191 4.83087 19.7112 4.00735 13.1245C3.75623 11.1155 3.37537 9.36229 3.06497 8.13519C2.67916 6.61009 3.47249 4.95027 5.02005 4.40375L11.0015 2.29242ZM12.3326 4.17816C12.1173 4.10225 11.8818 4.10218 11.6665 4.17816L5.68509 6.28949C5.1763 6.46968 4.85459 7.05464 5.00345 7.64398C5.32865 8.92954 5.72796 10.7663 5.99173 12.8764C6.6607 18.2268 10.7689 19.6562 11.9204 19.9575C11.9745 19.9716 12.0246 19.9715 12.0786 19.9575C13.2297 19.6564 17.3383 18.2272 18.0074 12.8764C18.2711 10.7664 18.6704 8.92953 18.9956 7.64398C19.1445 7.05443 18.8231 6.46945 18.314 6.28949L12.3326 4.17816ZM13.605 8.55316C13.852 8.05925 14.4529 7.85906 14.9468 8.1059C15.4408 8.35289 15.6411 8.95371 15.3941 9.44769L13.0933 14.0493C12.4404 15.3542 10.6544 15.5441 9.74271 14.4047L8.71829 13.1254L8.65872 13.0424C8.38366 12.6168 8.47059 12.0427 8.87454 11.7192C9.27886 11.3957 9.85744 11.4375 10.2124 11.7993L10.2808 11.8754L11.3042 13.1557L13.605 8.55316Z" fill="black"/>
</svg>
