<svg width="24" height="24" viewBox="0 0 24 24" fill="none" xmlns="http://www.w3.org/2000/svg">
<path d="M18.7087 2.74231C20.2903 2.18873 21.8111 3.7095 21.2575 5.29114L15.8718 20.6798C15.2553 22.4398 12.7566 22.4134 12.1774 20.6407L10.1647 14.4757C10.0657 14.1724 9.82743 13.9341 9.52411 13.8351L3.35907 11.8224C1.58662 11.2431 1.56018 8.74454 3.32001 8.12805L18.7087 2.74231ZM11.9196 13.4933C11.9753 13.6098 12.0245 13.7302 12.0651 13.8546L14.0329 19.879L18.6081 6.80481L11.9196 13.4933ZM4.11981 9.96594L10.1452 11.9347C10.2691 11.9752 10.3895 12.0238 10.5056 12.0792L17.194 5.39075L4.11981 9.96594Z" fill="black"/>
</svg>
