<svg width="24" height="24" viewBox="0 0 24 24" fill="none" xmlns="http://www.w3.org/2000/svg">
<path d="M13.0981 2.00488C13.3271 2.02757 13.5424 2.12886 13.7065 2.29297L14.7065 3.29297C14.8941 3.48051 14.9995 3.73478 14.9995 4C14.9995 4.35417 15.2164 4.66895 15.534 4.82574C15.8485 4.981 16.151 5.15626 16.4402 5.34985C16.7363 5.54801 17.1195 5.57906 17.4282 5.40137L17.5171 5.35645C17.7265 5.26193 17.9631 5.24179 18.187 5.30176L19.5532 5.66797L19.6479 5.69824C19.863 5.7795 20.0447 5.93294 20.1606 6.13379L21.1606 7.86621C21.2932 8.09588 21.3289 8.36885 21.2603 8.625L20.894 9.99121C20.8254 10.2474 20.6579 10.4661 20.4282 10.5986C20.1202 10.7756 19.9555 11.1218 19.9806 11.4761C19.9929 11.6492 19.9995 11.8239 19.9995 12C19.9995 12.1752 19.9929 12.3488 19.9807 12.5209C19.9556 12.8761 20.1201 13.2231 20.4282 13.4014C20.6578 13.534 20.8254 13.7527 20.894 14.0088L21.2603 15.375C21.3289 15.6311 21.2932 15.9041 21.1606 16.1338L20.1606 17.8662C20.0281 18.0959 19.8094 18.2634 19.5532 18.332L18.187 18.6982C17.9309 18.7668 17.6579 18.7312 17.4282 18.5986C17.119 18.4198 16.7346 18.4506 16.4378 18.6493C16.1498 18.842 15.8487 19.0166 15.5357 19.1714C15.2172 19.3288 14.9995 19.6446 14.9995 20C14.9995 20.2652 14.8941 20.5195 14.7065 20.707L13.7065 21.707C13.519 21.8945 13.2647 22 12.9995 22H10.9995C10.7343 22 10.48 21.8945 10.2925 21.707L9.29248 20.707C9.10498 20.5195 8.99951 20.2652 8.99951 20C8.99951 19.6446 8.78189 19.3288 8.46322 19.1716C8.14937 19.0167 7.84731 18.8419 7.55857 18.6489C7.26276 18.451 6.87981 18.4204 6.57178 18.5986C6.34213 18.7312 6.06911 18.7669 5.81299 18.6982L4.44678 18.332C4.19065 18.2633 3.97193 18.0959 3.83936 17.8662L2.83936 16.1338C2.70681 15.9041 2.67113 15.6311 2.73975 15.375L3.10596 14.0088L3.13623 13.915C3.21724 13.7 3.37026 13.5185 3.5708 13.4023C3.87841 13.224 4.04258 12.8774 4.01793 12.5227C4.00593 12.35 3.99951 12.1757 3.99951 12C3.99951 11.8233 4.00598 11.6481 4.01809 11.4745C4.04273 11.121 3.87869 10.7757 3.57178 10.5986C3.34214 10.466 3.17461 10.2473 3.10596 9.99121L2.73975 8.625C2.67113 8.36888 2.70681 8.09586 2.83936 7.86621L3.83936 6.13379C3.97193 5.90412 4.19065 5.73665 4.44678 5.66797L5.81299 5.30176L5.90967 5.28125C6.13663 5.24394 6.37082 5.28541 6.57178 5.40137C6.87925 5.579 7.26134 5.54836 7.55644 5.35084C7.84635 5.15678 8.14973 4.9812 8.46499 4.82566C8.78261 4.66896 8.99951 4.35417 8.99951 4L9.00439 3.90137C9.02708 3.67239 9.12837 3.45711 9.29248 3.29297L10.2925 2.29297L10.3657 2.22656C10.5437 2.08075 10.7675 2.00002 10.9995 2H12.9995L13.0981 2.00488ZM11.2065 4.20703C11.074 4.33959 10.9995 4.51938 10.9995 4.70685V5.29102C10.9995 5.7334 10.7087 6.12279 10.2847 6.24902C9.37432 6.52007 8.55397 7.00276 7.87939 7.64062C7.55811 7.94441 7.07486 8.00131 6.69189 7.78027L6.18441 7.48684C6.02166 7.39274 5.82814 7.36734 5.64662 7.41624C5.4661 7.46488 5.31219 7.58305 5.21858 7.74488L4.92489 8.2526C4.83075 8.41535 4.80533 8.60889 4.85424 8.79042C4.90287 8.97093 5.02103 9.12481 5.18285 9.21841L5.68994 9.51172C6.07258 9.73262 6.26446 10.1785 6.1626 10.6084C6.05643 11.0558 5.99951 11.5217 5.99951 12C5.99951 12.4778 6.05649 12.9432 6.1626 13.3906C6.26436 13.8201 6.07284 14.2652 5.69092 14.4863L5.18359 14.7794C5.02131 14.8731 4.90284 15.0274 4.85416 15.2084C4.8053 15.3901 4.83078 15.5837 4.92498 15.7466L5.21885 16.2546C5.31229 16.4162 5.46589 16.5341 5.64607 16.5828C5.82732 16.6317 6.02058 16.6064 6.18316 16.5125L6.69189 16.2188L6.83936 16.1494C7.19283 16.0161 7.59811 16.0924 7.87939 16.3584C8.55389 16.9963 9.37408 17.4788 10.2847 17.75C10.7086 17.8762 10.9995 18.2656 10.9995 18.708V19.2932C10.9995 19.4806 11.074 19.6604 11.2065 19.793C11.3391 19.9255 11.5189 20 11.7064 20H12.2927C12.4801 20 12.6599 19.9255 12.7925 19.793C12.925 19.6604 12.9995 19.4806 12.9995 19.2932V18.708C12.9995 18.2656 13.2904 17.8762 13.7144 17.75C14.6249 17.479 15.4449 16.9964 16.1196 16.3584C16.4409 16.0546 16.9241 15.9977 17.3071 16.2188L17.8159 16.5125C17.9784 16.6064 18.1717 16.6317 18.353 16.5828C18.5331 16.5341 18.6867 16.4162 18.7802 16.2546L19.0741 15.7465C19.1683 15.5837 19.1937 15.3901 19.1449 15.2085C19.0962 15.0275 18.9777 14.8732 18.8153 14.7795L18.3091 14.4873C17.9267 14.2663 17.7346 13.8204 17.8364 13.3906C17.9425 12.9432 17.9995 12.4778 17.9995 12C17.9995 11.5216 17.9426 11.0558 17.8364 10.6084C17.7346 10.1785 17.9265 9.73261 18.3091 9.51172L18.8162 9.21841C18.978 9.12481 19.0962 8.97093 19.1448 8.79042C19.1937 8.60889 19.1683 8.41535 19.0741 8.2526L18.7804 7.74488C18.6868 7.58305 18.5329 7.46488 18.3524 7.41624C18.1709 7.36734 17.9774 7.39274 17.8146 7.48684L17.3071 7.78027C16.9242 8.00104 16.4408 7.9443 16.1196 7.64062C15.4449 7.00269 14.6246 6.51994 13.7144 6.24902C13.2904 6.12278 12.9995 5.73339 12.9995 5.29102V4.70685C12.9995 4.51938 12.925 4.33959 12.7925 4.20703C12.6599 4.07447 12.4801 4 12.2927 4H11.7064C11.5189 4 11.3391 4.07447 11.2065 4.20703ZM11.9995 8C14.2087 8 15.9995 9.79086 15.9995 12C15.9995 14.2091 14.2087 16 11.9995 16C9.79059 15.9997 7.99951 14.209 7.99951 12C7.99951 9.79102 9.79059 8.00026 11.9995 8ZM11.9995 10C10.8952 10.0003 9.99951 10.8956 9.99951 12C9.99951 13.1044 10.8952 13.9997 11.9995 14C13.1041 14 13.9995 13.1046 13.9995 12C13.9995 10.8954 13.1041 10 11.9995 10Z" fill="black"/>
</svg>
