<svg width="24" height="24" viewBox="0 0 24 24" fill="none" xmlns="http://www.w3.org/2000/svg">
<path d="M18 2C20.2091 2 22 3.79086 22 6C22 8.20914 20.2091 10 18 10C16.8032 10 15.7301 9.47358 14.9971 8.64062L9.9209 11.21C9.97209 11.4654 10 11.7295 10 12C10 12.4139 9.93699 12.813 9.82031 13.1885L14.1748 15.8838C14.793 15.3339 15.6075 15 16.5 15C18.433 15 20 16.567 20 18.5C20 20.433 18.433 22 16.5 22C14.567 22 13 20.433 13 18.5C13 18.1831 13.0421 17.876 13.1211 17.584L8.76562 14.8877C8.04716 15.576 7.07351 16 6 16C3.79086 16 2 14.2091 2 12C2 9.79086 3.79086 8 6 8C7.22144 8 8.31415 8.5482 9.04785 9.41113L14.0928 6.85645C14.0326 6.58047 14 6.29403 14 6C14 3.79086 15.7909 2 18 2ZM16.5 17C15.6716 17 15 17.6716 15 18.5C15 19.3284 15.6716 20 16.5 20C17.3284 20 18 19.3284 18 18.5C18 17.6716 17.3284 17 16.5 17ZM6 10C4.89543 10 4 10.8954 4 12C4 13.1046 4.89543 14 6 14C7.10457 14 8 13.1046 8 12C8 10.8954 7.10457 10 6 10ZM18 4C16.8954 4 16 4.89543 16 6C16 7.10457 16.8954 8 18 8C19.1046 8 20 7.10457 20 6C20 4.89543 19.1046 4 18 4Z" fill="black"/>
</svg>
