<svg width="24" height="24" viewBox="0 0 24 24" fill="none" xmlns="http://www.w3.org/2000/svg">
<path d="M18.293 8.79332C18.6835 8.4028 19.3165 8.4028 19.707 8.79332L20.1211 9.20738C20.6835 9.7699 20.9999 10.533 21 11.3285V17.0004C20.9998 19.2093 19.209 21.0004 17 21.0004H7C4.79098 21.0004 3.00019 19.2093 3 17.0004V11.3285C3.00008 10.533 3.31648 9.7699 3.87891 9.20738L4.29297 8.79332C4.68349 8.4028 5.31651 8.4028 5.70703 8.79332C6.09738 9.18386 6.0975 9.81692 5.70703 10.2074L5.29297 10.6214C5.10562 10.8089 5.00008 11.0635 5 11.3285V17.0004C5.00019 18.1048 5.89555 19.0004 7 19.0004H17C18.1045 19.0004 18.9998 18.1048 19 17.0004V11.3285C18.9999 11.0635 18.8944 10.8089 18.707 10.6214L18.293 10.2074L18.2246 10.1312C17.9043 9.7385 17.927 9.15945 18.293 8.79332ZM10.5859 3.00035C11.367 2.2194 12.633 2.2194 13.4141 3.00035L15.207 4.79332L15.2754 4.86949C15.5956 5.26226 15.5731 5.84133 15.207 6.20738C14.841 6.57327 14.2618 6.59589 13.8691 6.27574L13.793 6.20738L13 5.41441V13.0004C12.9998 13.5525 12.5522 14.0004 12 14.0004C11.4478 14.0004 11.0002 13.5525 11 13.0004V5.41441L10.207 6.20738C9.81655 6.59767 9.18345 6.59767 8.79297 6.20738C8.4025 5.81692 8.40262 5.18386 8.79297 4.79332L10.5859 3.00035Z" fill="black"/>
</svg>
