<svg width="24" height="24" viewBox="0 0 24 24" fill="none" xmlns="http://www.w3.org/2000/svg">
<path d="M11.9996 2C14.7611 2 16.9996 4.23858 16.9996 7V7.06836C18.9654 7.43494 20.4079 9.23568 20.2487 11.3066L19.7096 18.3066C19.5493 20.3906 17.8114 22 15.7213 22H8.27795C6.18798 21.9998 4.44997 20.3905 4.28967 18.3066L3.75061 11.3066C3.59144 9.23602 5.03437 7.43631 6.99963 7.06934V7C6.99963 4.23871 9.23839 2.00021 11.9996 2ZM8.99963 11C8.99963 11.5523 8.55192 12 7.99963 12C7.44753 11.9998 6.99963 11.5522 6.99963 11V9.14355C6.21282 9.45733 5.67558 10.2533 5.74475 11.1533L6.28381 18.1533C6.36396 19.1952 7.23306 19.9998 8.27795 20H15.7213C16.7664 20 17.6353 19.1953 17.7155 18.1533L18.2545 11.1533C18.3237 10.2529 17.787 9.45608 16.9996 9.14258V11C16.9996 11.5523 16.5519 12 15.9996 12C15.4475 11.9998 14.9996 11.5522 14.9996 11V9H8.99963V11ZM11.9996 4C10.343 4.00021 8.99963 5.34328 8.99963 7H14.9996C14.9996 5.34315 13.6565 4 11.9996 4Z" fill="black"/>
</svg>
