<svg width="24" height="24" viewBox="0 0 24 24" fill="none" xmlns="http://www.w3.org/2000/svg">
<path d="M8 17C9.10457 17 10 17.8954 10 19C10 20.1046 9.10457 21 8 21C6.89543 21 6 20.1046 6 19C6 17.8954 6.89543 17 8 17ZM17 17C18.1046 17 19 17.8954 19 19C19 20.1046 18.1046 21 17 21C15.8954 21 15 20.1046 15 19C15 17.8954 15.8954 17 17 17ZM3.30566 2C4.77218 2 6.02355 3.06028 6.26465 4.50684L6.50098 5.92578L16.5508 4.62988C19.5021 4.24927 21.8209 7.11021 20.8379 9.91895L19.6475 13.3213C19.0859 14.9256 17.5709 16 15.8711 16H9.54102C7.58582 15.9998 5.91714 14.5859 5.5957 12.6572L4.29199 4.83594C4.21163 4.35375 3.7945 4 3.30566 4H3C2.44772 4 2 3.55228 2 3C2 2.44772 2.44772 2 3 2H3.30566ZM18.9502 9.25781C19.4414 7.85353 18.2822 6.42393 16.8066 6.61426L6.83008 7.90137L7.56836 12.3291C7.72917 13.2932 8.56358 13.9998 9.54102 14H15.8711C16.7208 14 17.4779 13.463 17.7588 12.6611L18.9502 9.25781Z" fill="black"/>
</svg>
