<svg width="24" height="24" viewBox="0 0 24 24" fill="none" xmlns="http://www.w3.org/2000/svg">
<path d="M17.293 3.79303C17.6835 3.40251 18.3165 3.40251 18.707 3.79303L20.5 5.586C21.2809 6.36703 21.2809 7.6331 20.5 8.41412L18.707 10.2071L18.6309 10.2755C18.2381 10.5958 17.6591 10.5732 17.293 10.2071C16.9269 9.84099 16.9043 9.26197 17.2246 8.8692L17.293 8.79303L18.0859 8.00006H16.2646C15.2111 8.0001 14.2346 8.55276 13.6924 9.45612L12.166 11.9991L13.6924 14.544C14.2346 15.4473 15.2111 16 16.2646 16.0001H18.0859L17.293 15.2071C16.9025 14.8166 16.9025 14.1836 17.293 13.793C17.6835 13.4025 18.3165 13.4025 18.707 13.793L20.5 15.586C21.2809 16.367 21.2809 17.6331 20.5 18.4141L18.707 20.2071L18.6309 20.2755C18.2381 20.5958 17.6591 20.5732 17.293 20.2071C16.9269 19.841 16.9043 19.262 17.2246 18.8692L17.293 18.793L18.0859 18.0001H16.2646C14.5084 18 12.8811 17.0783 11.9775 15.5723L10.999 13.9434L9.73145 16.0577C9.0086 17.2624 7.70667 17.9999 6.30176 18.0001H4C3.44773 18.0001 3.00003 17.5523 3 17.0001C3 16.4478 3.44772 16.0001 4 16.0001H6.30176C7.00409 15.9999 7.65519 15.6316 8.0166 15.0294L10.1328 11.501C10.1372 11.4934 10.1419 11.4861 10.1465 11.4786L11.9775 8.4278C12.8811 6.9218 14.5084 6.0001 16.2646 6.00006H18.0859L17.293 5.20709C16.9025 4.81658 16.9025 4.18356 17.293 3.79303ZM6.30176 6.00006C7.70668 6.00018 9.00861 6.73772 9.73145 7.94244L9.75781 7.98541L9.80566 8.07623C10.021 8.53491 9.85794 9.09116 9.41406 9.35748C8.94064 9.6413 8.32715 9.48791 8.04297 9.01471L8.0166 8.97076C7.65519 8.36853 7.0041 8.00018 6.30176 8.00006H4C3.44773 8.00006 3.00003 7.55232 3 7.00006C3 6.44778 3.44772 6.00006 4 6.00006H6.30176Z" fill="black"/>
</svg>
