<svg width="24" height="24" viewBox="0 0 24 24" fill="none" xmlns="http://www.w3.org/2000/svg">
<path d="M17 3C19.2091 3 21 4.79086 21 7V17C21 19.2091 19.2091 21 17 21H7C4.79086 21 3 19.2091 3 17V7C3 4.79086 4.79086 3 7 3H17ZM12.0039 5C13.211 5.69947 13.9998 7.00061 14 8.45898V15.541C13.9998 16.9994 13.211 18.3005 12.0039 19H17C18.1046 19 19 18.1046 19 17V7C19 5.89543 18.1046 5 17 5H12.0039ZM5.62988 5.54492C5.24268 5.90965 5 6.42609 5 7V17C5 17.5737 5.24297 18.0894 5.62988 18.4541L10.3926 17.502C11.3271 17.3149 11.9998 16.4941 12 15.541V8.45898C11.9998 7.5059 11.3271 6.6851 10.3926 6.49805L5.62988 5.54492ZM11 11C11.5523 11 12 11.4477 12 12C12 12.5523 11.5523 13 11 13C10.4477 13 10 12.5523 10 12C10 11.4477 10.4477 11 11 11Z" fill="black"/>
</svg>
