<svg width="24" height="24" viewBox="0 0 24 24" fill="none" xmlns="http://www.w3.org/2000/svg">
<path d="M16 2C18.2091 2 20 3.79086 20 6V18C20 20.2091 18.2091 22 16 22H8C5.79086 22 4 20.2091 4 18V17C4 16.4477 4.44772 16 5 16C5.55228 16 6 16.4477 6 17V18C6 19.1046 6.89543 20 8 20H16C17.1046 20 18 19.1046 18 18V6C18 4.89543 17.1046 4 16 4H8C6.89543 4 6 4.89543 6 6V7C6 7.55228 5.55228 8 5 8C4.44772 8 4 7.55228 4 7V6C4 3.79086 5.79086 2 8 2H16ZM6.79297 9.29297C7.18349 8.90244 7.81651 8.90244 8.20703 9.29297L9.5 10.5859C10.2809 11.367 10.2809 12.633 9.5 13.4141L8.20703 14.707L8.13086 14.7754C7.73809 15.0957 7.15908 15.0731 6.79297 14.707C6.42685 14.3409 6.40426 13.7619 6.72461 13.3691L6.79297 13.293L7.08594 13H3C2.44772 13 2 12.5523 2 12C2 11.4477 2.44772 11 3 11H7.08594L6.79297 10.707C6.40244 10.3165 6.40244 9.68349 6.79297 9.29297ZM17 11C17.5523 11 18 11.4477 18 12C18 12.5523 17.5523 13 17 13C16.4477 13 16 12.5523 16 12C16 11.4477 16.4477 11 17 11Z" fill="black"/>
</svg>
