<svg width="24" height="24" viewBox="0 0 24 24" fill="none" xmlns="http://www.w3.org/2000/svg">
<path fill-rule="evenodd" clip-rule="evenodd" d="M6.86476 9.72615L6.8646 9.72243C6.84666 9.2997 6.81925 8.96853 6.79276 8.64855C6.77585 8.44424 6.75931 8.24449 6.74586 8.02838C6.74301 7.98253 6.7403 7.93595 6.73775 7.88843C6.72391 7.63051 6.71492 7.34501 6.71492 7C6.71492 5.125 7.52144 2 11.9784 2C16.4353 2 17.2391 5.125 17.2391 7C17.2391 7.34991 17.2299 7.6386 17.2159 7.89939C17.2135 7.94361 17.211 7.98703 17.2083 8.0298C17.195 8.24536 17.1786 8.44469 17.1619 8.64855C17.1359 8.9643 17.1091 9.29094 17.0913 9.70571L17.0912 9.7076C17.084 9.87409 17.0784 10.0548 17.0748 10.2546C17.0711 10.4597 17.3111 10.5871 17.4943 10.4939C17.5415 10.4699 17.5902 10.4462 17.6401 10.4232C17.7576 10.3689 17.8817 10.3177 18.0093 10.2713C18.5491 10.0751 19.1504 9.96481 19.5728 10.0674C19.5771 10.0684 19.5813 10.0695 19.5855 10.0706C19.9063 10.1524 20.1207 10.3599 20.1207 10.75C20.1207 11.2431 19.5471 11.4448 18.9306 11.6616C18.6938 11.7449 18.4507 11.8304 18.2313 11.9355C18.1968 11.952 18.1628 11.969 18.1296 11.9866C17.7176 12.2045 17.4139 12.5074 17.4419 13.0243C17.4546 13.2595 17.5359 13.539 17.707 13.875C18.1313 14.7082 18.8384 15.6339 19.6397 16.282C19.723 16.3494 19.8073 16.4137 19.8924 16.4747C20.217 16.7071 20.5533 16.8899 20.8897 17C22.6043 17.5612 22.2662 18.1223 20.3361 18.6835C20.164 18.7336 19.9792 18.7836 19.7821 18.8337C19.7279 18.8475 19.6727 18.8612 19.6166 18.875C19.467 18.9117 19.3628 18.966 19.2901 19.0322C19.1262 19.1814 19.1224 19.391 19.1186 19.5957C19.1099 20.0728 19.1017 20.5239 17.0705 20.125C16.3669 19.9868 15.7653 20.3864 15.0647 20.8517C14.2648 21.383 13.3358 22 11.9784 22C10.6206 22 9.69133 21.383 8.89114 20.8517C8.19038 20.3864 7.58862 19.9868 6.88478 20.125C4.85306 20.5239 4.84481 20.0728 4.83608 19.5957C4.83207 19.3763 4.82795 19.1513 4.62672 19.001C4.55691 18.9489 4.46339 18.9058 4.33793 18.875C4.31459 18.8693 4.29142 18.8636 4.26842 18.8579C4.1547 18.8298 4.04512 18.8022 3.93972 18.775C1.74024 18.2087 1.35903 17.837 3.06453 17C3.37775 16.8463 3.69096 16.6547 3.9947 16.4347C4.07127 16.3792 4.14722 16.322 4.22244 16.263C5.06191 15.6051 5.80747 14.7401 6.24809 13.875C6.4202 13.5371 6.50166 13.2574 6.51385 13.023C6.54099 12.501 6.22434 12.2041 5.79999 11.9911C5.76818 11.9751 5.73577 11.9596 5.70286 11.9446C5.4971 11.8503 5.27157 11.7721 5.05057 11.6955C4.42371 11.4783 3.83323 11.2736 3.83323 10.75C3.83323 10.3415 4.04787 10.1271 4.36898 10.0445C4.37423 10.0432 4.37951 10.0419 4.38482 10.0406C4.81379 9.93706 5.42562 10.0619 5.97056 10.2711C6.0871 10.3158 6.20057 10.3644 6.30855 10.4155C6.36124 10.4404 6.41261 10.4659 6.46239 10.4918C6.64468 10.5866 6.8842 10.4598 6.88049 10.2547C6.87701 10.0622 6.87157 9.88752 6.86476 9.72615Z" fill="black"/>
</svg>
