<svg width="24" height="24" viewBox="0 0 24 24" fill="none" xmlns="http://www.w3.org/2000/svg">
<path d="M3.30615 10.749C8.40641 8.20876 11.8074 6.5341 13.5091 5.72499C18.3677 3.41482 19.3773 3.01352 20.0354 3.00013C20.1801 2.99736 20.5037 3.03836 20.7133 3.23279C20.8903 3.39697 20.939 3.61876 20.9623 3.77442C20.9856 3.93008 21.0146 4.28467 20.9916 4.56174C20.7283 7.72419 19.589 15.3986 19.0094 18.9406C18.7642 20.4394 18.2813 20.9419 17.8138 20.9911C16.7978 21.098 16.0263 20.2235 15.0422 19.4861C13.5024 18.3323 12.6325 17.614 11.1378 16.488C9.4105 15.1868 10.5303 14.4716 11.5147 13.3028C11.7723 12.9969 16.2488 8.34235 16.3354 7.92011C16.3463 7.8673 16.3563 7.67045 16.254 7.56651C16.1517 7.46257 16.0007 7.49812 15.8918 7.52638C15.7373 7.56645 13.2775 9.42509 8.51212 13.1023C7.81389 13.6504 7.18145 13.9174 6.61481 13.9035C5.99014 13.888 4.78851 13.4997 3.89523 13.1678C2.79958 12.7606 1.92878 12.5454 2.0046 11.8539C2.0441 11.4938 2.47795 11.1255 3.30615 10.749Z" fill="black"/>
</svg>
