<svg width="24" height="24" viewBox="0 0 24 24" fill="none" xmlns="http://www.w3.org/2000/svg">
<path fill-rule="evenodd" clip-rule="evenodd" d="M11.9996 7.37838C9.44708 7.37838 7.3783 9.44757 7.3783 11.9998C7.3783 14.5519 9.44744 16.6211 11.9996 16.6211C14.5517 16.6211 16.6209 14.5519 16.6209 11.9998C16.6209 9.44757 14.5521 7.37838 11.9996 7.37838ZM11.9996 14.9996C10.3427 14.9996 8.99982 13.6563 8.99982 11.9998C8.99982 10.3428 10.343 8.99994 11.9996 8.99994C13.6561 8.99994 14.9993 10.3432 14.9993 11.9998C14.9993 13.6567 13.6565 14.9996 11.9996 14.9996Z" fill="black"/>
<path d="M17.8838 7.1955C17.8838 7.79195 17.4003 8.27547 16.8038 8.27547C16.2074 8.27547 15.7239 7.79195 15.7239 7.1955C15.7239 6.59906 16.2074 6.11554 16.8038 6.11554C17.4003 6.11554 17.8838 6.59906 17.8838 7.1955Z" fill="black"/>
<path fill-rule="evenodd" clip-rule="evenodd" d="M11.9996 3C9.55539 3 9.24888 3.01036 8.28897 3.0543C7.3312 3.09789 6.67709 3.25007 6.10443 3.47264C5.51248 3.70271 5.01056 4.0103 4.51042 4.51081C4.01028 5.01096 3.70234 5.51289 3.47263 6.1045C3.25007 6.67717 3.09788 7.33129 3.0543 8.28907C3.01036 9.249 3 9.55552 3 11.9998C3 14.4441 3.01036 14.7506 3.0543 15.7106C3.09788 16.6684 3.25007 17.3225 3.47263 17.8951C3.7027 18.4871 4.01028 18.989 4.51078 19.4892C5.01127 19.9897 5.51284 20.2973 6.10479 20.5274C6.67709 20.7499 7.33156 20.9021 8.28933 20.9457C9.24924 20.9896 9.55575 21 12 21C14.4443 21 14.7508 20.9896 15.7107 20.9457C16.6684 20.9021 17.3229 20.7499 17.8952 20.5274C18.4872 20.2973 18.9891 19.9897 19.4892 19.4892C19.9897 18.9887 20.2973 18.4871 20.5274 17.8951C20.7499 17.3228 20.9021 16.6684 20.9457 15.7106C20.9896 14.7506 21 14.4441 21 11.9998C21 9.55552 20.9896 9.249 20.9457 8.28907C20.9021 7.33129 20.7499 6.67681 20.5274 6.1045C20.2973 5.51253 19.9897 5.0106 19.4892 4.51045C18.9887 4.00994 18.4872 3.70235 17.8952 3.47228C17.3222 3.25007 16.6681 3.09789 15.7103 3.0543C14.7504 3.01036 14.4439 3 11.9996 3ZM11.9996 4.62155C14.4028 4.62155 14.6872 4.63084 15.6364 4.67407C16.5138 4.71408 16.9903 4.86055 17.3075 4.9838C17.7277 5.14707 18.0274 5.34213 18.3425 5.65686C18.6576 5.97196 18.8526 6.27169 19.0155 6.69181C19.1388 7.00905 19.2852 7.48562 19.3253 8.36302C19.3685 9.31188 19.3778 9.59661 19.3778 11.9998C19.3778 14.403 19.3685 14.6874 19.3253 15.6366C19.2852 16.514 19.1388 16.9906 19.0155 17.3078C18.8523 17.728 18.6572 18.0277 18.3425 18.3428C18.0274 18.6579 17.7277 18.8529 17.3075 19.0158C16.9903 19.1391 16.5138 19.2856 15.6364 19.3256C14.6875 19.3688 14.4028 19.3781 11.9996 19.3781C9.59648 19.3781 9.31175 19.3688 8.36292 19.3256C7.48553 19.2856 7.00897 19.1391 6.69174 19.0158C6.27162 18.8526 5.9719 18.6575 5.65681 18.3428C5.34172 18.0277 5.14667 17.728 4.98377 17.3078C4.86052 16.9906 4.71405 16.514 4.67404 15.6366C4.63081 14.6878 4.62152 14.403 4.62152 11.9998C4.62152 9.59661 4.63081 9.31224 4.67404 8.36302C4.71405 7.48562 4.86052 7.00905 4.98377 6.69181C5.14703 6.27169 5.34208 5.97196 5.65681 5.65686C5.9719 5.34177 6.27162 5.14671 6.69174 4.9838C7.00897 4.86055 7.48553 4.71408 8.36292 4.67407C9.31211 4.63084 9.59648 4.62155 11.9996 4.62155Z" fill="black"/>
</svg>
