<svg width="24" height="24" viewBox="0 0 24 24" fill="none" xmlns="http://www.w3.org/2000/svg">
<path d="M6.8695 13.7245C7.26227 13.4044 7.84135 13.4268 8.20739 13.7929C8.5733 14.1589 8.59587 14.738 8.27575 15.1308L8.20739 15.2069L7.41442 15.9999H18.5004C19.0525 16.0001 19.5003 16.4478 19.5004 16.9999C19.5004 17.5521 19.0525 17.9997 18.5004 17.9999H7.41442L8.20739 18.7929C8.5977 19.1833 8.59765 19.8164 8.20739 20.2069C7.81691 20.5974 7.18386 20.5973 6.79333 20.2069L5.00036 18.414C4.21941 17.6329 4.21941 16.3669 5.00036 15.5858L6.79333 13.7929L6.8695 13.7245ZM15.7933 3.79288C16.1595 3.42697 16.7385 3.40423 17.1312 3.72452L17.2074 3.79288L19.0004 5.58585C19.7811 6.36681 19.781 7.63297 19.0004 8.41397L17.2074 10.2069C16.8169 10.5974 16.1839 10.5973 15.7933 10.2069C15.4028 9.81642 15.4028 9.1834 15.7933 8.79288L16.5863 7.99991H5.50036C4.94807 7.99991 4.50036 7.55219 4.50036 6.99991C4.5004 6.44766 4.9481 5.99991 5.50036 5.99991H16.5863L15.7933 5.20694L15.725 5.13077C15.4046 4.73799 15.4272 4.15899 15.7933 3.79288Z" fill="black"/>
</svg>
