<svg width="24" height="24" viewBox="0 0 24 24" fill="none" xmlns="http://www.w3.org/2000/svg">
<path d="M17.0001 4.50037C17.5523 4.50042 18.0001 4.94811 18.0001 5.50037V16.5863L18.7931 15.7933L18.8692 15.725C19.262 15.4046 19.841 15.4272 20.2071 15.7933C20.573 16.1595 20.5958 16.7385 20.2755 17.1312L20.2071 17.2074L18.4142 19.0004C17.6332 19.7811 16.367 19.781 15.586 19.0004L13.7931 17.2074C13.4026 16.8169 13.4027 16.1839 13.7931 15.7933C14.1836 15.4028 14.8166 15.4028 15.2071 15.7933L16.0001 16.5863V5.50037C16.0001 4.94808 16.4478 4.50037 17.0001 4.50037ZM5.58603 5.00037C6.36706 4.21942 7.63313 4.21942 8.41415 5.00037L10.2071 6.79333L10.2755 6.86951C10.5956 7.26228 10.5732 7.84136 10.2071 8.2074C9.84107 8.57331 9.26195 8.59587 8.86923 8.27576L8.79306 8.2074L8.00009 7.41443V18.5004C7.9999 19.0525 7.55221 19.5003 7.00009 19.5004C6.44793 19.5004 6.00028 19.0525 6.00009 18.5004V7.41443L5.20712 8.2074C4.81666 8.59771 4.18356 8.59765 3.79306 8.2074C3.40258 7.81692 3.40267 7.18387 3.79306 6.79333L5.58603 5.00037Z" fill="black"/>
</svg>
