<svg width="24" height="24" viewBox="0 0 24 24" fill="none" xmlns="http://www.w3.org/2000/svg">
<path d="M10.6104 3.65483C10.91 1.56144 13.9996 1.7812 14 3.89604V20.1031C14 22.2184 10.9096 22.4383 10.6104 20.3443C10.5825 20.1499 10.4802 19.9736 10.3252 19.8531L6.65723 16.9996H4C2.89543 16.9996 2 16.1041 2 14.9996V8.99956C2.00023 7.89519 2.89558 6.99956 4 6.99956H6.65723L10.3252 4.14604C10.4802 4.02541 10.5826 3.84927 10.6104 3.65483ZM12 5.28276C11.8687 5.44478 11.7209 5.59506 11.5537 5.72514L8 8.48784V15.5103L11.5537 18.274C11.7207 18.4039 11.8688 18.5536 12 18.7154V5.28276ZM16 5.99956C19.3136 5.99956 21.9998 8.68605 22 11.9996C22 15.3133 19.3137 17.9996 16 17.9996V15.9996C18.2091 15.9996 20 14.2087 20 11.9996C19.9998 9.79062 18.209 7.99956 16 7.99956V5.99956ZM4 14.9996H6V8.99956H4V14.9996ZM16 9.99956C17.1044 9.99956 17.9998 10.8952 18 11.9996C18 13.1041 17.1046 13.9996 16 13.9996V9.99956Z" fill="black"/>
</svg>
