<svg width="24" height="24" viewBox="0 0 24 24" fill="none" xmlns="http://www.w3.org/2000/svg">
<path d="M2.29297 2.29303C2.68349 1.90251 3.31651 1.90251 3.70703 2.29303L7.64355 6.22955L10.3252 4.14557C10.4801 4.02494 10.5826 3.8487 10.6104 3.65436C10.9103 1.56163 13.9991 1.78134 14 3.89557V12.586L17.2207 15.8067C18.8326 15.2908 20 13.7823 20 11.9991C19.9995 9.79037 18.2088 7.99908 16 7.99908V5.99908C19.3134 5.99908 21.9995 8.6858 22 11.9991C22 14.3229 20.6773 16.3349 18.7451 17.3311L21.707 20.293C22.0975 20.6836 22.0975 21.3166 21.707 21.7071C21.3165 22.0976 20.6835 22.0976 20.293 21.7071L2.29297 3.70709C1.90245 3.31658 1.90247 2.68356 2.29297 2.29303ZM4 9.32721V14.9991H6V11.3272L8 13.3272V15.5098L11.5537 18.2735C11.7206 18.4033 11.8688 18.5533 12 18.7149V17.3272L14 19.3272V20.1026C14 22.218 10.9096 22.4378 10.6104 20.3438C10.5824 20.1496 10.4801 19.9731 10.3252 19.8526L6.65723 16.9991H4C2.89543 16.9991 2 16.1037 2 14.9991V8.99908C2.00021 8.53071 2.16176 8.09968 2.43164 7.75885L4 9.32721ZM16 9.99908C17.1043 9.99908 17.9995 10.8949 18 11.9991C18 13.1037 17.1046 13.9991 16 13.9991V9.99908ZM12 5.28229C11.8687 5.44423 11.7208 5.59463 11.5537 5.72467L9.06934 7.65533L12 10.586V5.28229Z" fill="black"/>
</svg>
