<svg width="24" height="24" viewBox="0 0 24 24" fill="none" xmlns="http://www.w3.org/2000/svg">
<path d="M7 15C8.65685 15 10 16.3431 10 18C10 19.6569 8.65685 21 7 21C5.34315 21 4 19.6569 4 18C4 16.3431 5.34315 15 7 15ZM18 15C19.6569 15 21 16.3431 21 18C21 19.6569 19.6569 21 18 21C16.3431 21 15 19.6569 15 18C15 16.3431 16.3431 15 18 15ZM7 17C6.44772 17 6 17.4477 6 18C6 18.5523 6.44772 19 7 19C7.55228 19 8 18.5523 8 18C8 17.4477 7.55228 17 7 17ZM18 17C17.4477 17 17 17.4477 17 18C17 18.5523 17.4477 19 18 19C18.5523 19 19 18.5523 19 18C19 17.4477 18.5523 17 18 17ZM7.5 3C9.45912 3 11.1243 4.2525 11.7422 6H13C13.5523 6 14 6.44772 14 7C14 7.55228 13.5523 8 13 8H11.9717C11.8953 8.69103 11.6617 9.33404 11.3086 9.89453L13 11.5859V11C13 10.4477 13.4477 10 14 10C14.5523 10 15 10.4477 15 11V14C15 14.5523 14.5523 15 14 15H11C10.4477 15 10 14.5523 10 14C10 13.4477 10.4477 13 11 13H11.5859L9.89453 11.3086C9.33407 11.6617 8.69099 11.8943 8 11.9707V13C8 13.5523 7.55228 14 7 14C6.44772 14 6 13.5523 6 13V11.7422C4.2525 11.1243 3 9.45912 3 7.5C3 5.01472 5.01472 3 7.5 3ZM7.5 5C6.11929 5 5 6.11929 5 7.5C5 8.88071 6.11929 10 7.5 10C8.88071 10 10 8.88071 10 7.5C10 6.11929 8.88071 5 7.5 5ZM18 4C19.6569 4 21 5.34315 21 7C21 8.65685 19.6569 10 18 10C16.3431 10 15 8.65685 15 7C15 5.34315 16.3431 4 18 4ZM18 6C17.4477 6 17 6.44772 17 7C17 7.55228 17.4477 8 18 8C18.5523 8 19 7.55228 19 7C19 6.44772 18.5523 6 18 6Z" fill="black"/>
</svg>
