<svg width="24" height="24" viewBox="0 0 24 24" fill="none" xmlns="http://www.w3.org/2000/svg">
<path d="M12 2C17.5228 2 22 6.47715 22 12C22 17.5228 17.5228 22 12 22C6.47715 22 2 17.5228 2 12C2 6.47715 6.47715 2 12 2ZM15.4863 8.12598C15.0039 7.85756 14.3947 8.03137 14.126 8.51367L10.9854 14.1523L9.80664 12.5449C9.48004 12.0996 8.85357 12.0035 8.4082 12.3301C7.96321 12.6567 7.86705 13.2823 8.19336 13.7275L9.37207 15.335C10.2339 16.5099 12.0232 16.398 12.7324 15.125L15.874 9.48633C16.1424 9.00395 15.9686 8.39469 15.4863 8.12598ZM9 13.1367L8.19336 13.7275L9.80664 12.5449L9 13.1367Z" fill="black"/>
</svg>
