<svg width="24" height="24" viewBox="0 0 24 24" fill="none" xmlns="http://www.w3.org/2000/svg">
<path d="M12 19C12.5523 19 13 19.4477 13 20V21C13 21.5523 12.5523 22 12 22C11.4477 22 11 21.5523 11 21V20C11 19.4477 11.4477 19 12 19ZM5.63574 16.9502C6.02627 16.5597 6.65928 16.5597 7.0498 16.9502C7.44032 17.3407 7.44033 17.9737 7.0498 18.3643L6.34277 19.0713C5.95223 19.4615 5.31913 19.4617 4.92871 19.0713C4.53829 18.6809 4.5385 18.0478 4.92871 17.6572L5.63574 16.9502ZM16.9502 16.9502C17.3407 16.5597 17.9737 16.5597 18.3643 16.9502L19.0713 17.6572C19.4615 18.0478 19.4617 18.6809 19.0713 19.0713C18.6809 19.4617 18.0478 19.4615 17.6572 19.0713L16.9502 18.3643C16.5597 17.9737 16.5597 17.3407 16.9502 16.9502ZM12 7C14.7614 7 17 9.23858 17 12C17 14.7614 14.7614 17 12 17C9.23858 17 7 14.7614 7 12C7 9.23858 9.23858 7 12 7ZM12 9C10.3431 9 9 10.3431 9 12C9 13.6569 10.3431 15 12 15C13.6569 15 15 13.6569 15 12C15 10.3431 13.6569 9 12 9ZM4 11C4.55228 11 5 11.4477 5 12C4.99999 12.5523 4.55228 13 4 13H3C2.44772 13 2.00001 12.5523 2 12C2 11.4477 2.44772 11 3 11H4ZM21 11C21.5523 11 22 11.4477 22 12C22 12.5523 21.5523 13 21 13H20C19.4477 13 19 12.5523 19 12C19 11.4477 19.4477 11 20 11H21ZM4.92871 4.92871C5.31914 4.53829 5.95223 4.53848 6.34277 4.92871L7.0498 5.63574C7.44033 6.02627 7.44033 6.65928 7.0498 7.0498C6.65928 7.44032 6.02626 7.44033 5.63574 7.0498L4.92871 6.34277C4.53849 5.95223 4.53829 5.31914 4.92871 4.92871ZM17.6572 4.92871C18.0478 4.53847 18.6809 4.53828 19.0713 4.92871C19.4617 5.31914 19.4615 5.95223 19.0713 6.34277L18.3643 7.0498C17.9737 7.44033 17.3407 7.44032 16.9502 7.0498C16.5597 6.65928 16.5597 6.02627 16.9502 5.63574L17.6572 4.92871ZM12 2C12.5523 2 13 2.44772 13 3V4C13 4.55228 12.5523 5 12 5C11.4477 5 11 4.55228 11 4V3C11 2.44772 11.4477 2 12 2Z" fill="black"/>
</svg>
