<svg width="24" height="24" viewBox="0 0 24 24" fill="none" xmlns="http://www.w3.org/2000/svg">
<path d="M16 2C18.091 2 19.8058 3.60452 19.9834 5.64941C20.743 6.03992 21.4072 6.50137 21.918 7.03711C22.56 7.7106 22.9999 8.54515 23 9.5C22.9999 10.768 22.2332 11.8084 21.2275 12.5762C20.8635 12.8541 20.4508 13.108 20 13.3408V18C20 20.2091 18.2091 22 16 22H8C5.79086 22 4 20.2091 4 18V13.3408C3.24744 12.9524 2.58901 12.4946 2.08203 11.9629C1.44003 11.2894 1.00007 10.4548 1 9.5C1.00007 8.54515 1.43997 7.7106 2.08203 7.03711C2.59265 6.50155 3.25633 6.03984 4.01562 5.64941C4.19321 3.60448 5.909 2 8 2H16ZM8 4C6.89543 4 6 4.89543 6 6V12.0361C6.97673 12.3971 8.1386 12.6778 9.42578 12.8398L9.29297 12.707L9.22461 12.6309C8.90429 12.2381 8.92696 11.6591 9.29297 11.293C9.65894 10.9271 10.2381 10.9037 10.6309 11.2236L10.707 11.293L12.707 13.293C13.0974 13.6835 13.0974 14.3165 12.707 14.707L10.707 16.707C10.3165 17.0974 9.68347 17.0974 9.29297 16.707C8.9026 16.3165 8.90259 15.6835 9.29297 15.293L9.70117 14.8838C8.36396 14.7488 7.11289 14.4944 6 14.1465V18C6 19.1046 6.89543 20 8 20H12C11.4477 20 11 19.5523 11 19C11 18.4477 11.4477 18 12 18C12.5523 18 13 18.4477 13 19C13 19.5523 12.5523 20 12 20H16C17.1046 20 18 19.1046 18 18V14.1484C17.7559 14.2248 17.5068 14.2989 17.252 14.3652C16.7175 14.5044 16.1714 14.1839 16.0322 13.6494C15.8934 13.1151 16.2137 12.5688 16.748 12.4297C17.1966 12.3129 17.6141 12.179 18 12.0361V6C18 4.89543 17.1046 4 16 4H8ZM4 8.00391C3.81891 8.14111 3.66129 8.27855 3.5293 8.41699C3.13436 8.83127 3.00007 9.19617 3 9.5C3.00007 9.80373 3.13465 10.1679 3.5293 10.582C3.66124 10.7204 3.81901 10.8578 4 10.9951V8.00391ZM20 10.9951C20.0043 10.9919 20.0094 10.9896 20.0137 10.9863C20.7604 10.4163 20.9999 9.8974 21 9.5C20.9999 9.19617 20.8656 8.83127 20.4707 8.41699C20.3387 8.27855 20.1811 8.14111 20 8.00391V10.9951Z" fill="black"/>
</svg>
