<svg width="24" height="24" viewBox="0 0 24 24" fill="none" xmlns="http://www.w3.org/2000/svg">
<path d="M12 2C17.5228 2 22 6.47715 22 12C22 17.5228 17.5228 22 12 22C6.47715 22 2 17.5228 2 12C2 6.47715 6.47715 2 12 2ZM4.06445 13C4.51581 16.6185 7.38154 19.4842 11 19.9355V18.4229C8.21097 17.9921 6.00785 15.789 5.57715 13H4.06445ZM18.4229 13C17.9921 15.789 15.789 17.9921 13 18.4229V19.9355C16.6185 19.4842 19.4842 16.6185 19.9355 13H18.4229ZM7.61328 13C7.99512 14.6821 9.31793 16.0049 11 16.3867V14.8252C10.1485 14.5238 9.47513 13.8515 9.17383 13H7.61328ZM14.8262 13C14.5249 13.8515 13.8515 14.5238 13 14.8252V16.3867C14.6821 16.0049 16.0049 14.6821 16.3867 13H14.8262ZM12 11C11.4477 11 11 11.4477 11 12C11 12.5523 11.4477 13 12 13C12.5523 13 13 12.5523 13 12C13 11.4477 12.5523 11 12 11ZM13 9.17383C13.8516 9.47517 14.5248 10.1484 14.8262 11H16.3867C16.0049 9.31786 14.6822 7.99408 13 7.6123V9.17383ZM13 5.57617C15.7891 6.00682 17.9921 8.21092 18.4229 11H19.9355C19.4842 7.3815 16.6185 4.51479 13 4.06348V5.57617ZM11 4.06348C7.38148 4.51479 4.51582 7.3815 4.06445 11H5.57715C6.00786 8.21092 8.2109 6.00682 11 5.57617V4.06348ZM11 7.6123C9.31783 7.99408 7.99513 9.31786 7.61328 11H9.17383C9.47517 10.1484 10.1484 9.47517 11 9.17383V7.6123Z" fill="black"/>
</svg>
