<svg width="24" height="24" viewBox="0 0 24 24" fill="none" xmlns="http://www.w3.org/2000/svg">
<path d="M10.7666 3.59641C11.7409 1.74563 14.283 1.47702 15.6221 3.08372C16.2362 3.82064 16.4515 4.81156 16.1992 5.73704L15.3096 8.99973H19.2256C21.2728 9.00002 22.7182 11.0057 22.0713 12.948L20.4043 17.948C19.996 19.173 18.8498 19.9997 17.5586 19.9997H12C11.4477 19.9997 11 19.552 11 18.9997C11.0001 18.4476 11.4478 17.9997 12 17.9997H17.5586C17.9889 17.9997 18.3707 17.7243 18.5068 17.3161L20.1738 12.3161C20.3894 11.6688 19.9078 11 19.2256 10.9997H14C13.6884 10.9997 13.3943 10.8547 13.2051 10.6072C13.0161 10.3596 12.9533 10.0375 13.0352 9.73704L14.2695 5.21067C14.35 4.91546 14.2808 4.59905 14.085 4.36399C13.6577 3.85198 12.8469 3.93789 12.5361 4.52805L9 11.2458V16.9997C9 18.6566 7.65685 19.9997 6 19.9997H5C3.34315 19.9997 2 18.6566 2 16.9997V9.99973C2.00014 8.343 3.34323 6.99973 5 6.99973H6C6.96185 6.99973 7.81624 7.45402 8.36523 8.15794L10.7666 3.59641ZM5 8.99973C4.4478 8.99973 4.00014 9.44757 4 9.99973V16.9997C4 17.552 4.44772 17.9997 5 17.9997H6C6.55228 17.9997 7 17.552 7 16.9997V9.99973C6.99986 9.44757 6.5522 8.99973 6 8.99973H5Z" fill="black"/>
</svg>
