<svg width="24" height="24" viewBox="0 0 24 24" fill="none" xmlns="http://www.w3.org/2000/svg">
<path d="M11.2812 12.7744C12.2762 10.5777 15.0385 10.3498 16.5 11.8428C17.9524 10.3812 20.6708 10.5902 21.6836 12.752C22.2891 14.0449 22.0846 15.5722 21.1602 16.6602L18.0244 20.3506C17.2257 21.2903 15.7743 21.2903 14.9756 20.3506L11.8252 16.6436C10.9111 15.5678 10.699 14.0604 11.2812 12.7744ZM8 19C8.55228 19 9 19.4477 9 20C9 20.5523 8.55228 21 8 21H4C3.44772 21 3 20.5523 3 20C3 19.4477 3.44772 19 4 19H8ZM15.3691 13.7803C15.0715 12.6887 13.5705 12.5691 13.1035 13.5996C12.8405 14.1806 12.9359 14.8615 13.3486 15.3477L16.5 19.0557L19.6367 15.3652C20.054 14.8739 20.1465 14.1834 19.873 13.5996C19.3928 12.5753 17.8925 12.7173 17.6123 13.8135L17.4688 14.375C17.3564 14.8149 16.9618 15.1243 16.5078 15.1279C16.0538 15.1315 15.6544 14.8287 15.5352 14.3906L15.3691 13.7803ZM8 15C8.55228 15 9 15.4477 9 16C9 16.5523 8.55228 17 8 17H4C3.44772 17 3 16.5523 3 16C3 15.4477 3.44772 15 4 15H8ZM8 11C8.55228 11 9 11.4477 9 12C9 12.5523 8.55228 13 8 13H4C3.44772 13 3 12.5523 3 12C3 11.4477 3.44772 11 4 11H8ZM20 7C20.5523 7 21 7.44772 21 8C21 8.55228 20.5523 9 20 9H4C3.44772 9 3 8.55228 3 8C3 7.44772 3.44772 7 4 7H20ZM20 3C20.5523 3 21 3.44772 21 4C21 4.55228 20.5523 5 20 5H4C3.44772 5 3 4.55228 3 4C3 3.44772 3.44772 3 4 3H20Z" fill="black"/>
</svg>
