<svg width="24" height="24" viewBox="0 0 24 24" fill="none" xmlns="http://www.w3.org/2000/svg">
<path d="M12 17C12.5523 17 13 17.4477 13 18C13 18.5523 12.5523 19 12 19C11.4477 19 11 18.5523 11 18C11 17.4477 11.4477 17 12 17ZM12 5C14.7614 5 17 7.23858 17 10C17 11.259 16.4075 12.4448 15.4004 13.2002L13 15C13 15.5523 12.5523 16 12 16C11.4477 16 11 15.5523 11 15C11 14.3706 11.2964 13.7781 11.7998 13.4004L14.2002 11.5996C14.7036 11.2219 15 10.6294 15 10C15 8.34315 13.6569 7 12 7C10.3431 7 9 8.34315 9 10C9 10.5523 8.55228 11 8 11C7.44772 11 7 10.5523 7 10C7 7.23858 9.23858 5 12 5Z" fill="black"/>
</svg>
