<svg width="24" height="24" viewBox="0 0 24 24" fill="none" xmlns="http://www.w3.org/2000/svg">
<path d="M19.8041 3.01931C20.3454 2.91131 20.8725 3.26226 20.9809 3.80349L22.7465 12.6287C22.8548 13.1701 22.5027 13.6969 21.9614 13.8054C21.4199 13.9136 20.893 13.5627 20.7846 13.0213L19.4926 6.56228L12.8325 16.5545C12.6664 16.8036 12.397 16.9652 12.0991 16.9949C11.801 17.0244 11.5052 16.9186 11.2934 16.7068L8.27387 13.6873L4.89497 20.447C4.64802 20.9409 4.0471 21.1411 3.55317 20.8943C3.05919 20.6473 2.85891 20.0465 3.1059 19.5525L7.1059 11.5525C7.24971 11.2652 7.52312 11.0639 7.84028 11.0125C8.1574 10.9612 8.4803 11.0656 8.70747 11.2927L11.8442 14.4295L17.8286 5.45388L11.3715 6.74587C10.83 6.85418 10.3031 6.50228 10.1948 5.96072C10.0867 5.41929 10.4375 4.89229 10.979 4.78396L19.8041 3.01931Z" fill="black"/>
</svg>
