<svg width="24" height="24" viewBox="0 0 24 24" fill="none" xmlns="http://www.w3.org/2000/svg">
<path d="M8 3C8.55228 3 8.99999 3.44772 9 4V5H13L13.1025 5.00488C13.6067 5.05621 14 5.48233 14 6C14 6.51767 13.6067 6.94379 13.1025 6.99512L13 7L12.9961 7.23633C12.9152 9.62812 11.6121 11.7625 9.84766 13.3008C10.8346 13.7322 11.8768 13.9781 12.8828 13.9961L15.1055 9.55273L15.1768 9.43164C15.3617 9.16371 15.6686 9.00004 16 9C16.3788 9 16.7251 9.21397 16.8945 9.55273L21.8945 19.5527L21.9355 19.6465C22.1153 20.1204 21.9104 20.663 21.4473 20.8945C20.9842 21.126 20.4275 20.9642 20.1562 20.5361L20.1055 20.4473L18.8818 18H13.1182L11.8945 20.4473C11.6475 20.9412 11.0467 21.1415 10.5527 20.8945C10.0588 20.6475 9.85854 20.0467 10.1055 19.5527L11.916 15.9297C10.5567 15.7634 9.21342 15.2956 8 14.6074C6.46421 15.4785 4.7202 16 3 16C2.44772 16 2.00001 15.5523 2 15C2 14.4477 2.44772 14 3 14C4.04182 14 5.12626 13.7487 6.15137 13.3008C4.38724 11.7625 3.08482 9.62784 3.00391 7.23633L3 7L2.89746 6.99512C2.39334 6.94379 2.00001 6.51767 2 6C2.00001 5.44772 2.44772 5 3 5H7V4C7.00001 3.44772 7.44772 3 8 3ZM14.1182 15.999H17.8809L16 12.2363L14.1182 15.999ZM5 7L5.01172 7.33398C5.12489 8.99856 6.07447 10.6079 7.53418 11.8545C7.68474 11.9831 7.84121 12.1049 8 12.2236C8.15881 12.1049 8.31524 11.9831 8.46582 11.8545C10.023 10.5247 11 8.78213 11 7H5Z" fill="black"/>
</svg>
