<svg width="24" height="24" viewBox="0 0 24 24" fill="none" xmlns="http://www.w3.org/2000/svg">
<path d="M17 12C19.2091 12 21 13.7909 21 16V17C21 19.2091 19.2091 21 17 21H16C14.1362 21 12.57 19.7252 12.126 18H4C3.44772 18 3 17.5523 3 17C3 16.4477 3.44772 16 4 16H12C12 13.7909 13.7909 12 16 12H17ZM16 14C14.8954 14 14 14.8954 14 16V17C14 18.1046 14.8954 19 16 19H17C18.1046 19 19 18.1046 19 17V16C19 14.8954 18.1046 14 17 14H16ZM7 3C8.86384 3 10.43 4.27477 10.874 6H20C20.5523 6.00002 21 6.44773 21 7C21 7.55227 20.5523 7.99998 20 8H11C11 10.2091 9.20914 12 7 12H6C3.79086 12 2 10.2091 2 8V7C2 4.79086 3.79086 3 6 3H7ZM6 5C4.89543 5 4 5.89543 4 7V8C4 9.10457 4.89543 10 6 10H7C8.10457 10 9 9.10457 9 8V7C9 5.89543 8.10457 5 7 5H6Z" fill="black"/>
</svg>
