<svg width="24" height="24" viewBox="0 0 24 24" fill="none" xmlns="http://www.w3.org/2000/svg">
<path d="M2.29303 2.29302C2.68355 1.9025 3.31657 1.9025 3.70709 2.29302L8.33698 6.9229L10.2227 3.26665C10.9677 1.82254 13.0326 1.82229 13.7774 3.26665L15.8712 7.32915L20.3292 8.11919C21.898 8.39741 22.5273 10.309 21.4307 11.4649L18.2501 14.8165L18.5792 17.1651L21.7071 20.293C22.0976 20.6836 22.0976 21.3166 21.7071 21.7071C21.3166 22.0976 20.6836 22.0976 20.293 21.7071L2.29303 3.70708C1.90251 3.31656 1.90251 2.68355 2.29303 2.29302ZM4.6485 9.97662L4.01959 10.0879L7.20026 13.4395C7.61962 13.8814 7.815 14.4905 7.73053 15.0938L7.08405 19.6954L11.1006 17.6729C11.4259 17.5093 11.785 17.4422 12.1387 17.4669L16.2549 21.5831C16.1752 21.5546 16.0954 21.5211 16.0167 21.4815L12.0001 19.46L7.98346 21.4815C6.54239 22.2065 4.87957 21.0146 5.10358 19.417L5.75006 14.8165L2.5694 11.4649C1.6391 10.4848 1.9498 8.96091 3.02252 8.35064L4.6485 9.97662ZM9.90631 8.24517C9.87863 8.29884 9.8457 8.34905 9.81354 8.39947L16.251 14.837C16.2456 14.3209 16.4401 13.8187 16.7999 13.4395L19.9805 10.0879L15.5225 9.29888C14.9082 9.18995 14.3797 8.79977 14.0938 8.24517L12.0001 4.18267L9.90631 8.24517Z" fill="black"/>
</svg>
