<svg width="24" height="24" viewBox="0 0 24 24" fill="none" xmlns="http://www.w3.org/2000/svg">
<path d="M12 2C14.7614 2 17 4.23858 17 7C17 7.55228 16.5523 8 16 8C15.4477 8 15 7.55228 15 7C15 5.34315 13.6569 4 12 4C10.3431 4 9 5.34315 9 7V10H16C18.2091 10 20 11.7909 20 14V18C20 20.2091 18.2091 22 16 22H8C5.79086 22 4 20.2091 4 18V14C4 12.1362 5.27477 10.57 7 10.126V7C7 4.23858 9.23858 2 12 2ZM8 12C6.89543 12 6 12.8954 6 14V18C6 19.1046 6.89543 20 8 20H11V19.2002C11 18.6479 11.4477 18.2002 12 18.2002C12.5523 18.2002 13 18.6479 13 19.2002V20H16C17.1046 20 18 19.1046 18 18V14C18 12.8954 17.1046 12 16 12H8Z" fill="black"/>
</svg>
