<svg width="24" height="24" viewBox="0 0 24 24" fill="none" xmlns="http://www.w3.org/2000/svg">
<path d="M2.29302 2.29303C2.68355 1.90251 3.31656 1.90251 3.70708 2.29303L9.30669 7.89264L14.0577 4.33209C13.9341 3.98063 14.0121 3.57411 14.293 3.29303C14.6835 2.90276 15.3166 2.90272 15.7071 3.29303L20.7071 8.29303L20.7754 8.3692C21.0956 8.7619 21.0729 9.34103 20.7071 9.70709C20.4258 9.98825 20.0187 10.0654 19.667 9.94147L16.1055 14.6915L21.7071 20.293C22.0976 20.6836 22.0976 21.3166 21.7071 21.7071C21.3166 22.0976 20.6836 22.0976 20.293 21.7071L2.29302 3.70709C1.9025 3.31657 1.9025 2.68355 2.29302 2.29303ZM6.34673 11.6749L6.12115 11.7071L12.292 17.878L12.3243 17.6524L14.0928 19.421L13.9903 20.1417C13.9367 20.5163 13.6754 20.8284 13.3165 20.9483C12.9573 21.0679 12.5608 20.9747 12.293 20.7071L8.50005 16.9141L5.20708 20.2071C4.81661 20.5973 4.18349 20.5973 3.79302 20.2071C3.40271 19.8166 3.40275 19.1835 3.79302 18.793L7.08599 15.5001L3.29302 11.7071C3.02534 11.4393 2.93214 11.0429 3.05181 10.6837C3.17164 10.3247 3.48385 10.0635 3.85845 10.0098L4.57818 9.90631L6.34673 11.6749ZM10.7354 9.32135L14.6768 13.2628L18.1797 8.59381L15.4053 5.8194L10.7354 9.32135Z" fill="black"/>
</svg>
