<svg width="24" height="24" viewBox="0 0 24 24" fill="none" xmlns="http://www.w3.org/2000/svg">
<path d="M11.3691 12.2246C11.7619 11.9043 12.3409 11.9269 12.707 12.293L14.707 14.293L14.7754 14.3691C15.0957 14.7619 15.0731 15.3409 14.707 15.707C14.3409 16.0731 13.7619 16.0957 13.3691 15.7754L13.293 15.707L13 15.4141V20C13 20.5523 12.5523 21 12 21C11.4477 21 11 20.5523 11 20V15.4141L10.707 15.707C10.3165 16.0976 9.68349 16.0976 9.29297 15.707C8.90244 15.3165 8.90244 14.6835 9.29297 14.293L11.293 12.293L11.3691 12.2246ZM13 3C16.866 3 20 6.13401 20 10C20 10.5625 19.9326 11.1103 19.8066 11.6357C21.1197 12.421 21.9999 13.857 22 15.5C21.9998 17.9851 19.9852 20 17.5 20H16.5C15.9478 20 15.5002 19.5521 15.5 19C15.5002 18.4479 15.9478 18 16.5 18H17.5C18.8806 18 19.9998 16.8805 20 15.5C19.9998 14.4631 19.3678 13.5715 18.4658 13.1934L18.2822 13.125L18.1865 13.0879C17.9839 12.9977 17.8241 12.8455 17.7217 12.6621L17.6787 12.5762C17.6726 12.5624 17.6676 12.5482 17.6621 12.5342C17.6358 12.4661 17.6164 12.3952 17.6055 12.3223L17.6016 12.2988C17.6 12.2869 17.5997 12.2747 17.5986 12.2627C17.5944 12.2156 17.5931 12.168 17.5957 12.1201C17.5965 12.1045 17.598 12.0889 17.5996 12.0732C17.601 12.0596 17.6025 12.0459 17.6045 12.0322C17.6075 12.011 17.6118 11.9899 17.6162 11.9688C17.6186 11.9577 17.6213 11.9466 17.624 11.9355C17.6293 11.914 17.6348 11.8925 17.6416 11.8711C17.6425 11.8682 17.6436 11.8652 17.6445 11.8623C17.6457 11.8589 17.6463 11.855 17.6475 11.8516C17.6521 11.8379 17.6568 11.8241 17.6621 11.8105C17.8798 11.2504 18 10.6405 18 10C18 7.23858 15.7614 5 13 5C10.2386 5 8 7.23858 8 10C8 10.0033 7.99905 10.0065 7.99902 10.0098C8.00841 10.5206 7.62798 10.964 7.11035 11.0215C5.36147 11.2148 4.00006 12.6992 4 14.5C4.00006 16.3727 5.47087 17.9016 7.32031 17.9951L7.5 18L7.60254 18.0049C8.10662 18.0562 8.49994 18.4824 8.5 19C8.49994 19.5176 8.10663 19.9438 7.60254 19.9951L7.5 20L7.2168 19.9932C4.31088 19.8458 2.00006 17.4425 2 14.5C2.00006 11.9653 3.71419 9.83199 6.04688 9.19434C6.44646 5.70787 9.40652 3 13 3Z" fill="black"/>
</svg>
