<svg width="24" height="24" viewBox="0 0 24 24" fill="none" xmlns="http://www.w3.org/2000/svg">
<path d="M19.2931 17.2933C19.6836 16.9028 20.3166 16.9028 20.7072 17.2933C21.0975 17.6839 21.0976 18.3169 20.7072 18.7074L19.2931 20.1215C18.7306 20.6839 17.9674 21.0003 17.172 21.0004H6.82825C6.03281 21.0003 5.26967 20.6839 4.70715 20.1215L3.29309 18.7074C2.90261 18.3169 2.9027 17.6839 3.29309 17.2933C3.68362 16.9028 4.31663 16.9028 4.70715 17.2933L6.12122 18.7074C6.30866 18.8947 6.56325 19.0003 6.82825 19.0004H17.172C17.437 19.0003 17.6916 18.8948 17.879 18.7074L19.2931 17.2933ZM10.5861 3.50037C11.3671 2.71942 12.6332 2.71942 13.4142 3.50037L15.7072 5.79333C16.0975 6.18388 16.0976 6.81695 15.7072 7.2074C15.3167 7.59771 14.6836 7.59765 14.2931 7.2074L13.0001 5.91443V15.0004C12.9999 15.5525 12.5522 16.0003 12.0001 16.0004C11.448 16.0004 11.0003 15.5525 11.0001 15.0004V5.91443L9.70715 7.2074L9.63098 7.27576C9.23829 7.59594 8.65918 7.57326 8.29309 7.2074C7.92703 6.84133 7.90453 6.26228 8.22473 5.86951L8.29309 5.79333L10.5861 3.50037Z" fill="black"/>
</svg>
