<svg width="24" height="24" viewBox="0 0 24 24" fill="none" xmlns="http://www.w3.org/2000/svg">
<path d="M12 2C17.5228 2 22 6.47715 22 12C22 17.5228 17.5228 22 12 22C6.47715 22 2 17.5228 2 12C2 6.47715 6.47715 2 12 2ZM12 4C7.58172 4 4 7.58172 4 12C4 16.4183 7.58172 20 12 20C16.4183 20 20 16.4183 20 12C20 7.58172 16.4183 4 12 4ZM12 6C12.5523 6 13 6.44772 13 7H14C14.5523 7 15 7.44772 15 8C15 8.55228 14.5523 9 14 9H11C10.4477 9 10 9.44772 10 10C10 10.5523 10.4477 11 11 11H13C14.6569 11 16 12.3431 16 14C16 15.6569 14.6569 17 13 17C13 17.5523 12.5523 18 12 18C11.4477 18 11 17.5523 11 17H10C9.44772 17 9 16.5523 9 16C9 15.4477 9.44772 15 10 15H13C13.5523 15 14 14.5523 14 14C14 13.4477 13.5523 13 13 13H11C9.34315 13 8 11.6569 8 10C8 8.34315 9.34315 7 11 7C11 6.44772 11.4477 6 12 6Z" fill="black"/>
</svg>
