<svg width="24" height="24" viewBox="0 0 24 24" fill="none" xmlns="http://www.w3.org/2000/svg">
<path d="M10.625 13C12.3148 13 13.8213 13.7807 14.8066 15H17.875C20.1532 15 22 16.8468 22 19.125C22 20.7128 20.7128 22 19.125 22H5.625C3.62297 22 2 20.377 2 18.375C2 15.4065 4.40647 13 7.375 13H10.625ZM15.8223 17C15.9381 17.4389 16 17.8997 16 18.375C16 18.9594 15.8609 19.5111 15.6152 20H19.125C19.6082 20 20 19.6082 20 19.125C20 17.9514 19.0486 17 17.875 17H15.8223ZM7.375 15C5.51104 15 4 16.511 4 18.375C4 19.2725 4.72754 20 5.625 20H12.375C13.2725 20 14 19.2725 14 18.375C14 16.511 12.489 15 10.625 15H7.375ZM17 8C18.6569 8 20 9.34315 20 11C20 12.6569 18.6569 14 17 14C15.3431 14 14 12.6569 14 11C14 9.34315 15.3431 8 17 8ZM9 2C11.7614 2 14 4.23858 14 7C14 9.76142 11.7614 12 9 12C6.23858 12 4 9.76142 4 7C4 4.23858 6.23858 2 9 2ZM17 10C16.4477 10 16 10.4477 16 11C16 11.5523 16.4477 12 17 12C17.5523 12 18 11.5523 18 11C18 10.4477 17.5523 10 17 10ZM9 4C7.34315 4 6 5.34315 6 7C6 8.65685 7.34315 10 9 10C10.6569 10 12 8.65685 12 7C12 5.34315 10.6569 4 9 4Z" fill="black"/>
</svg>
