<svg width="24" height="24" viewBox="0 0 24 24" fill="none" xmlns="http://www.w3.org/2000/svg">
<path d="M14.5 13C15.0523 13 15.5 13.4477 15.5 14C15.5 14.5523 15.0523 15 14.5 15H9.375C7.51104 15 6 16.511 6 18.375C6 19.2725 6.72754 20 7.625 20H11.5C12.0523 20 12.5 20.4477 12.5 21C12.5 21.5523 12.0523 22 11.5 22H7.625C5.62297 22 4 20.377 4 18.375C4 15.4065 6.40647 13 9.375 13H14.5ZM15 17C15.5523 17 16 17.4477 16 18V21C16 21.5523 15.5523 22 15 22C14.4477 22 14 21.5523 14 21V18C14 17.4477 14.4477 17 15 17ZM18 14C18.5523 14 19 14.4477 19 15V21C19 21.5523 18.5523 22 18 22C17.4477 22 17 21.5523 17 21V15C17 14.4477 17.4477 14 18 14ZM21 16C21.5523 16 22 16.4477 22 17V21C22 21.5523 21.5523 22 21 22C20.4477 22 20 21.5523 20 21V17C20 16.4477 20.4477 16 21 16ZM12 2C14.7614 2 17 4.23858 17 7C17 9.76142 14.7614 12 12 12C9.23858 12 7 9.76142 7 7C7 4.23858 9.23858 2 12 2ZM12 4C10.3431 4 9 5.34315 9 7C9 8.65685 10.3431 10 12 10C13.6569 10 15 8.65685 15 7C15 5.34315 13.6569 4 12 4Z" fill="black"/>
</svg>
