<svg width="24" height="24" viewBox="0 0 24 24" fill="none" xmlns="http://www.w3.org/2000/svg">
<path d="M15.625 13C18.5935 13 21 15.4065 21 18.375C21 20.377 19.377 22 17.375 22H6.625C4.62297 22 3 20.377 3 18.375C3 15.4065 5.40647 13 8.375 13H15.625ZM8.375 15C6.51104 15 5 16.511 5 18.375C5 19.2725 5.72754 20 6.625 20H17.375C18.2725 20 19 19.2725 19 18.375C19 16.511 17.489 15 15.625 15H8.375ZM12 2C14.7614 2 17 4.23858 17 7C17 9.76142 14.7614 12 12 12C9.23858 12 7 9.76142 7 7C7 4.23858 9.23858 2 12 2ZM12 4C10.3431 4 9 5.34315 9 7C9 8.65685 10.3431 10 12 10C13.6569 10 15 8.65685 15 7C15 5.34315 13.6569 4 12 4Z" fill="black"/>
</svg>
