<svg width="24" height="24" viewBox="0 0 24 24" fill="none" xmlns="http://www.w3.org/2000/svg">
<path d="M11.2706 2.28854C11.7239 2.03609 12.2764 2.03609 12.7296 2.28854L12.8253 2.34615L14.3214 3.33248L16.1124 3.22701C16.7107 3.19185 17.2724 3.51658 17.5411 4.05221L18.3448 5.65475L19.9484 6.45943C20.4839 6.72822 20.8087 7.28997 20.7736 7.88815L20.6671 9.67818L21.6544 11.1753C21.9838 11.6758 21.984 12.3252 21.6544 12.8256L20.6671 14.3217L20.7736 16.1128C20.8086 16.7108 20.4839 17.2728 19.9484 17.5415L18.3448 18.3452L17.5411 19.9487C17.2723 20.4841 16.7105 20.809 16.1124 20.7739L14.3214 20.6674L12.8253 21.6547C12.3248 21.9842 11.6754 21.9842 11.1749 21.6547L9.67786 20.6674L7.88782 20.7739C7.2897 20.8091 6.72792 20.4841 6.45911 19.9487L5.65442 18.3452L4.05188 17.5415C3.51637 17.2728 3.19169 16.7108 3.22668 16.1128L3.33215 14.3217L2.34583 12.8256C2.01624 12.3252 2.01636 11.6758 2.34583 11.1753L3.33215 9.67818L3.22668 7.88815C3.1915 7.28993 3.51631 6.7282 4.05188 6.45943L5.65442 5.65475L6.45911 4.05221L6.51282 3.95455C6.77906 3.50947 7.25696 3.2332 7.77551 3.22506L7.88782 3.22701L9.67786 3.33248L11.1749 2.34615L11.2706 2.28854ZM15.4865 8.12545C15.0043 7.85744 14.3948 8.0313 14.1261 8.51315L10.9855 14.1518L9.80676 12.5444L9.00012 13.1362L8.19348 13.727L9.37219 15.3344C10.234 16.5094 12.0233 16.3974 12.7325 15.1245L15.8741 9.4858C16.1422 9.00355 15.9685 8.39414 15.4865 8.12545ZM9.80676 12.5444C9.48016 12.0995 8.85354 12.0033 8.40833 12.3296C7.96352 12.6561 7.86753 13.2818 8.19348 13.727L9.80676 12.5444Z" fill="black"/>
</svg>
