<svg width="24" height="24" viewBox="0 0 24 24" fill="none" xmlns="http://www.w3.org/2000/svg">
<path d="M7.4286 2.89443C10.4461 2.29093 13.5537 2.29095 16.5712 2.89443C18.8592 3.35211 20.6476 5.14061 21.1054 7.42861C21.7089 10.4461 21.7089 13.5537 21.1054 16.5712C20.6477 18.8592 18.8592 20.6477 16.5712 21.1054C13.5537 21.7089 10.4461 21.7089 7.4286 21.1054C5.1406 20.6476 3.35211 18.8592 2.89442 16.5712C2.29094 13.5537 2.29093 10.4461 2.89442 7.42861C3.35213 5.14061 5.14061 3.35214 7.4286 2.89443ZM16.1786 4.85537C13.4202 4.30372 10.5796 4.30371 7.82118 4.85537C6.32476 5.15469 5.15468 6.32476 4.85536 7.82119C4.3037 10.5796 4.30371 13.4202 4.85536 16.1786C5.15465 17.6751 6.32475 18.8451 7.82118 19.1444C10.5796 19.6961 13.4201 19.6961 16.1786 19.1444C17.6751 18.8451 18.8451 17.6751 19.1444 16.1786C19.6961 13.4201 19.6961 10.5796 19.1444 7.82119C18.8451 6.32476 17.6751 5.15466 16.1786 4.85537ZM9.99989 9.89248C10.0001 9.27525 10.6698 8.891 11.203 9.20205L14.8153 11.3085C15.3445 11.6172 15.3445 12.3826 14.8153 12.6913L11.203 14.7978C10.6697 15.1088 10 14.7247 9.99989 14.1073V9.89248Z" fill="black"/>
</svg>
