<svg width="24" height="24" viewBox="0 0 24 24" fill="none" xmlns="http://www.w3.org/2000/svg">
<path d="M10.0323 2.60622C12.3257 2.1946 14.6745 2.19458 16.9679 2.60622L17.8195 2.75856C19.3238 3.02871 20.5617 4.0967 21.0509 5.54469C22.0268 8.43488 22.016 11.5678 21.0197 14.4509L20.7247 15.3035C20.3497 16.3884 19.4399 17.2014 18.3204 17.4529C18.2323 17.7882 18.1335 18.1215 18.0197 18.4509L17.9669 18.6033C17.4359 20.1392 16.0859 21.2456 14.4757 21.4656L13.6046 21.5847C11.5339 21.8676 9.43124 21.8241 7.37415 21.4548L6.19641 21.2429C4.68238 20.9712 3.43564 19.8976 2.94348 18.4402C1.97101 15.5601 1.97097 12.4395 2.94348 9.55934C3.37328 8.28691 4.378 7.30622 5.63391 6.89723L6.01965 5.57985C6.44529 4.12312 7.65868 3.03253 9.15247 2.76442L10.0323 2.60622ZM13.6144 8.57497C11.5547 8.20528 9.44554 8.2053 7.38586 8.57497L6.54993 8.72438C5.75353 8.86732 5.09793 9.43341 4.83899 10.2C4.00679 12.6648 4.00683 15.3347 4.83899 17.7996C5.09787 18.5663 5.75345 19.1322 6.54993 19.2752L7.72766 19.4861C9.57868 19.8183 11.4708 19.8578 13.3341 19.6033L14.2052 19.4841C15.0683 19.3662 15.7926 18.7733 16.0773 17.95L16.129 17.7976C16.9807 15.3332 16.9904 12.6557 16.1564 10.1853C15.9005 9.42784 15.2529 8.86865 14.4659 8.72731L13.6144 8.57497ZM9.00012 12.4949C9.00012 11.8561 9.71169 11.475 10.2433 11.8289L12.5011 13.3347C12.9761 13.6514 12.9761 14.3491 12.5011 14.6658L10.2433 16.1707C9.71179 16.5247 9.00045 16.1442 9.00012 15.5056V12.4949ZM16.6144 4.57497C14.5547 4.20528 12.4456 4.2053 10.3859 4.57497L9.505 4.73317C8.75838 4.86737 8.1514 5.41225 7.9386 6.1404L7.83899 6.47926C9.87428 6.20079 11.9427 6.24272 13.9679 6.60622L14.8195 6.75856C16.3238 7.02872 17.5617 8.0967 18.0509 9.54469C18.6311 11.263 18.8594 13.067 18.7423 14.8533C18.7779 14.7886 18.8105 14.7213 18.8351 14.6502L19.129 13.7976C19.9808 11.3331 19.9906 8.65489 19.1564 6.18434C18.9004 5.42711 18.2527 4.8686 17.4659 4.72731L16.6144 4.57497Z" fill="black"/>
</svg>
