<svg width="24" height="24" viewBox="0 0 24 24" fill="none" xmlns="http://www.w3.org/2000/svg">
<path d="M2.29324 2.29311C2.68377 1.90266 3.3168 1.90261 3.70731 2.29311L6.40945 4.99526C10.3003 1.83281 16.332 2.47133 19.3538 6.91616C20.5628 8.69454 21.611 10.2586 22.1009 11.047C22.4675 11.6374 22.4675 12.3629 22.1009 12.9533C21.611 13.7417 20.5627 15.3058 19.3538 17.0841C19.238 17.2545 19.1151 17.4173 18.9905 17.5763L21.7073 20.2931C22.0976 20.6836 22.0977 21.3167 21.7073 21.7072C21.3169 22.0976 20.6838 22.0975 20.2932 21.7072L2.29324 3.70718C1.90272 3.31665 1.90272 2.68364 2.29324 2.29311ZM4.85574 10.1837C4.34632 10.946 3.93128 11.5759 3.66434 12.0001C4.15427 12.7788 5.13951 14.2515 6.30106 15.9601C7.98565 18.4376 10.8761 19.3882 13.4886 18.8166L15.0989 20.4269C11.4541 21.7718 7.07673 20.6582 4.64676 17.0841C3.43784 15.3058 2.38963 13.7418 1.89969 12.9533C1.53289 12.3628 1.53296 11.6375 1.89969 11.047L2.36551 10.3195C2.65352 9.87774 3.00981 9.34004 3.41238 8.74038L4.85574 10.1837ZM17.6995 8.04018C15.3995 4.65738 10.8511 4.11658 7.83231 6.41811L13.9309 12.5167C13.9753 12.352 14.0002 12.179 14.0003 12.0001C14.0001 10.8958 13.1046 10.0003 12.0003 10.0001C11.4481 10.0001 11.0005 9.55224 11.0003 9.00014C11.0004 8.44798 11.4481 8.00014 12.0003 8.00014C14.2092 8.00031 16.0001 9.79123 16.0003 12.0001C16.0002 12.7417 15.7958 13.4345 15.4436 14.0294L17.5638 16.1496C17.6094 16.0872 17.6556 16.0247 17.6995 15.9601C18.8608 14.2519 19.8452 12.7789 20.3352 12.0001C19.8453 11.2215 18.8609 9.74853 17.6995 8.04018Z" fill="black"/>
</svg>
