<svg width="24" height="24" viewBox="0 0 24 24" fill="none" xmlns="http://www.w3.org/2000/svg">
<path d="M4.6467 6.91576C8.17793 1.72179 15.8226 1.72167 19.3537 6.91576C20.5628 8.69427 21.6109 10.2582 22.1008 11.0466C22.4676 11.6371 22.4675 12.3624 22.1008 12.9529C21.611 13.7412 20.5628 15.3053 19.3537 17.0837C15.8226 22.278 8.17787 22.278 4.6467 17.0837C3.43761 15.3052 2.38948 13.7413 1.89963 12.9529C1.53278 12.3623 1.53274 11.6371 1.89963 11.0466L2.36545 10.3191C2.92348 9.4632 3.73985 8.24971 4.6467 6.91576ZM17.6994 8.03978C14.9619 4.01342 9.03859 4.01355 6.30099 8.03978C5.1394 9.74845 4.15421 11.2211 3.66428 11.9997C4.15414 12.7783 5.13929 14.2509 6.30099 15.9597C9.03853 19.9862 14.9619 19.9862 17.6994 15.9597C18.8612 14.2508 19.8454 12.7773 20.3352 11.9988C19.845 11.2198 18.8605 9.74775 17.6994 8.03978ZM12.0002 7.99974C14.2092 7.99985 16.0001 9.79079 16.0002 11.9997C16.0002 14.2088 14.2093 15.9996 12.0002 15.9997C9.79107 15.9997 8.00021 14.2089 8.00021 11.9997C8.00035 11.4476 8.44802 10.9997 9.00021 10.9997C9.55232 10.9999 10.0001 11.4476 10.0002 11.9997C10.0002 13.1043 10.8956 13.9997 12.0002 13.9997C13.1047 13.9996 14.0002 13.1042 14.0002 11.9997C14.0001 10.8954 13.1046 9.99985 12.0002 9.99974C11.4479 9.99974 11.0002 9.55203 11.0002 8.99974C11.0004 8.44758 11.448 7.99974 12.0002 7.99974Z" fill="black"/>
</svg>
