<svg width="24" height="24" viewBox="0 0 24 24" fill="none" xmlns="http://www.w3.org/2000/svg">
<path d="M17 3C19.2091 3 21 4.79086 21 7V8.76758C21.6127 9.31685 22 10.1124 22 11V13C22 13.8874 21.6124 14.6822 21 15.2314V17C21 19.2091 19.2091 21 17 21H7C4.79086 21 3 19.2091 3 17V7C3 4.79086 4.79086 3 7 3H17ZM7 5C5.89543 5 5 5.89543 5 7V17C5 18.1046 5.89543 19 7 19H17C18.1046 19 19 18.1046 19 17V16H14C12.3431 16 11 14.6569 11 13V11C11 9.34315 12.3431 8 14 8H19V7C19 5.89543 18.1046 5 17 5H7ZM14 10C13.4477 10 13 10.4477 13 11V13C13 13.5523 13.4477 14 14 14H19C19.5523 14 20 13.5523 20 13V11C20 10.4477 19.5523 10 19 10H14ZM15 11C15.5523 11 16 11.4477 16 12C16 12.5523 15.5523 13 15 13C14.4477 13 14 12.5523 14 12C14 11.4477 14.4477 11 15 11Z" fill="black"/>
</svg>
