<svg width="24" height="24" viewBox="0 0 24 24" fill="none" xmlns="http://www.w3.org/2000/svg">
<path d="M8.46899 4.13952C9.97364 1.31079 14.0268 1.31079 15.5315 4.13952L21.3733 15.1219C22.7901 17.7861 20.8595 20.9997 17.842 20.9999H6.15845C3.14078 20.9999 1.21021 17.7862 2.6272 15.1219L8.46899 4.13952ZM12.0002 15.9999C11.448 15.9999 11.0003 16.4476 11.0002 16.9999C11.0002 17.5522 11.448 17.9999 12.0002 17.9999C12.5524 17.9997 13.0002 17.5521 13.0002 16.9999C13.0002 16.4477 12.5524 16 12.0002 15.9999ZM12.0002 5.99987C11.448 5.99986 11.0003 6.44764 11.0002 6.99987V13.9999C11.0002 14.5521 11.448 14.9998 12.0002 14.9999C12.5523 14.9997 13.0002 14.552 13.0002 13.9999V6.99987C13.0002 6.44772 12.5524 5.99998 12.0002 5.99987Z" fill="black"/>
</svg>
