<svg width="24" height="24" viewBox="0 0 24 24" fill="none" xmlns="http://www.w3.org/2000/svg">
<path d="M12 2C16.294 2 19.9534 4.70622 21.3711 8.50488C22.1925 8.43583 23 9.06487 23 10V14C23 14.935 22.1925 15.5649 21.3711 15.4961C19.9532 19.2943 16.2936 22 12 22C6.47715 22 2 17.5228 2 12C2 6.47715 6.47715 2 12 2ZM13.9473 14.2793C13.423 14.7276 12.7439 15 12 15C11.8125 15 11.6291 14.9821 11.4512 14.9492L8.89551 19.375C9.85011 19.7773 10.899 20 12 20C14.6009 20 16.9118 18.7573 18.373 16.834L13.9473 14.2793ZM4.62402 8.89551C4.22179 9.85002 4 10.8992 4 12C4 14.6013 5.24213 16.912 7.16504 18.373L9.71973 13.9473C9.27168 13.4231 9 12.7436 9 12C9 11.8126 9.01692 11.6291 9.0498 11.4512L4.62402 8.89551ZM14.2793 10.0518C14.7279 10.5761 15 11.2559 15 12C15 12.1872 14.982 12.3702 14.9492 12.5479L19.375 15.1035C19.4635 14.8935 19.5427 14.6787 19.6133 14.46L17.9336 13.2002C17.1336 12.6002 17.1336 11.3998 17.9336 10.7998L19.6133 9.53906C19.105 7.96511 18.1218 6.60574 16.833 5.62695L14.2793 10.0518ZM12 11C11.4477 11 11 11.4477 11 12C11 12.5523 11.4477 13 12 13C12.5523 13 13 12.5523 13 12C13 11.4477 12.5523 11 12 11ZM19.667 12L21 12.999V11L19.667 12ZM12 4C9.39846 4 7.08704 5.24186 5.62598 7.16504L10.0518 9.71973C10.576 9.27139 11.2561 9 12 9C12.1871 9 12.3702 9.01703 12.5479 9.0498L15.1025 4.625C14.1483 4.22304 13.1002 4 12 4Z" fill="black"/>
</svg>
