<svg width="24" height="24" viewBox="0 0 24 24" fill="none" xmlns="http://www.w3.org/2000/svg">
<mask id="path-1-inside-1_74_3582" fill="white">
<path d="M17 3C19.2091 3 21 4.79086 21 7V17C21 19.2091 19.2091 21 17 21H7C4.79086 21 3 19.2091 3 17V7C3 4.79086 4.79086 3 7 3H17ZM5 17C5 18.1046 5.89543 19 7 19H17C18.1046 19 19 18.1046 19 17V11H5V17ZM7 5C5.89543 5 5 5.89543 5 7V9H19V7C19 5.89543 18.1046 5 17 5H7ZM7.00977 6C7.56205 6 8.00977 6.44772 8.00977 7C8.00977 7.55228 7.56205 8 7.00977 8H7C6.44772 8 6 7.55228 6 7C6 6.44772 6.44772 6 7 6H7.00977ZM10.0098 6C10.5621 6 11.0098 6.44772 11.0098 7C11.0098 7.55228 10.5621 8 10.0098 8H10C9.44772 8 9 7.55228 9 7C9 6.44772 9.44772 6 10 6H10.0098ZM13.0098 6C13.5621 6 14.0098 6.44772 14.0098 7C14.0098 7.55228 13.5621 8 13.0098 8H13C12.4477 8 12 7.55228 12 7C12 6.44772 12.4477 6 13 6H13.0098Z"/>
</mask>
<path d="M17 3C19.2091 3 21 4.79086 21 7V17C21 19.2091 19.2091 21 17 21H7C4.79086 21 3 19.2091 3 17V7C3 4.79086 4.79086 3 7 3H17ZM5 17C5 18.1046 5.89543 19 7 19H17C18.1046 19 19 18.1046 19 17V11H5V17ZM7 5C5.89543 5 5 5.89543 5 7V9H19V7C19 5.89543 18.1046 5 17 5H7ZM7.00977 6C7.56205 6 8.00977 6.44772 8.00977 7C8.00977 7.55228 7.56205 8 7.00977 8H7C6.44772 8 6 7.55228 6 7C6 6.44772 6.44772 6 7 6H7.00977ZM10.0098 6C10.5621 6 11.0098 6.44772 11.0098 7C11.0098 7.55228 10.5621 8 10.0098 8H10C9.44772 8 9 7.55228 9 7C9 6.44772 9.44772 6 10 6H10.0098ZM13.0098 6C13.5621 6 14.0098 6.44772 14.0098 7C14.0098 7.55228 13.5621 8 13.0098 8H13C12.4477 8 12 7.55228 12 7C12 6.44772 12.4477 6 13 6H13.0098Z" fill="black"/>
<path d="M19 11H21V9H19V11ZM5 11V9H3V11H5ZM5 9H3V11H5V9ZM19 9V11H21V9H19ZM17 3V5C18.1046 5 19 5.89543 19 7H21H23C23 3.68629 20.3137 1 17 1V3ZM21 7H19V17H21H23V7H21ZM21 17H19C19 18.1046 18.1046 19 17 19V21V23C20.3137 23 23 20.3137 23 17H21ZM17 21V19H7V21V23H17V21ZM7 21V19C5.89543 19 5 18.1046 5 17H3H1C1 20.3137 3.68629 23 7 23V21ZM3 17H5V7H3H1V17H3ZM3 7H5C5 5.89543 5.89543 5 7 5V3V1C3.68629 1 1 3.68629 1 7H3ZM7 3V5H17V3V1H7V3ZM5 17H3C3 19.2091 4.79086 21 7 21V19V17H5ZM7 19V21H17V19V17H7V19ZM17 19V21C19.2091 21 21 19.2091 21 17H19H17V19ZM19 17H21V11H19H17V17H19ZM19 11V9H5V11V13H19V11ZM5 11H3V17H5H7V11H5ZM7 5V3C4.79086 3 3 4.79086 3 7H5H7V5ZM5 7H3V9H5H7V7H5ZM5 9V11H19V9V7H5V9ZM19 9H21V7H19H17V9H19ZM19 7H21C21 4.79086 19.2091 3 17 3V5V7H19ZM17 5V3H7V5V7H17V5ZM7.00977 6V8C6.45748 8 6.00977 7.55228 6.00977 7H8.00977H10.0098C10.0098 5.34315 8.66662 4 7.00977 4V6ZM8.00977 7H6.00977C6.00977 6.44772 6.45748 6 7.00977 6V8V10C8.66662 10 10.0098 8.65685 10.0098 7H8.00977ZM7.00977 8V6H7V8V10H7.00977V8ZM7 8V6C7.55228 6 8 6.44772 8 7H6H4C4 8.65685 5.34315 10 7 10V8ZM6 7H8C8 7.55228 7.55228 8 7 8V6V4C5.34315 4 4 5.34315 4 7H6ZM7 6V8H7.00977V6V4H7V6ZM10.0098 6V8C9.45748 8 9.00977 7.55228 9.00977 7H11.0098H13.0098C13.0098 5.34315 11.6666 4 10.0098 4V6ZM11.0098 7H9.00977C9.00977 6.44772 9.45748 6 10.0098 6V8V10C11.6666 10 13.0098 8.65685 13.0098 7H11.0098ZM10.0098 8V6H10V8V10H10.0098V8ZM10 8V6C10.5523 6 11 6.44772 11 7H9H7C7 8.65685 8.34315 10 10 10V8ZM9 7H11C11 7.55228 10.5523 8 10 8V6V4C8.34315 4 7 5.34315 7 7H9ZM10 6V8H10.0098V6V4H10V6ZM13.0098 6V8C12.4575 8 12.0098 7.55228 12.0098 7H14.0098H16.0098C16.0098 5.34315 14.6666 4 13.0098 4V6ZM14.0098 7H12.0098C12.0098 6.44772 12.4575 6 13.0098 6V8V10C14.6666 10 16.0098 8.65685 16.0098 7H14.0098ZM13.0098 8V6H13V8V10H13.0098V8ZM13 8V6C13.5523 6 14 6.44772 14 7H12H10C10 8.65685 11.3431 10 13 10V8ZM12 7H14C14 7.55228 13.5523 8 13 8V6V4C11.3431 4 10 5.34315 10 7H12ZM13 6V8H13.0098V6V4H13V6Z" fill="black" mask="url(#path-1-inside-1_74_3582)"/>
</svg>
