<svg width="24" height="24" viewBox="0 0 24 24" fill="none" xmlns="http://www.w3.org/2000/svg">
<path d="M17.293 5.29302C17.6835 4.9025 18.3165 4.9025 18.707 5.29302C19.0975 5.68355 19.0975 6.31658 18.707 6.70708L13.4141 12.0001L18.707 17.293L18.7754 17.3692C19.0957 17.762 19.0731 18.341 18.707 18.7071C18.3409 19.0732 17.7619 19.0957 17.3691 18.7754L17.293 18.7071L12 13.4141L6.70703 18.7071C6.31653 19.0976 5.6835 19.0976 5.29297 18.7071C4.90244 18.3166 4.90244 17.6835 5.29297 17.293L10.5859 12.0001L5.29297 6.70708C4.90244 6.31656 4.90244 5.68355 5.29297 5.29302C5.68349 4.9025 6.31651 4.9025 6.70703 5.29302L12 10.586L17.293 5.29302Z" fill="black"/>
</svg>
