<svg width="24" height="24" viewBox="0 0 24 24" fill="none" xmlns="http://www.w3.org/2000/svg">
<path d="M15.293 7.29303C15.6835 6.90251 16.3165 6.90251 16.707 7.29303C17.0975 7.68356 17.0975 8.31659 16.707 8.70709L13.4141 12.0001L16.707 15.293L16.7754 15.3692C17.0957 15.762 17.0731 16.341 16.707 16.7071C16.3409 17.0732 15.7619 17.0957 15.3691 16.7755L15.293 16.7071L12 13.4141L8.70703 16.7071C8.31653 17.0976 7.6835 17.0976 7.29297 16.7071C6.90245 16.3166 6.90245 15.6836 7.29297 15.293L10.5859 12.0001L7.29297 8.70709C6.90245 8.31657 6.90245 7.68355 7.29297 7.29303C7.68349 6.90251 8.31651 6.90251 8.70703 7.29303L12 10.586L15.293 7.29303Z" fill="black"/>
</svg>
