<svg width="24" height="24" viewBox="0 0 24 24" fill="none" xmlns="http://www.w3.org/2000/svg">
<path d="M11 2C15.9706 2 20 6.02944 20 11C20 13.125 19.2619 15.0766 18.0303 16.6162L20.707 19.293L20.7754 19.3691C21.0957 19.7619 21.0731 20.3409 20.707 20.707C20.3409 21.0731 19.7619 21.0957 19.3691 20.7754L19.293 20.707L16.6162 18.0303C15.0766 19.2619 13.125 20 11 20C6.02944 20 2 15.9706 2 11C2 6.02944 6.02944 2 11 2ZM11 4C7.13401 4 4 7.13401 4 11C4 14.866 7.13401 18 11 18C14.866 18 18 14.866 18 11C18 7.13401 14.866 4 11 4ZM11 8C11.5523 8 12 8.44772 12 9V10H13C13.5523 10 14 10.4477 14 11C14 11.5523 13.5523 12 13 12H12V13C12 13.5523 11.5523 14 11 14C10.4477 14 10 13.5523 10 13V12H9C8.44772 12 8 11.5523 8 11C8 10.4477 8.44772 10 9 10H10V9C10 8.44772 10.4477 8 11 8Z" fill="black"/>
</svg>
